<svg height="512pt" viewBox="0 0 512.001 512" width="512pt" xmlns="http://www.w3.org/2000/svg"><path d="m355.378906 318.925781 40.058594 40.058594-36.371094 36.375-40.058594-40.0625zm0 0" fill="#fff"/><path d="m499.785156 473.640625-26.066406 26.070313c-6.285156 6.28125-16.472656 6.28125-22.757812 0l-90.75-90.75c-6.28125-6.285157-6.28125-16.472657 0-22.753907l26.070312-26.070312c6.285156-6.285157 16.472656-6.285157 22.753906 0l90.75 90.75c6.285156 6.285156 6.285156 16.472656 0 22.753906zm0 0" fill="#ffc843"/><path d="m409.039062 360.136719 90.746094 90.746093c6.285156 6.28125 6.285156 16.472657 0 22.753907l-15.515625 15.519531c6.285157-6.285156 6.285157-16.472656 0-22.757812l-90.746093-90.746094c-6.285157-6.285156-16.472657-6.285156-22.757813 0l15.519531-15.515625c6.28125-6.285157 16.472656-6.285157 22.753906 0zm0 0" fill="#eaa62f"/><path d="m396.289062 201.816406c0 107.359375-87.035156 194.394532-194.394531 194.394532-107.363281 0-194.394531-87.035157-194.394531-194.394532 0-107.363281 87.03125-194.394531 194.394531-194.394531 107.359375 0 194.394531 87.03125 194.394531 194.394531zm0 0" fill="#ffc843"/><path d="m201.894531 369.5c-44.789062 0-86.898437-17.441406-118.570312-49.113281-65.378907-65.378907-65.378907-171.761719 0-237.140625 31.671875-31.671875 73.78125-49.113282 118.570312-49.113282 44.789063 0 86.898438 17.441407 118.570313 49.113282 65.378906 65.378906 65.378906 171.761718 0 237.140625-31.671875 31.671875-73.78125 49.113281-118.570313 49.113281zm0 0" fill="#eaa62f"/><path d="m357.578125 201.816406c0 85.980469-69.703125 155.679688-155.683594 155.679688s-155.683593-69.699219-155.683593-155.679688c0-85.980468 69.703124-155.683594 155.683593-155.683594s155.683594 69.703126 155.683594 155.683594zm0 0" fill="#fff"/><path d="m113.175781 228.535156h176.777344l4.664063-22.742187c12.074218-58.902344-32.925782-114.0625-93.050782-114.0625-60.128906 0-105.125 55.160156-93.050781 114.0625zm0 0" fill="#ffc843"/><path d="m299.8125 237.4375c0 12.421875-10.070312 22.496094-22.492188 22.496094-12.425781 0-22.496093-10.074219-22.496093-22.496094 0-12.425781 10.070312-22.496094 22.496093-22.496094 12.421876 0 22.492188 10.070313 22.492188 22.496094zm0 0" fill="#fff"/><path d="m148.304688 237.4375c0 12.421875-10.070313 22.496094-22.496094 22.496094-12.421875 0-22.492188-10.074219-22.492188-22.496094 0-12.425781 10.070313-22.496094 22.492188-22.496094 12.425781 0 22.496094 10.070313 22.496094 22.496094zm0 0" fill="#fff"/><path d="m201.566406 312.777344c-30.578125 0-56.371094-22.769532-60.160156-53.113282l-11.191406-89.585937h142.699218l-11.191406 89.585937c-3.789062 30.34375-29.582031 53.113282-60.15625 53.113282zm0 0" fill="#fff"/><path d="m121.242188 193.976562s30.804687 8.699219 59.097656-11.953124c0 0 63.179687 44.796874 124.652344 1.40625 3.121093-2.203126 3.039062-6.851563-.179688-8.90625l-38.1875-24.335938h-145.382812zm0 0" fill="#ffc843"/><path d="m429.734375 92.734375c0 34.929687-28.316406 63.246094-63.246094 63.246094-34.933593 0-63.25-28.316407-63.25-63.246094 0-34.933594 28.316407-63.25 63.25-63.25 34.929688 0 63.246094 28.316406 63.246094 63.25zm0 0" fill="#76ffd9"/><g fill="#474d54"><path d="m505.089844 445.582031-49.988282-49.988281c-2.929687-2.925781-7.675781-2.925781-10.605468 0-2.929688 2.929688-2.929688 7.679688 0 10.609375l49.988281 49.988281c1.621094 1.621094 2.515625 3.777344 2.515625 6.070313 0 2.296875-.894531 4.453125-2.515625 6.074219l-26.070313 26.070312c-3.347656 3.351562-8.796874 3.351562-12.144531 0l-90.753906-90.75c-3.347656-3.347656-3.347656-8.796875 0-12.148438l26.070313-26.070312c3.347656-3.347656 8.800781-3.347656 12.148437 0l17.667969 17.667969c2.929687 2.929687 7.675781 2.929687 10.605468 0 2.929688-2.925781 2.929688-7.675781 0-10.605469l-17.667968-17.667969c-5.242188-5.238281-12.351563-7.484375-19.203125-6.753906l-28.921875-28.917969c16.996094-23.738281 28.625-50.867187 34.078125-79.890625.765625-4.070312-1.914063-7.992187-5.988281-8.757812-4.0625-.765625-7.988282 1.917969-8.753907 5.988281-6.957031 37.027344-24.765625 70.730469-51.503906 97.46875-35.296875 35.300781-82.230469 54.742188-132.152344 54.742188s-96.855469-19.441407-132.152343-54.742188c-35.300782-35.296875-54.742188-82.230469-54.742188-132.152344s19.441406-96.855468 54.742188-132.15625c64.667968-64.667968 166.949218-72.753906 240.6875-20.015625-4.859376 6.304688-8.675782 13.445313-11.199219 21.171875l-3.265625 16.496094c-.132813 1.792969-.226563 3.59375-.226563 5.421875 0 31.152344 20.246094 57.644531 48.269531 67.0625l16.445313 3.410156c1.992187.167969 4 .273438 6.035156.273438 6.164063 0 12.144531-.796875 17.847657-2.285157 3.1875 14.386719 4.671874 29.121094 4.414062 43.898438-.074219 4.140625 3.226562 7.558594 7.367188 7.628906h.132812c4.082031 0 7.425781-3.269531 7.496094-7.367187.292968-16.691407-1.480469-33.339844-5.257813-49.554688 22.96875-11.703125 38.746094-35.570312 38.746094-63.066406 0-39.011719-31.738281-70.75-70.746094-70.75-17.359375 0-33.269531 6.296875-45.59375 16.707031-79.792969-58.359375-191.390625-50.003906-261.761719 20.363282-38.132812 38.132812-59.132812 88.832031-59.132812 142.761718 0 53.925782 21 104.628906 59.132812 142.757813 38.132813 38.136719 88.832032 59.136719 142.761719 59.136719 42.683594 0 83.339844-13.167969 117.351563-37.566407l28.910156 28.914063c-.730469 6.851562 1.511719 13.964844 6.753906 19.203125l90.75 90.753906c4.601563 4.597656 10.640625 6.898437 16.679688 6.898437 6.039062-.003906 12.085937-2.300781 16.683594-6.898437l26.066406-26.070313c4.457031-4.457031 6.910156-10.378906 6.910156-16.683593 0-6.296875-2.453125-12.222657-6.910156-16.679688zm-138.601563-408.597656c30.738281 0 55.746094 25.007813 55.746094 55.75 0 30.738281-25.007813 55.746094-55.746094 55.746094-30.742187 0-55.75-25.007813-55.75-55.746094 0-30.742187 25.007813-55.75 55.75-55.75zm-35.296875 319.894531c4.636719-3.878906 9.136719-7.976562 13.464844-12.304687 4.320312-4.320313 8.421875-8.8125 12.300781-13.457031l23.867188 23.867187-25.765625 25.765625zm0 0"/><path d="m125.808594 267.433594c3.089844 0 6.148437-.507813 9.066406-1.433594 6.492188 31.296875 34.242188 54.277344 66.6875 54.277344 32.449219 0 60.199219-22.980469 66.691406-54.277344 2.917969.925781 5.976563 1.433594 9.0625 1.433594 16.539063 0 29.996094-13.457032 29.996094-29.996094 0-7.574219-2.828125-14.496094-7.472656-19.78125l2.121094-10.359375c.957031-4.667969 1.574218-9.410156 1.882812-14.125 1.84375-1.152344 3.671875-2.34375 5.472656-3.617187 3.519532-2.484376 5.5625-6.535157 5.457032-10.835938-.101563-4.285156-2.316407-8.214844-5.933594-10.519531l-7.429688-4.734375c-10.75-46.101563-52.210937-79.234375-99.847656-79.234375-30.921875 0-59.863281 13.742187-79.410156 37.703125-19.546875 23.960937-27.195313 55.074218-20.988282 85.363281l2.125 10.359375c-4.648437 5.285156-7.476562 12.207031-7.476562 19.78125.003906 16.539062 13.457031 29.996094 29.996094 29.996094zm-14.992188-29.996094c0-8.269531 6.726563-14.996094 14.992188-14.996094 1.171875 0 2.320312.148438 3.441406.410156l3.480469 27.882813c-2.117188 1.109375-4.46875 1.695313-6.921875 1.695313-8.265625 0-14.992188-6.726563-14.992188-14.992188zm90.746094 67.839844c-26.738281 0-49.398438-20.007813-52.714844-46.542969l-6.941406-55.574219c11.023438-.59375 24.902344-3.488281 38.570312-12.15625 6.574219 3.933594 19.945313 11 37.347657 15.277344 9.652343 2.375 19.199219 3.554688 28.550781 3.554688 4.765625 0 9.476562-.324219 14.132812-.9375l-6.226562 49.835937c-3.3125 26.535156-25.976562 46.542969-52.71875 46.542969zm75.757812-52.847656c-2.457031 0-4.804687-.585938-6.921874-1.691407l3.480468-27.886719c1.121094-.261718 2.265625-.410156 3.441406-.410156 8.265626 0 14.992188 6.726563 14.992188 14.996094s-6.726562 14.992188-14.992188 14.992188zm9.949219-48.144532-.933593 4.542969c-2.847657-.898437-5.875-1.386719-9.015626-1.386719-.507812 0-1.015624.011719-1.519531.039063l.226563-1.808594c3.976562-1.144531 7.894531-2.523437 11.746094-4.140625-.15625.921875-.316407 1.839844-.503907 2.753906zm-153.496093-72.871094c16.6875-20.453124 41.394531-32.183593 67.792968-32.183593 34.824219 0 65.78125 20.742187 79.726563 51.410156l-10.636719-6.78125c-3.492188-2.222656-8.128906-1.199219-10.355469 2.292969-2.226562 3.496094-1.199219 8.132812 2.292969 10.359375l35.441406 22.589843c-22.835937 15.128907-48.433594 19.414063-76.128906 12.734376-21.949219-5.292969-37.089844-15.832032-37.230469-15.929688-2.628906-1.867188-6.152343-1.839844-8.757812.058594-19.800781 14.453125-41.074219 12.839844-49.304688 11.472656-4.085937-.675781-7.949219 2.085938-8.625 6.175781-.679687 4.085938 2.085938 7.945313 6.171875 8.625.761719.125 1.625.253907 2.558594.375l.609375 4.867188c-.503906-.023438-1.011719-.039063-1.519531-.039063-3.140625 0-6.167969.488282-9.015625 1.386719l-.929688-4.542969c-5.304687-25.855468 1.226563-52.417968 17.910157-72.871094zm0 0"/><path d="m176.136719 235.945312-.097657-3.566406c-.113281-4.140625-3.578124-7.410156-7.703124-7.292968-4.140626.113281-7.40625 3.5625-7.292969 7.703124l.097656 3.566407c.113281 4.070312 3.445313 7.292969 7.492187 7.292969.070313 0 .140626 0 .210938-.003907 4.140625-.113281 7.40625-3.5625 7.292969-7.699219zm0 0"/><path d="m234.285156 225.085938c-4.140625.113281-7.402344 3.5625-7.292968 7.703124l.101562 3.566407c.109375 4.070312 3.445312 7.292969 7.492188 7.292969.066406 0 .140624 0 .207031-.003907 4.140625-.113281 7.40625-3.5625 7.292969-7.699219l-.097657-3.566406c-.113281-4.140625-3.550781-7.410156-7.703125-7.292968zm0 0"/><path d="m226.011719 251.425781c-3.355469-2.429687-8.042969-1.679687-10.476563 1.675781-3.238281 4.476563-8.464844 7.148438-13.972656 7.148438-5.503906 0-10.730469-2.671875-13.972656-7.148438-2.429688-3.355468-7.113282-4.105468-10.472656-1.675781-3.351563 2.429688-4.101563 7.117188-1.675782 10.472657 6.054688 8.359374 15.820313 13.351562 26.121094 13.351562 10.304688 0 20.066406-4.992188 26.121094-13.351562 2.429687-3.355469 1.679687-8.042969-1.671875-10.472657zm0 0"/></g><path d="m337.367188 100.234375h3.820312v3.820313c0 4.140624 3.359375 7.5 7.5 7.5 4.144531 0 7.5-3.359376 7.5-7.5v-3.820313h3.820312c4.144532 0 7.5-3.359375 7.5-7.5 0-4.144531-3.355468-7.5-7.5-7.5h-3.820312v-3.824219c0-4.140625-3.355469-7.5-7.5-7.5-4.140625 0-7.5 3.359375-7.5 7.5v3.824219h-3.820312c-4.144532 0-7.5 3.355469-7.5 7.5 0 4.140625 3.359374 7.5 7.5 7.5zm0 0" fill="#fff"/><path d="m380.851562 84.976562h.042969v19.46875c-4.007812.152344-7.210937 3.441407-7.210937 7.484376 0 4.140624 3.355468 7.5 7.5 7.5h14.421875c4.144531 0 7.5-3.359376 7.5-7.5 0-4.042969-3.203125-7.332032-7.210938-7.484376v-30.910156c0-2.621094-1.371093-5.054687-3.613281-6.414062s-5.03125-1.445313-7.355469-.234375l-7.546875 3.9375c-3.671875 1.914062-5.097656 6.445312-3.179687 10.117187 1.335937 2.566406 3.949219 4.035156 6.652343 4.035156zm0 0" fill="#fff"/></svg>