<svg height="512pt" viewBox="-86 0 512 512" width="512pt" xmlns="http://www.w3.org/2000/svg"><path d="m321.5 161h-13v-79h13c5.523438 0 10 4.476562 10 10v59c0 5.523438-4.476562 10-10 10zm0 0" fill="#fff"/><path d="m17.5 252h13v-39h-13c-5.523438 0-10 4.476562-10 10v19c0 5.523438 4.476562 10 10 10zm0 0" fill="#fff"/><path d="m17.5 181h13v-99h-13c-5.523438 0-10 4.476562-10 10v79c0 5.523438 4.476562 10 10 10zm0 0" fill="#fff"/><path d="m17.5 314h13v-39h-13c-5.523438 0-10 4.476562-10 10v19c0 5.523438 4.476562 10 10 10zm0 0" fill="#fff"/><path d="m27.917969 484.5v-457c0-11.046875 8.953125-20 20-20h243.164062c11.046875 0 20 8.953125 20 20v457c0 11.046875-8.953125 20-20 20h-243.164062c-11.046875 0-20-8.953125-20-20zm0 0" fill="#ffc843"/><path d="m311.078125 27.5v457c0 11.050781-8.949219 20-20 20h-19.578125c11.050781 0 20-8.949219 20-20v-457c0-11.050781-8.949219-20-20-20h19.578125c11.050781 0 20 8.949219 20 20zm0 0" fill="#eaa62f"/><path d="m27.917969 58h283.164062v396h-283.164062zm0 0" fill="#fff"/><path d="m291.5 58h19.582031v396h-19.582031zm0 0" fill="#d9dfe9"/><path d="m254.851562 314h-170.703124c-7.8125 0-14.148438-6.335938-14.148438-14.148438v-22.703124c0-7.8125 6.335938-14.148438 14.148438-14.148438h170.703124c7.8125 0 14.148438 6.335938 14.148438 14.148438v22.703124c0 7.8125-6.335938 14.148438-14.148438 14.148438zm0 0" fill="#d9dfe9"/><path d="m254.851562 392h-170.703124c-7.8125 0-14.148438-6.335938-14.148438-14.148438v-22.703124c0-7.8125 6.335938-14.148438 14.148438-14.148438h170.703124c7.8125 0 14.148438 6.335938 14.148438 14.148438v22.703124c0 7.8125-6.335938 14.148438-14.148438 14.148438zm0 0" fill="#d9dfe9"/><path d="m220.449219 175.300781c0 6.171875-1.097657 12.085938-3.113281 17.566407-7.15625 19.480468-25.875 33.382812-47.835938 33.382812s-40.679688-13.902344-47.835938-33.382812c-2.015624-5.480469-3.113281-11.394532-3.113281-17.566407 0-28.148437 22.816407-50.953125 50.949219-50.953125s50.949219 22.804688 50.949219 50.953125zm0 0" fill="#d9dfe9"/><path d="m217.335938 192.867188c-7.15625 19.480468-25.875 33.382812-47.835938 33.382812s-40.679688-13.902344-47.835938-33.382812c7.15625-19.488282 25.875-33.382813 47.835938-33.382813s40.679688 13.894531 47.835938 33.382813zm0 0" fill="#76ffd9"/><path d="m197.609375 138.109375c0 15.527344-12.585937 28.113281-28.109375 28.113281s-28.109375-12.585937-28.109375-28.113281c0-15.523437 12.585937-28.109375 28.109375-28.109375s28.109375 12.585938 28.109375 28.109375zm0 0" fill="#ffc843"/><path d="m321.5 74.5h-2.917969v-47c0-15.164062-12.335937-27.5-27.5-27.5h-243.164062c-15.164063 0-27.5 12.335938-27.5 27.5v47h-2.917969c-9.648438 0-17.5 7.851562-17.5 17.5v79c0 9.648438 7.851562 17.5 17.5 17.5h2.917969v17h-2.917969c-9.648438 0-17.5 7.851562-17.5 17.5v19c0 9.648438 7.851562 17.5 17.5 17.5h2.917969v8h-2.917969c-9.648438 0-17.5 7.851562-17.5 17.5v19c0 9.648438 7.851562 17.5 17.5 17.5h2.917969v60.871094c0 4.144531 3.359375 7.5 7.5 7.5s7.5-3.355469 7.5-7.5v-354.871094c0-6.894531 5.605469-12.5 12.5-12.5h243.164062c6.890625 0 12.5 5.605469 12.5 12.5v183.882812c0 4.140626 3.355469 7.5 7.5 7.5 4.140625 0 7.5-3.359374 7.5-7.5v-42.882812h2.917969c9.648438 0 17.5-7.851562 17.5-17.5v-59c0-9.648438-7.851562-17.5-17.5-17.5zm-301.082031 232h-2.917969c-1.378906 0-2.5-1.121094-2.5-2.5v-19c0-1.378906 1.121094-2.5 2.5-2.5h2.917969zm0-62h-2.917969c-1.378906 0-2.5-1.121094-2.5-2.5v-19c0-1.378906 1.121094-2.5 2.5-2.5h2.917969zm0-71h-2.917969c-1.378906 0-2.5-1.121094-2.5-2.5v-79c0-1.378906 1.121094-2.5 2.5-2.5h2.917969zm303.582031-22.5c0 1.378906-1.121094 2.5-2.5 2.5h-2.917969v-64h2.917969c1.378906 0 2.5 1.121094 2.5 2.5zm0 0" fill="#474d54"/><path d="m203.3125 497h-155.394531c-6.894531 0-12.5-5.605469-12.5-12.5v-69.46875c0-4.140625-3.359375-7.5-7.5-7.5s-7.5 3.359375-7.5 7.5v69.46875c0 15.164062 12.335937 27.5 27.5 27.5h155.390625c4.144531 0 7.5-3.359375 7.5-7.5s-3.355469-7.5-7.496094-7.5zm0 0" fill="#474d54"/><path d="m311.082031 236.542969c-4.140625 0-7.5 3.355469-7.5 7.5v240.457031c0 6.894531-5.605469 12.5-12.5 12.5h-55.109375c-4.144531 0-7.5 3.359375-7.5 7.5s3.355469 7.5 7.5 7.5h55.109375c15.164063 0 27.5-12.335938 27.5-27.5v-240.457031c0-4.144531-3.359375-7.5-7.5-7.5zm0 0" fill="#474d54"/><path d="m189.082031 26.832031h-39.164062c-4.140625 0-7.5 3.359375-7.5 7.5 0 4.144531 3.359375 7.5 7.5 7.5h39.164062c4.140625 0 7.5-3.355469 7.5-7.5 0-4.140625-3.359375-7.5-7.5-7.5zm0 0" fill="#fff"/><g fill="#c2c7d0"><path d="m104.324219 296h.109375.066406c4.109375 0 7.460938-3.3125 7.5-7.433594.035156-4.140625-3.292969-7.53125-7.433594-7.566406h-.109375c-4.15625-.050781-7.527343 3.289062-7.566406 7.433594-.035156 4.140625 3.292969 7.527344 7.433594 7.566406zm0 0"/><path d="m132.433594 296h.109375.066406c4.109375 0 7.460937-3.3125 7.5-7.433594.035156-4.140625-3.292969-7.53125-7.433594-7.566406h-.109375c-4.125-.050781-7.53125 3.289062-7.566406 7.433594-.035156 4.140625 3.289062 7.527344 7.433594 7.566406zm0 0"/><path d="m160.542969 296h.109375.066406c4.113281 0 7.460938-3.3125 7.5-7.433594.035156-4.140625-3.292969-7.53125-7.433594-7.566406h-.109375c-.023437 0-.046875 0-.070312 0-4.109375 0-7.460938 3.3125-7.496094 7.433594-.035156 4.140625 3.292969 7.527344 7.433594 7.566406zm0 0"/><path d="m188.652344 296h.109375.066406c4.109375 0 7.460937-3.3125 7.5-7.433594.035156-4.140625-3.292969-7.53125-7.433594-7.566406h-.109375c-4.148437-.050781-7.527344 3.289062-7.566406 7.433594-.035156 4.140625 3.292969 7.527344 7.433594 7.566406zm0 0"/><path d="m216.761719 296h.109375.066406c4.113281 0 7.460938-3.3125 7.5-7.433594.035156-4.140625-3.292969-7.53125-7.433594-7.566406h-.109375c-4.117187-.050781-7.527343 3.289062-7.566406 7.433594-.035156 4.140625 3.292969 7.527344 7.433594 7.566406zm0 0"/><path d="m104.324219 374h.109375.066406c4.109375 0 7.460938-3.3125 7.5-7.433594.035156-4.140625-3.292969-7.53125-7.433594-7.566406h-.109375c-.023437 0-.042969 0-.066406 0-4.109375 0-7.460937 3.3125-7.5 7.433594-.035156 4.140625 3.292969 7.527344 7.433594 7.566406zm0 0"/><path d="m132.433594 374h.109375.066406c4.109375 0 7.460937-3.3125 7.5-7.433594.035156-4.140625-3.292969-7.53125-7.433594-7.566406h-.109375c-.023437 0-.042968 0-.066406 0-4.109375 0-7.460938 3.3125-7.5 7.433594-.035156 4.140625 3.289062 7.527344 7.433594 7.566406zm0 0"/><path d="m160.542969 374h.109375.066406c4.113281 0 7.460938-3.3125 7.5-7.433594.035156-4.140625-3.292969-7.53125-7.433594-7.566406h-.109375c-.023437 0-.046875 0-.070312 0-4.109375 0-7.460938 3.3125-7.496094 7.433594-.035156 4.140625 3.292969 7.527344 7.433594 7.566406zm0 0"/></g></svg>