<svg height="511pt" viewBox="-23 1 511 511.999" width="511pt" xmlns="http://www.w3.org/2000/svg"><path d="m228.386719 364.855469-136.589844 136.585937c-4.074219 4.078125-10.683594 4.078125-14.757813 0l-65.976562-65.972656c-4.929688-4.933594-3.734375-13.214844 2.390625-16.546875l174.171875-94.828125zm0 0" fill="#76ffd9"/><path d="m228.386719 364.859375-136.589844 136.582031c-4.070313 4.078125-10.679687 4.078125-14.761719 0l-8.46875-8.460937 143.96875-143.96875zm0 0" fill="#5de0bf"/><path d="m448.511719 60.160156c6.328125 0 10.605469 6.367188 8.332031 12.273438-4.929688 12.785156-17.332031 21.855468-31.855469 21.855468-18.847656 0-34.128906-15.277343-34.128906-34.128906zm0 0" fill="#ffc843"/><path d="m356.355469 352.980469c-57.660157 57.660156-151.148438 57.660156-208.808594 0-14.640625-14.640625-25.550781-31.582031-32.761719-49.671875l157.390625-157.378906 34.519531-34.519532c18.082032 7.199219 35.03125 18.121094 49.660157 32.75 8.402343 8.410156 15.582031 17.570313 21.542969 27.28125 34.898437 56.878906 27.71875 132.277344-21.542969 181.539063zm0 0" fill="#fff"/><path d="m377.898438 171.441406c-11.140626 4.71875-23.230469 7.1875-35.703126 7.1875-.71875 0-1.429687-.007812-2.148437-.019531-23.371094-.539063-45.460937-9.96875-62.210937-26.558594-1.988282-1.972656-3.878907-4.011719-5.660157-6.121093l34.519531-34.519532c18.082032 7.199219 35.03125 18.121094 49.660157 32.75 8.402343 8.410156 15.582031 17.570313 21.542969 27.28125zm0 0" fill="#d9dfe9"/><path d="m356.355469 352.980469c-32.5 32.5-76.378907 46.679687-118.808594 42.539062 32.859375-3.199219 64.839844-17.378906 90-42.539062 57.660156-57.660157 57.660156-151.152344 0-208.820313-9.269531-9.261718-19.460937-17.039062-30.28125-23.320312l9.429687-9.429688c18.082032 7.199219 35.03125 18.121094 49.660157 32.75 57.671875 57.667969 57.671875 151.160156 0 208.820313zm0 0" fill="#d9dfe9"/><path d="m274.140625 77.226562c68.472656 68.472657 68.472656 179.488282 0 247.960938-65.816406 65.816406-170.945313 68.371094-239.808594 7.65625-4.542969-4.003906-4.820312-10.988281-.539062-15.269531zm0 0" fill="#fff"/><path d="m274.140625 77.226562c39.96875 39.96875 39.96875 104.769532 0 144.738282s-104.769531 39.96875-144.738281 0zm0 0" fill="#ffc843"/><path d="m345.109375 7.574219c0-.023438.003906-.050781.003906-.074219h-90.492187c-6.871094 0-11.847656 6.519531-10.082032 13.160156 3.03125 11.398438 9.898438 21.226563 19.132813 28.03125 3.65625 2.691406 5.027344 7.523438 3.507813 11.796875-3.222657 9.097657-4.84375 18.949219-4.507813 29.222657 1.363281 41.941406 35.695313 75.9375 77.652344 76.898437 44.796875 1.027344 81.433593-34.980469 81.433593-79.542969 0-42.964844-34.058593-77.957031-76.648437-79.492187zm0 0" fill="#76ffd9"/><path d="m393.121094 77.226562c0 15.40625-12.488282 27.894532-27.894532 27.894532s-27.894531-12.488282-27.894531-27.894532 12.488281-27.894531 27.894531-27.894531 27.894532 12.488281 27.894532 27.894531zm0 0" fill="#fff"/><g fill="#474d54"><path d="m462.101562 59.773438c-3.09375-4.453126-8.167968-7.109376-13.582031-7.109376h-26.339843c-4.117188-9.566406-9.953126-18.40625-17.382813-26.09375-15.476563-16.003906-36.144531-25.367187-58.3125-26.445312-.445313-.0820312-.902344-.125-1.371094-.125h-90.492187c-5.609375 0-10.789063 2.550781-14.207032 7-3.433593 4.460938-4.570312 10.144531-3.121093 15.589844 3.40625 12.816406 11.195312 24.230468 21.933593 32.140625.953126.699219 1.316407 2.039062.886719 3.253906-3.152343 8.890625-4.816406 18.164063-4.96875 27.628906l-226.65625 226.65625c-3.480469 3.484375-5.390625 8.300781-5.234375 13.21875.15625 4.957031 2.386719 9.6875 6.117188 12.980469 16.640625 14.667969 35.289062 25.757812 54.964844 33.320312l-74.46875 40.542969c-5.015626 2.730469-8.363282 7.539063-9.179688 13.1875-.816406 5.652344 1.03125 11.210938 5.070312 15.25l65.976563 65.976563c3.386719 3.386718 7.890625 5.253906 12.683594 5.253906s9.296875-1.867188 12.683593-5.253906l38.011719-38.011719c2.925781-2.925781 2.925781-7.675781 0-10.605469-2.929687-2.929687-7.679687-2.929687-10.609375 0l-38.007812 38.011719c-.75.746094-1.621094.859375-2.078125.859375-.453125 0-1.328125-.113281-2.074219-.859375l-65.976562-65.976563c-.90625-.90625-.910157-1.953124-.832032-2.5.078125-.542968.378906-1.546874 1.503906-2.15625l87.050782-47.394531c15.0625 3.890625 30.515625 5.839844 45.957031 5.839844 7.839844 0 15.675781-.511719 23.457031-1.507813 5.746094 3.371094 11.667969 6.363282 17.738282 8.945313l-43.640626 43.640625c-2.929687 2.929688-2.929687 7.679688 0 10.609375 1.460938 1.460937 3.382813 2.195313 5.300782 2.195313 1.917968 0 3.839844-.730469 5.304687-2.195313l48.601563-48.605469c14.566406 4.425782 29.726562 6.699219 45.023437 6.699219 9.652344 0 19.359375-.898437 28.992188-2.714844 4.074219-.765625 6.75-4.6875 5.984375-8.757812-.769532-4.070313-4.6875-6.746094-8.761719-5.980469-27.375 5.160156-55.339844 2.109375-80.570313-8.539062 30.109376-8.023438 58.515626-23.804688 81.96875-47.253907 17.40625-17.410156 30.898438-37.710937 40.097657-60.339843 1.5625-3.835938-.285157-8.210938-4.121094-9.769532-3.839844-1.5625-8.214844.285156-9.773437 4.121094-8.441407 20.765625-20.824219 39.398438-36.8125 55.382812-32.609376 32.609376-75.65625 49.082032-118.78125 49.082032-39.515626-.003906-79.097657-13.832032-110.761719-41.75-.875-.769532-1.03125-1.707032-1.046875-2.195313-.015625-.574219.117187-1.410156.847656-2.144531l217.910156-217.90625c3.472656 16.503906 11.714844 31.726562 23.996094 43.886719 3.933594 3.894531 8.175781 7.371093 12.671875 10.410156l13.84375 7.617187c2.457031 1.074219 4.960937 2.03125 7.507813 2.875 4.074218 21.421876 3.972656 43.125-.320313 64.566407-.8125 4.0625 1.820313 8.015625 5.878906 8.828125.5.097656.996094.144531 1.484375.144531 3.5 0 6.628906-2.460937 7.34375-6.027344 4.25-21.210937 4.726563-42.65625 1.457032-63.894531 3.066406.402344 6.160156.65625 9.285156.730469.691406.015625 1.375.023437 2.0625.023437 8.933594 0 17.65625-1.355468 25.953125-3.9375 17.546875 25.972656 25.898437 57.335938 23.550781 88.851563-2.488281 33.421875-16.929688 64.898437-40.660156 88.628906-12.214844 12.214844-26.351563 21.949219-42.015625 28.929687-3.78125 1.6875-5.480469 6.121094-3.796875 9.902344 1.246094 2.792969 3.984375 4.449219 6.855468 4.449219 1.019532 0 2.058594-.207031 3.050782-.648437 17.34375-7.734376 32.996094-18.507813 46.511718-32.023438 26.273438-26.269531 42.257813-61.121094 45.011719-98.125 2.523438-33.839844-6.105469-67.527344-24.371093-95.773438 7.515624-3.914062 14.5-8.953124 20.738281-15.046874 13.367187-13.0625 21.957031-29.625 24.984375-47.664063 16.082031-1.1875 30.304687-11.734375 35.984375-26.996094 1.84375-4.957031 1.132812-10.527343-1.910157-14.902343zm-69.542968 78.835937c-13.988282 13.667969-32.488282 20.953125-52.0625 20.5-18.367188-.417969-35.75-7.847656-48.941406-20.910156-13.195313-13.066407-20.789063-30.375-21.386719-48.730469-.296875-9.089844 1.078125-18 4.082031-26.472656 2.621094-7.390625.101562-15.757813-6.128906-20.34375-8-5.890625-13.796875-14.386719-16.332032-23.917969-.332031-1.242187.179688-2.15625.515626-2.59375.328124-.425781 1.066406-1.140625 2.320312-1.140625h89.433594c.257812.035156.519531.058594.78125.070312 18.691406.671876 36.152344 8.460938 49.175781 21.925782 13.054687 13.5 20.246094 31.28125 20.246094 50.070312-.003907 19.5625-7.710938 37.867188-21.703125 51.542969zm57.394531-69.164063c-3.359375 9.023438-11.386719 15.46875-20.710937 16.992188-.042969-6.386719-.785157-12.671875-2.171876-18.773438h21.449219c.695313 0 1.089844.417969 1.265625.667969.378906.546875.21875.972657.167969 1.113281zm0 0"/><path d="m91.964844 315.480469-2.363282 1.804687-1.925781-1.488281c-3.273437-2.539063-7.984375-1.9375-10.523437 1.335937-2.535156 3.273438-1.9375 7.984376 1.339844 10.523438l6.484374 5.019531c1.351563 1.046875 2.96875 1.570313 4.589844 1.570313 1.601563 0 3.207032-.511719 4.546875-1.539063l6.949219-5.296875c3.292969-2.511718 3.925781-7.21875 1.414062-10.511718-2.511718-3.296876-7.214843-3.929688-10.511718-1.417969zm0 0"/><path d="m140.359375 315.480469-2.363281 1.804687-1.925782-1.488281c-3.273437-2.539063-7.988281-1.9375-10.523437 1.335937-2.535156 3.273438-1.9375 7.984376 1.339844 10.523438l6.480469 5.019531c1.351562 1.046875 2.972656 1.570313 4.59375 1.570313 1.601562 0 3.203124-.511719 4.546874-1.539063l6.949219-5.296875c3.292969-2.511718 3.925781-7.21875 1.414063-10.511718-2.511719-3.296876-7.21875-3.929688-10.511719-1.417969zm0 0"/><path d="m150.871094 274.1875c-2.511719-3.292969-7.21875-3.925781-10.511719-1.414062l-2.363281 1.804687-1.925782-1.492187c-3.277343-2.535157-7.984374-1.9375-10.523437 1.335937-2.535156 3.277344-1.9375 7.988281 1.339844 10.523437l6.480469 5.019532c1.351562 1.046875 2.972656 1.570312 4.59375 1.570312 1.601562 0 3.203124-.511718 4.546874-1.535156l6.949219-5.300781c3.292969-2.511719 3.925781-7.21875 1.414063-10.511719zm0 0"/><path d="m188.753906 315.480469-2.363281 1.804687-1.925781-1.488281c-3.273438-2.539063-7.984375-1.9375-10.523438 1.335937-2.535156 3.273438-1.9375 7.984376 1.339844 10.523438l6.484375 5.019531c1.347656 1.046875 2.96875 1.570313 4.589844 1.570313 1.601562 0 3.207031-.511719 4.546875-1.539063l6.949218-5.296875c3.292969-2.511718 3.925782-7.21875 1.414063-10.511718-2.511719-3.296876-7.21875-3.929688-10.511719-1.417969zm0 0"/><path d="m199.269531 271.539062c-2.515625-3.292968-7.21875-3.925781-10.515625-1.414062l-2.363281 1.804688-1.925781-1.492188c-3.273438-2.535156-7.984375-1.9375-10.519532 1.335938-2.539062 3.277343-1.941406 7.988281 1.335938 10.523437l6.484375 5.019531c1.351563 1.046875 2.96875 1.570313 4.589844 1.570313 1.601562 0 3.207031-.511719 4.546875-1.535157l6.949218-5.300781c3.292969-2.511719 3.929688-7.21875 1.417969-10.511719zm0 0"/><path d="m374.21875 69.726562h-.113281c-4.171875-.066406-7.53125 3.292969-7.566407 7.433594-.035156 4.144532 3.292969 7.53125 7.4375 7.566406h.113282.066406c4.113281 0 7.460938-3.316406 7.496094-7.4375.035156-4.140624-3.292969-7.527343-7.433594-7.5625zm0 0"/></g></svg>