<svg height="512pt" viewBox="-30 0 512 512" width="512pt" xmlns="http://www.w3.org/2000/svg"><path d="m444.121094 39.621094v335.089844c0 17.738281-14.378906 32.128906-32.121094 32.128906h-372.378906c-17.738282 0-32.121094-14.390625-32.121094-32.128906v-335.089844c0-17.742188 14.382812-32.121094 32.121094-32.121094h372.378906c17.742188 0 32.121094 14.378906 32.121094 32.121094zm0 0" fill="#ffc843"/><path d="m444.121094 39.621094v335.089844c0 17.738281-14.378906 32.128906-32.121094 32.128906h-17.167969c17.738281 0 32.117188-14.390625 32.117188-32.128906v-335.089844c0-17.742188-14.378907-32.121094-32.117188-32.121094h17.167969c17.742188 0 32.121094 14.378906 32.121094 32.121094zm0 0" fill="#eaa62f"/><path d="m410.808594 319.503906c0 102.179688-82.828125 184.996094-184.996094 184.996094-62.019531 0-116.902344-30.511719-150.464844-77.347656-21.742187-30.324219-34.535156-67.488282-34.535156-107.648438 0-25.410156 5.121094-53.464844 14.390625-81.28125 2.152344-6.449218 10.011719-8.757812 15.386719-4.582031 20.09375 15.625 45.347656 24.914063 72.765625 24.914063 65.570312 0 118.730469-53.152344 118.730469-118.734376 0-16.863281-3.523438-32.90625-9.867188-47.441406-3.414062-7.832031 4.160156-16.03125 12.207031-13.15625 76.652344 27.46875 135.753907 131.710938 145.089844 217.386719.851563 7.8125 1.292969 15.464844 1.292969 22.894531zm0 0" fill="#fff"/><path d="m410.808594 319.503906c0 102.179688-82.828125 184.996094-184.996094 184.996094-3.9375 0-7.851562-.128906-11.726562-.363281 96.6875-6.066407 173.230468-86.410157 173.230468-184.632813 0-7.429687-.441406-15.085937-1.292968-22.894531-8.867188-81.320313-62.566407-179.378906-133.550782-212.621094 2.105469-4.050781 6.929688-6.558593 11.953125-4.765625 76.648438 27.464844 135.753907 131.710938 145.089844 217.386719.851563 7.8125 1.292969 15.464844 1.292969 22.894531zm0 0" fill="#d9dfe9"/><path d="m410.808594 319.503906c0 102.179688-82.828125 184.996094-184.996094 184.996094-3.9375 0-7.839844-.128906-11.707031-.363281-.011719 0-.011719 0-.019531 0-57.175782-3.582031-107.308594-33.121094-138.738282-76.984375 60.558594-66.292969 162.914063-141.859375 310.421875-132.714844 7.78125.488281 15.699219 1.203125 23.746094 2.171875.851563 7.8125 1.292969 15.464844 1.292969 22.894531zm0 0" fill="#76ffd9"/><path d="m410.808594 319.503906c0 102.179688-82.828125 184.996094-184.996094 184.996094-3.9375 0-7.839844-.128906-11.707031-.363281 96.675781-6.078125 173.210937-86.417969 173.210937-184.632813 0-7.429687-.441406-15.085937-1.292968-22.894531-.078126-.726563-.15625-1.449219-.253907-2.175781 7.78125.492187 15.699219 1.207031 23.746094 2.175781.851563 7.8125 1.292969 15.464844 1.292969 22.894531zm0 0" fill="#5de0bf"/><g fill="#474d54"><path d="m444.121094 143.828125c-4.140625 0-7.5 3.359375-7.5 7.5v223.382813c0 13.578124-11.046875 24.625-24.621094 24.625h-11.042969c11.136719-24.332032 17.351563-51.371094 17.351563-79.832032 0-45.710937-15.613282-98.929687-42.832032-146.003906-29.375-50.800781-67.914062-86.785156-108.515624-101.335938-6.566407-2.351562-13.609376-.644531-18.382813 4.460938-4.800781 5.136719-6.035156 12.320312-3.226563 18.757812 6.128907 14.039063 9.234376 28.992188 9.234376 44.4375 0 61.332032-49.898438 111.230469-111.230469 111.230469-24.957031 0-48.53125-8.070312-68.167969-23.335937-4.460938-3.46875-10.34375-4.566406-15.734375-2.933594-5.347656 1.621094-9.597656 5.757812-11.363281 11.066406-9.667969 29.007813-14.773438 57.933594-14.773438 83.65625 0 28.027344 6 55.140625 17.246094 79.832032h-10.9375c-13.578125 0-24.625-11.046876-24.625-24.625v-335.089844c0-13.574219 11.046875-24.621094 24.625-24.621094h277.855469c4.144531 0 7.5-3.359375 7.5-7.5s-3.355469-7.5-7.5-7.5h-277.855469c-21.851562 0-39.625 17.773438-39.625 39.621094v335.09375c0 21.847656 17.773438 39.621094 39.621094 39.621094h18.59375c11.976562 21.121093 28.019531 40.0625 47.636718 55.714843 3.238282 2.582031 7.957032 2.050781 10.539063-1.1875 2.585937-3.238281 2.054687-7.957031-1.183594-10.539062-11.394531-9.089844-21.472656-19.390625-30.140625-30.625l-8.820312-12.515625c-18.078125-28.183594-27.933594-61.179688-27.933594-95.679688 0-24.128906 4.84375-51.417968 14.003906-78.914062.308594-.917969.980469-1.296875 1.484375-1.449219.441407-.136719 1.3125-.257813 2.179688.417969 22.296875 17.332031 49.050781 26.492187 77.375 26.492187 69.605469 0 126.230469-56.625 126.230469-126.230469 0-17.523437-3.527344-34.492187-10.488282-50.4375-.527344-1.214843.046875-2.097656.4375-2.515624.457032-.484376 1.234375-.984376 2.363282-.582032 37.269531 13.355469 72.992187 46.992188 100.589843 94.722656 19.539063 33.792969 33.046875 72 38.332031 107.121094l1.796876 15.257813c.457031 5.492187.691406 10.875.691406 16.117187 0 97.871094-79.625 177.496094-177.496094 177.496094-29.273438 0-58.285156-7.28125-83.910156-21.054688-3.648438-1.960937-8.195313-.589843-10.15625 3.058594-1.960938 3.648438-.59375 8.195313 3.054687 10.15625 27.800781 14.941406 59.269531 22.839844 91.011719 22.839844 71.683594 0 134.335938-39.394531 167.464844-97.664062h18.71875c21.851562 0 39.625-17.777344 39.625-39.625v-223.382813c0-4.140625-3.355469-7.5-7.5-7.5zm0 0"/><path d="m412 0h-61.859375c-4.144531 0-7.5 3.359375-7.5 7.5s3.355469 7.5 7.5 7.5h61.855469c13.578125 0 24.625 11.046875 24.625 24.621094v79.050781c0 4.140625 3.355468 7.5 7.5 7.5 4.144531 0 7.5-3.359375 7.5-7.5v-79.050781c0-21.847656-17.773438-39.621094-39.621094-39.621094zm0 0"/><path d="m213.789062 443.632812c1.355469 1.046876 2.972657 1.570313 4.59375 1.570313 1.601563 0 3.207032-.511719 4.550782-1.535156l6.800781-5.1875c3.292969-2.511719 3.925781-7.21875 1.414063-10.511719-2.511719-3.292969-7.21875-3.929688-10.511719-1.414062l-2.21875 1.6875-1.789063-1.382813c-3.273437-2.535156-7.984375-1.9375-10.519531 1.335937-2.539063 3.277344-1.9375 7.988282 1.335937 10.523438zm0 0"/><path d="m321.054688 233.914062-2.21875 1.691407-1.789063-1.386719c-3.273437-2.535156-7.984375-1.9375-10.519531 1.339844-2.535156 3.273437-1.9375 7.984375 1.335937 10.519531l6.347657 4.914063c1.351562 1.046874 2.972656 1.570312 4.59375 1.570312 1.601562 0 3.203124-.511719 4.546874-1.535156l6.800782-5.1875c3.292968-2.511719 3.925781-7.21875 1.414062-10.511719-2.511718-3.292969-7.21875-3.925781-10.511718-1.414063zm0 0"/><path d="m166.457031 421.121094c1.351563 1.046875 2.972657 1.570312 4.59375 1.570312 1.601563 0 3.203125-.511718 4.546875-1.539062l6.800782-5.1875c3.292968-2.511719 3.925781-7.21875 1.414062-10.511719s-7.21875-3.925781-10.511719-1.414063l-2.21875 1.691407-1.785156-1.382813c-3.277344-2.539062-7.988281-1.941406-10.523437 1.335938-2.535157 3.277344-1.9375 7.984375 1.339843 10.519531zm0 0"/></g><path d="m66.3125 70.429688h17.984375c4.144531 0 7.5-3.359376 7.5-7.5 0-4.144532-3.355469-7.5-7.5-7.5h-17.984375c-4.144531 0-7.5 3.355468-7.5 7.5 0 4.140624 3.355469 7.5 7.5 7.5zm0 0" fill="#fff"/><path d="m128.164062 83.21875h-61.851562c-4.144531 0-7.5 3.355469-7.5 7.5 0 4.140625 3.355469 7.5 7.5 7.5h61.851562c4.144532 0 7.5-3.359375 7.5-7.5 0-4.144531-3.355468-7.5-7.5-7.5zm0 0" fill="#fff"/><path d="m128.164062 104.304688h-61.851562c-4.144531 0-7.5 3.355468-7.5 7.5 0 4.140624 3.355469 7.5 7.5 7.5h61.851562c4.144532 0 7.5-3.359376 7.5-7.5 0-4.144532-3.355468-7.5-7.5-7.5zm0 0" fill="#fff"/></svg>