<svg height="512pt" viewBox="-43 0 512 512.0007" width="512pt" xmlns="http://www.w3.org/2000/svg"><path d="m401.335938 286.316406-18.289063 11.46875-15.390625 9.652344-170.660156 107.039062-15.429688 9.671876-119.261718 74.796874c-23.832032 14.949219-54.808594-2.183593-54.808594-30.316406v-425.257812c0-28.132813 30.976562-45.265625 54.808594-30.316406l76.371093 47.898437 55.066407 34.535156 174.953124 109.71875 15.066407 9.457031 17.574219 11.019532c22.359374 14.019531 22.359374 46.609375 0 60.632812zm0 0" fill="#fff"/><path d="m376.484375 254.773438c0 18.449218-3.113281 36.160156-8.828125 52.664062l-170.660156 107.039062c-79.96875-9.277343-142.050782-77.238281-142.050782-159.703124 0-81.335938 60.40625-148.574219 138.800782-159.285157 7.179687-.976562 14.519531-1.484375 21.96875-1.484375 71.492187 0 132.085937 46.671875 152.980468 111.203125 5.054688 15.609375 7.789063 32.273438 7.789063 49.566407zm0 0" fill="#ffc843"/><path d="m310.515625 203.257812c-6.128906 0-11.097656-4.96875-11.097656-11.101562v-51.65625c0-23.246094-18.914063-42.160156-42.160157-42.160156h-85.1875c-23.246093 0-42.160156 18.914062-42.160156 42.160156v51.65625c0 6.128906-4.96875 11.101562-11.097656 11.101562s-11.097656-4.96875-11.097656-11.101562v-51.65625c0-35.484375 28.867187-64.355469 64.355468-64.355469h85.1875c35.484376 0 64.355469 28.871094 64.355469 64.355469v51.65625c0 6.132812-4.96875 11.101562-11.097656 11.101562zm0 0" fill="#fff"/><path d="m154.042969 307.226562h-38.507813c-14.171875 0-25.660156-11.488281-25.660156-25.65625v-69.621093c0-14.167969 11.488281-25.65625 25.660156-25.65625h38.507813zm0 0" fill="#fff"/><path d="m158.140625 319.566406c-12.046875 0-21.8125-9.765625-21.8125-21.8125v-101.914062c0-12.046875 9.765625-21.8125 21.8125-21.8125s21.8125 9.765625 21.8125 21.8125v101.914062c0 12.046875-9.765625 21.8125-21.8125 21.8125zm0 0" fill="#76ffd9"/><path d="m275.285156 307.226562h38.507813c14.171875 0 25.660156-11.488281 25.660156-25.65625v-69.621093c0-14.167969-11.488281-25.65625-25.660156-25.65625h-38.507813zm0 0" fill="#fff"/><path d="m293 247.601562h46.453125v26.5625h-46.453125zm0 0" fill="#ffc843"/><path d="m271.1875 319.566406c12.046875 0 21.8125-9.765625 21.8125-21.8125v-101.914062c0-12.046875-9.765625-21.8125-21.8125-21.8125s-21.8125 9.765625-21.8125 21.8125v101.914062c0 12.046875 9.765625 21.8125 21.8125 21.8125zm0 0" fill="#76ffd9"/><path d="m287.414062 107.105469c-3.601562 4.445312-9.757812 5.78125-14.933593 3.34375-5.171875-2.4375-10.820313-3.699219-16.691407-3.699219h-82.25c-5.871093 0-11.519531 1.261719-16.691406 3.699219s-11.332031 1.101562-14.933594-3.34375l-10.304687-12.710938c-4.875-6.015625-3.0625-14.964843 3.742187-18.652343 11.667969-6.324219 24.828126-9.714844 38.191407-9.714844h82.246093c13.363282 0 26.523438 3.390625 38.191407 9.714844 6.804687 3.6875 8.617187 12.636718 3.742187 18.652343zm0 0" fill="#76ffd9"/><path d="m405.316406 219.328125-30.386718-19.058594c-9.246094-27.011719-25.316407-51.328125-46.648438-70.546875-2.320312-15.179687-9.492188-29.347656-20.511719-40.265625.316407-2.199219.265625-4.460937-.179687-6.699219-1.160156-5.816406-4.816406-10.777343-10.039063-13.609374-12.820312-6.945313-27.261719-10.617188-41.761719-10.617188h-82.25c-6.949218 0-13.882812.851562-20.632812 2.496094l-86.617188-54.324219c-13.539062-8.492187-29.972656-8.941406-43.957031-1.203125-13.984375 7.734375-22.332031 21.894531-22.332031 37.875v63.703125c0 4.140625 3.359375 7.5 7.5 7.5s7.5-3.359375 7.5-7.5v-63.703125c0-10.441406 5.457031-19.695312 14.59375-24.753906 9.140625-5.058594 19.878906-4.761719 28.726562.789062l76.679688 48.089844c-1.082031.527344-2.160156 1.074219-3.222656 1.648438-5.21875 2.832031-8.878906 7.792968-10.039063 13.609374-.445312 2.238282-.492187 4.5-.179687 6.703126-11.546875 11.433593-18.859375 26.449218-20.800782 42.453124-33.894531 31.734376-53.3125 76.417969-53.3125 122.859376 0 78.726562 54.25 145.910156 129.0625 163.695312l-118.1875 74.121094c-8.847656 5.550781-19.585937 5.84375-28.726562.789062-9.136719-5.058594-14.59375-14.3125-14.59375-24.753906v-264.152344c0-4.144531-3.359375-7.5-7.5-7.5s-7.5 3.355469-7.5 7.5v264.152344c0 15.980469 8.351562 30.140625 22.332031 37.878906 6.636719 3.671875 13.824219 5.496094 20.992188 5.496094 7.9375 0 15.851562-2.242188 22.964843-6.703125l184.125-115.476563c3.511719-2.199218 4.570313-6.828124 2.371094-10.335937-2.199218-3.507813-6.828125-4.570313-10.339844-2.367187l-47.164062 29.578124c-75.914062-10.097656-132.835938-74.949218-132.835938-151.921874 0-37.097657 13.601563-72.964844 37.769532-100.726563v28.511719c-10.589844 5.542968-17.835938 16.632812-17.835938 29.394531v69.617187c0 18.28125 14.871094 33.15625 33.15625 33.15625h18.730469c5.320313 7.460938 14.035156 12.339844 23.875 12.339844 16.164063 0 29.3125-13.148437 29.3125-29.3125v-101.914062c0-16.164063-13.148437-29.3125-29.3125-29.3125-8.089844 0-15.421875 3.296875-20.730469 8.613281v-34.640625c0-8.234375 2.859375-16.019531 8.113282-22.253906 4.652343 1.460937 9.828124 1.199218 14.519531-1.011719 4.207031-1.980469 8.746093-2.984375 13.496093-2.984375h82.25c4.75 0 9.292969 1.003906 13.496094 2.984375 2.757813 1.296875 5.679688 1.925781 8.566406 1.925781 2.019532 0 4.023438-.316406 5.9375-.914062 5.207032 6.210937 8.128907 14.085937 8.128907 22.257812v34.636719c-5.308594-5.316406-12.640625-8.613281-20.730469-8.613281-16.164062 0-29.3125 13.152344-29.3125 29.3125v101.914062c0 16.164063 13.148438 29.3125 29.3125 29.3125 9.839844 0 18.558594-4.878906 23.875-12.339844h18.730469c18.285156 0 33.160156-14.875 33.160156-33.15625v-69.617187c0-12.761719-7.25-23.851563-17.839844-29.394531v-30.875c14.640625 16.09375 25.746094 35.128906 32.449219 55.835937 4.925781 15.207031 7.421875 31.101563 7.421875 47.253907 0 16.320312-2.554687 32.363281-7.582031 47.738281l-90.644532 56.847656c-8.144531 5.105469-.273437 17.878906 7.96875 12.707031l126.589844-79.394531c12.703125-7.964844 20.289063-21.675781 20.289063-36.671875s-7.585938-28.707031-20.289063-36.671875zm-276.414062 80.398437h-13.367188c-10.015625 0-18.160156-8.144531-18.160156-18.15625v-69.617187c0-10.015625 8.144531-18.160156 18.160156-18.160156h13.371094c-.046875.679687-.078125 1.359375-.078125 2.046875v101.914062c0 .664063.03125 1.320313.074219 1.972656zm-6.492188-159.226562v38.292969h-6.875c-.105468 0-.214844.007812-.320312.007812v-38.300781c0-13.703125 5.023437-26.929688 13.941406-37.222656l4.59375 5.664062c-7.34375 8.875-11.339844 19.902344-11.339844 31.558594zm21.417969 55.339844c0-7.894532 6.421875-14.3125 14.3125-14.3125 7.894531 0 14.316406 6.421875 14.316406 14.3125v101.914062c0 7.890625-6.421875 14.3125-14.316406 14.3125s-14.3125-6.421875-14.3125-14.3125zm141.671875 101.914062c0 7.890625-6.421875 14.3125-14.3125 14.3125s-14.3125-6.421875-14.3125-14.3125v-101.914062c0-7.894532 6.421875-14.3125 14.3125-14.3125s14.3125 6.421875 14.3125 14.3125zm6.394531-208.082031-10.304687 12.710937c-1.402344 1.734376-3.832032 2.261719-5.914063 1.28125-6.21875-2.929687-12.910156-4.414062-19.886719-4.414062h-82.25c-6.976562 0-13.667968 1.484375-19.886718 4.414062-2.078125.976563-4.507813.453126-5.914063-1.28125l-10.304687-12.710937c-1.242188-1.535156-1.148438-3.15625-.984375-3.984375.167969-.84375.710937-2.398438 2.476562-3.351562 10.628907-5.761719 22.601563-8.808594 34.613281-8.808594h82.25c12.015626 0 23.984376 3.046875 34.613282 8.808594 1.765625.953124 2.308594 2.507812 2.476562 3.351562.167969.828125.257813 2.453125-.984375 3.984375zm8.277344 13.605469c8.917969 10.292968 13.941406 23.519531 13.941406 37.222656v38.300781c-.105469 0-.210937-.007812-.320312-.007812h-6.875v-38.292969c0-11.558594-4.070313-22.710938-11.347657-31.546875zm31.78125 108.671875-.003906 69.710937c-.054688 9.96875-8.175781 18.066406-18.15625 18.066406h-13.367188c.042969-.652343.074219-1.308593.074219-1.976562v-101.910156c0-.6875-.03125-1.371094-.082031-2.046875h13.375c10.011719 0 18.160156 8.144531 18.160156 18.15625zm65.394531 68.019531-17.238281 10.808594c2.570313-11.773438 3.871094-23.820313 3.871094-36.003906 0-11.207032-1.097657-22.308594-3.273438-33.175782l16.640625 10.433594c8.300782 5.207031 13.257813 14.167969 13.257813 23.96875s-4.957031 18.757812-13.257813 23.96875zm0 0" fill="#474d54"/><path d="m7.5 179.398438c4.140625 0 7.5-3.355469 7.5-7.496094v-32.253906c0-4.140626-3.359375-7.5-7.5-7.5s-7.5 3.359374-7.5 7.5v32.253906c0 4.140625 3.359375 7.496094 7.5 7.496094zm0 0" fill="#474d54"/><g fill="#ffc843"><path d="m113.300781 261.136719h-.136719c-.019531 0-.035156 0-.054687 0-4.117187 0-7.46875 3.320312-7.496094 7.445312-.03125 4.140625 3.300781 7.519531 7.445313 7.550781l.132812.003907h.054688c4.117187 0 7.46875-3.324219 7.5-7.445313.027344-4.144531-3.304688-7.523437-7.445313-7.554687zm0 0"/><path d="m113.300781 242.0625h-.136719c-.019531 0-.035156 0-.054687 0-4.117187 0-7.46875 3.324219-7.496094 7.445312-.03125 4.140626 3.300781 7.523438 7.445313 7.554688h.132812.054688c4.117187 0 7.46875-3.320312 7.5-7.445312.027344-4.140626-3.304688-7.523438-7.445313-7.554688zm0 0"/></g></svg>