<svg height="512pt" viewBox="0 -44 512 512" width="512pt" xmlns="http://www.w3.org/2000/svg"><g fill="#fff"><path d="m161 102.75v13h-79v-13c0-5.523438 4.476562-10 10-10h59c5.523438 0 10 4.476562 10 10zm0 0"/><path d="m252 406.75v-13h-39v13c0 5.523438 4.476562 10 10 10h19c5.523438 0 10-4.476562 10-10zm0 0"/><path d="m181 406.75v-13h-99v13c0 5.523438 4.476562 10 10 10h79c5.523438 0 10-4.476562 10-10zm0 0"/><path d="m314 406.75v-13h-39v13c0 5.523438 4.476562 10 10 10h19c5.523438 0 10-4.476562 10-10zm0 0"/></g><path d="m504.5 133.167969v243.160156c0 11.050781-8.949219 20-20 20h-457c-11.050781 0-20-8.949219-20-20v-243.160156c0-11.050781 8.949219-20 20-20h457c11.050781 0 20 8.949219 20 20zm0 0" fill="#ffc843"/><path d="m504.5 133.167969v243.160156c0 11.050781-8.949219 20-20 20h-17.5c11.050781 0 20-8.949219 20-20v-243.160156c0-11.050781-8.949219-20-20-20h17.5c11.050781 0 20 8.949219 20 20zm0 0" fill="#eaa62f"/><path d="m58 113.167969h396v283.160156h-396zm0 0" fill="#fff"/><path d="m402.289062 27.5v224.789062c0 2.050782-.628906 4.039063-1.800781 5.722657l-32.140625 46.089843c-3.980468 5.707032-12.429687 5.707032-16.410156 0l-32.136719-46.089843c-1.171875-1.683594-1.800781-3.671875-1.800781-5.722657v-224.789062c0-11.050781 8.949219-20 20-20h44.289062c11.050782 0 20 8.949219 20 20zm0 0" fill="#fff"/><path d="m402.292969 27.5v224.789062c0 2.050782-.628907 4.039063-1.800781 5.722657l-32.140626 46.089843c-3.980468 5.707032-12.429687 5.707032-16.410156 0l-1.289062-1.863281 30.839844-44.226562c1.171874-1.683594 1.800781-3.671875 1.800781-5.722657v-224.789062c0-11.050781-8.949219-20-20-20h19c11.050781 0 20 8.949219 20 20zm0 0" fill="#76ffd9"/><path d="m402.292969 27.5v29.128906h-84.289063v-29.128906c0-11.050781 8.949219-20 20-20h44.289063c11.050781 0 20 8.949219 20 20zm0 0" fill="#ffc843"/><path d="m402.292969 27.5v29.128906h-19v-29.128906c0-11.050781-8.949219-20-20-20h19c11.050781 0 20 8.949219 20 20zm0 0" fill="#eaa62f"/><path d="m318.003906 51.140625h84.289063v30.371094h-84.289063zm0 0" fill="#fff"/><path d="m402.292969 243.601562v8.6875c0 2.050782-.628907 4.039063-1.800781 5.722657l-32.140626 46.089843c-3.980468 5.707032-12.429687 5.707032-16.410156 0l-1.289062-1.863281-30.847656-44.226562c-1.171876-1.683594-1.800782-3.671875-1.800782-5.722657v-8.6875zm0 0" fill="#fff"/><path d="m239.003906 260.082031h-96.667968c-5.523438 0-10-4.476562-10-10v-96.667969c0-5.519531 4.476562-10 10-10h96.667968c5.519532 0 10 4.480469 10 10v96.667969c0 5.523438-4.480468 10-10 10zm0 0" fill="#76ffd9"/><path d="m349.671875 388.832031h-322.171875c-6.894531 0-12.5-5.609375-12.5-12.5v-243.164062c0-6.894531 5.605469-12.5 12.5-12.5h210.171875c4.140625 0 7.5-3.355469 7.5-7.5s-3.359375-7.5-7.5-7.5h-69.171875v-2.917969c0-9.648438-7.851562-17.5-17.5-17.5h-59c-9.648438 0-17.5 7.851562-17.5 17.5v2.917969h-47c-15.164062 0-27.5 12.335937-27.5 27.5v243.164062c0 15.160157 12.335938 27.5 27.5 27.5h47v2.917969c0 9.648438 7.851562 17.5 17.5 17.5h79c9.648438 0 17.5-7.851562 17.5-17.5v-2.917969h17v2.917969c0 9.648438 7.851562 17.5 17.5 17.5h19c9.648438 0 17.5-7.851562 17.5-17.5v-2.917969h8v2.917969c0 9.648438 7.851562 17.5 17.5 17.5h19c9.648438 0 17.5-7.851562 17.5-17.5v-2.917969h28.171875c4.140625 0 7.5-3.359375 7.5-7.5 0-4.144531-3.359375-7.5-7.5-7.5zm-260.171875-286.082031c0-1.378906 1.121094-2.5 2.5-2.5h59c1.378906 0 2.5 1.121094 2.5 2.5v2.917969h-64zm84 304c0 1.378906-1.121094 2.5-2.5 2.5h-79c-1.378906 0-2.5-1.121094-2.5-2.5v-2.917969h84zm71 0c0 1.378906-1.121094 2.5-2.5 2.5h-19c-1.378906 0-2.5-1.121094-2.5-2.5v-2.917969h24zm62 0c0 1.378906-1.121094 2.5-2.5 2.5h-19c-1.378906 0-2.5-1.121094-2.5-2.5v-2.917969h24zm0 0" fill="#474d54"/><path d="m484.5 105.667969h-74.710938v-78.167969c0-15.164062-12.335937-27.5-27.5-27.5h-44.289062c-15.164062 0-27.5 12.335938-27.5 27.5v78.167969h-40.171875c-4.140625 0-7.5 3.355469-7.5 7.5s3.359375 7.5 7.5 7.5h40.171875v131.621093c0 3.59375 1.085938 7.050782 3.144531 10.011719l32.140625 46.089844c3.273438 4.691406 8.640625 7.492187 14.359375 7.492187s11.085938-2.800781 14.355469-7.492187l32.144531-46.09375c2.058594-2.957031 3.144531-6.414063 3.144531-10.007813v-71.835937c0-4.140625-3.355468-7.5-7.5-7.5-4.144531 0-7.5 3.359375-7.5 7.5v55.648437h-27.144531v-147.089843h27.144531v58.785156c0 4.140625 3.355469 7.5 7.5 7.5 4.144532 0 7.5-3.359375 7.5-7.5v-27.128906h74.710938c6.894531 0 12.5 5.605469 12.5 12.5v243.164062c0 6.890625-5.605469 12.5-12.5 12.5h-102.171875c-4.140625 0-7.5 3.355469-7.5 7.5 0 4.140625 3.359375 7.5 7.5 7.5h102.171875c15.164062 0 27.5-12.339843 27.5-27.5v-243.164062c0-15.164063-12.335938-27.5-27.5-27.5zm-159-16.65625h27.144531v147.089843h-27.144531zm69.289062 162.089843v1.1875c0 .511719-.15625 1.007813-.453124 1.433594l-32.140626 46.089844c-.648437.933594-1.5625 1.070312-2.050781 1.070312s-1.402343-.140624-2.054687-1.070312l-32.136719-46.085938c-.296875-.429687-.457031-.925781-.457031-1.4375v-1.1875zm0-177.089843h-69.289062v-46.511719c0-6.894531 5.605469-12.5 12.5-12.5h44.289062c6.894532 0 12.5 5.605469 12.5 12.5zm0 0" fill="#474d54"/><path d="m34.332031 227.667969c-4.140625 0-7.5 3.355469-7.5 7.5v39.164062c0 4.140625 3.359375 7.5 7.5 7.5 4.144531 0 7.5-3.359375 7.5-7.5v-39.164062c0-4.144531-3.355469-7.5-7.5-7.5zm0 0" fill="#fff"/><path d="m206.1875 197.203125c2.488281-3.570313 3.953125-7.902344 3.953125-12.574219 0-12.15625-9.890625-22.046875-22.046875-22.046875h-14.546875c-4.140625 0-7.5 3.359375-7.5 7.5v63.332031c0 4.144532 3.359375 7.5 7.5 7.5h17.121094c13.574219 0 24.617187-11.042968 24.617187-24.617187.003906-7.695313-3.546875-14.574219-9.097656-19.09375zm-25.136719-19.621094h7.042969c3.886719 0 7.046875 3.160157 7.046875 7.046875 0 3.886719-3.160156 7.046875-7.046875 7.046875h-7.042969zm9.617188 48.332031h-9.617188v-19.238281h9.617188c5.304687 0 9.621093 4.316407 9.621093 9.621094s-4.316406 9.617187-9.621093 9.617187zm0 0" fill="#fff"/><path d="m306.386719 285.914062h-187.847657c-4.140624 0-7.5 3.359376-7.5 7.5 0 4.144532 3.359376 7.5 7.5 7.5h187.847657c4.144531 0 7.5-3.355468 7.5-7.5 0-4.140624-3.359375-7.5-7.5-7.5zm0 0" fill="#c2c7d0"/><path d="m323.3125 308.882812h-204.773438c-4.140624 0-7.5 3.355469-7.5 7.5 0 4.144532 3.359376 7.5 7.5 7.5h204.773438c4.144531 0 7.5-3.355468 7.5-7.5 0-4.144531-3.355469-7.5-7.5-7.5zm0 0" fill="#c2c7d0"/><path d="m392.792969 331.851562h-274.253907c-4.140624 0-7.5 3.355469-7.5 7.5 0 4.140626 3.359376 7.5 7.5 7.5h274.253907c4.144531 0 7.5-3.359374 7.5-7.5 0-4.144531-3.355469-7.5-7.5-7.5zm0 0" fill="#c2c7d0"/><path d="m392.792969 354.816406h-274.253907c-4.140624 0-7.5 3.355469-7.5 7.5 0 4.144532 3.359376 7.5 7.5 7.5h274.253907c4.144531 0 7.5-3.355468 7.5-7.5 0-4.144531-3.355469-7.5-7.5-7.5zm0 0" fill="#c2c7d0"/></svg>