<svg height="512pt" viewBox="-14 0 512 512" width="512pt" xmlns="http://www.w3.org/2000/svg"><g fill="#fff"><path d="m321.5 161h-13v-79h13c5.523438 0 10 4.476562 10 10v59c0 5.523438-4.476562 10-10 10zm0 0"/><path d="m17.5 252h13v-39h-13c-5.523438 0-10 4.476562-10 10v19c0 5.523438 4.476562 10 10 10zm0 0"/><path d="m17.5 181h13v-99h-13c-5.523438 0-10 4.476562-10 10v79c0 5.523438 4.476562 10 10 10zm0 0"/><path d="m17.5 314h13v-39h-13c-5.523438 0-10 4.476562-10 10v19c0 5.523438 4.476562 10 10 10zm0 0"/></g><path d="m27.917969 484.5v-457c0-11.046875 8.953125-20 20-20h243.164062c11.046875 0 20 8.953125 20 20v457c0 11.046875-8.953125 20-20 20h-243.164062c-11.046875 0-20-8.953125-20-20zm0 0" fill="#ffc843"/><path d="m311.078125 27.5v457c0 11.050781-8.949219 20-20 20h-19.578125c11.050781 0 20-8.949219 20-20v-457c0-11.050781-8.949219-20-20-20h19.578125c11.050781 0 20 8.949219 20 20zm0 0" fill="#eaa62f"/><path d="m27.917969 58h283.164062v396h-283.164062zm0 0" fill="#fff"/><path d="m291.5 58h19.582031v396h-19.582031zm0 0" fill="#d9dfe9"/><path d="m475.769531 84.296875c0 7.257813-1.292969 14.214844-3.664062 20.660156-8.414063 22.910157-30.429688 39.261719-56.257813 39.261719s-47.839844-16.351562-56.253906-39.261719c-2.371094-6.445312-3.664062-13.402343-3.664062-20.660156 0-33.101563 26.832031-59.921875 59.917968-59.921875 33.089844 0 59.921875 26.820312 59.921875 59.921875zm0 0" fill="#76ffd9"/><path d="m472.101562 104.960938c-8.414062 22.90625-30.421874 39.257812-56.253906 39.257812-25.828125 0-47.835937-16.351562-56.25-39.257812 4.945313-13.492188 14.605469-24.695313 26.980469-31.640626 8.652344-4.855468 18.640625-7.625 29.273437-7.625 10.628907 0 20.617188 2.769532 29.269532 7.625 12.371094 6.945313 22.03125 18.148438 26.980468 31.640626zm0 0" fill="#ffc843"/><path d="m448.910156 40.558594c0 18.261718-14.800781 33.0625-33.0625 33.0625-18.257812 0-33.058594-14.800782-33.058594-33.0625 0-18.257813 14.800782-33.058594 33.058594-33.058594 18.261719 0 33.0625 14.800781 33.0625 33.058594zm0 0" fill="#fff"/><path d="m475.769531 264.4375c0 7.257812-1.292969 14.214844-3.664062 20.660156-8.414063 22.910156-30.429688 39.257813-56.257813 39.257813s-47.839844-16.347657-56.253906-39.257813c-2.371094-6.445312-3.664062-13.402344-3.664062-20.660156 0-33.101562 26.832031-59.921875 59.917968-59.921875 33.089844 0 59.921875 26.820313 59.921875 59.921875zm0 0" fill="#76ffd9"/><path d="m472.101562 285.101562c-8.414062 22.90625-30.421874 39.257813-56.253906 39.257813-25.828125 0-47.835937-16.351563-56.25-39.257813 4.945313-13.492187 14.605469-24.695312 26.980469-31.640624 8.652344-4.855469 18.640625-7.625 29.273437-7.625 10.628907 0 20.617188 2.769531 29.269532 7.625 12.371094 6.945312 22.03125 18.148437 26.980468 31.640624zm0 0" fill="#ffc843"/><path d="m448.910156 220.699219c0 18.261719-14.800781 33.0625-33.0625 33.0625-18.257812 0-33.058594-14.800781-33.058594-33.0625 0-18.257813 14.800782-33.058594 33.058594-33.058594 18.261719 0 33.0625 14.800781 33.0625 33.058594zm0 0" fill="#fff"/><path d="m475.769531 444.578125c0 7.257813-1.292969 14.214844-3.664062 20.660156-8.414063 22.910157-30.429688 39.257813-56.257813 39.257813s-47.839844-16.347656-56.253906-39.257813c-2.371094-6.445312-3.664062-13.402343-3.664062-20.660156 0-33.101563 26.832031-59.921875 59.917968-59.921875 33.089844 0 59.921875 26.820312 59.921875 59.921875zm0 0" fill="#76ffd9"/><path d="m472.101562 465.242188c-8.414062 22.90625-30.421874 39.257812-56.253906 39.257812-25.828125 0-47.835937-16.351562-56.25-39.257812 4.945313-13.488282 14.605469-24.695313 26.980469-31.640626 8.652344-4.855468 18.640625-7.625 29.273437-7.625 10.628907 0 20.617188 2.769532 29.269532 7.625 12.371094 6.945313 22.03125 18.148438 26.980468 31.640626zm0 0" fill="#ffc843"/><path d="m448.910156 400.839844c0 18.257812-14.800781 33.0625-33.0625 33.0625-18.257812 0-33.058594-14.804688-33.058594-33.0625 0-18.257813 14.800782-33.058594 33.058594-33.058594 18.261719 0 33.0625 14.800781 33.0625 33.058594zm0 0" fill="#fff"/><path d="m189.082031 41.832031c4.140625 0 7.5-3.355469 7.5-7.5 0-4.140625-3.359375-7.5-7.5-7.5h-39.164062c-4.140625 0-7.5 3.359375-7.5 7.5 0 4.144531 3.359375 7.5 7.5 7.5zm0 0" fill="#fff"/><path d="m454.792969 29.25c-4.910157-16.878906-20.503907-29.25-38.945313-29.25s-34.039062 12.378906-38.945312 29.257812c-17.855469 12.652344-28.472656 33.109376-28.472656 55.035157 0 7.066406 1.097656 13.878906 3.121093 20.285156l-12.550781 7.53125v-20.109375c0-9.648438-7.851562-17.5-17.5-17.5h-2.917969v-47c0-15.164062-12.335937-27.5-27.5-27.5h-184.992187c-4.140625 0-7.5 3.359375-7.5 7.5s3.359375 7.5 7.5 7.5h184.992187c6.890625 0 12.5 5.605469 12.5 12.5v105.863281l-96.695312 58.011719 1.242187 7.109375 9.132813 4.140625 86.320312-51.769531v41.027343c0 4.140626 3.355469 7.5 7.5 7.5 4.140625 0 7.5-3.359374 7.5-7.5v-23.382812h2.917969c9.648438 0 17.5-7.851562 17.5-17.5v-21.398438l18.710938-11.226562c11.726562 19.925781 33.390624 33.339844 58.136718 33.339844 28.8125 0 53.449219-18.171875 63.082032-43.652344.117187-.261719.21875-.53125.308593-.804688 2.605469-7.171874 4.03125-14.90625 4.03125-22.964843 0-21.96875-10.605469-42.386719-28.476562-55.042969zm-130.792969 121.75c0 1.378906-1.121094 2.5-2.5 2.5h-2.917969v-11.644531l5.417969-3.25zm0-29.890625-5.417969 3.253906v-34.863281h2.917969c1.378906 0 2.5 1.121094 2.5 2.5zm91.847656-106.109375c14.09375 0 25.5625 11.464844 25.5625 25.558594s-11.46875 25.5625-25.5625 25.5625-25.558594-11.46875-25.558594-25.5625 11.464844-25.558594 25.558594-25.558594zm-39.480468 34.824219c1.414062 6.023437 4.167968 11.535156 7.9375 16.195312-8.082032 4.261719-15.152344 10.078125-20.839844 17.109375.273437-12.410156 4.910156-24.148437 12.902344-33.304687zm39.480468 86.890625c-21.574218 0-40.144531-13.105469-48.175781-31.773438 5.582031-12.953125 16.417969-23.328125 29.609375-28.339844 5.566406 2.878907 11.878906 4.519532 18.566406 4.519532s13-1.640625 18.566406-4.519532c13.191407 5.011719 24.027344 15.386719 29.609376 28.339844-8.03125 18.667969-26.597657 31.773438-48.175782 31.773438zm31.542969-70.695313c3.769531-4.660156 6.523437-10.171875 7.9375-16.195312 7.996094 9.152343 12.632813 20.871093 12.90625 33.304687-5.6875-7.03125-12.757813-12.847656-20.84375-17.109375zm0 0" fill="#474d54"/><path d="m454.792969 389.53125c-4.910157-16.875-20.503907-29.25-38.945313-29.25s-34.039062 12.378906-38.945312 29.257812c-3.871094 2.742188-7.398438 5.855469-10.554688 9.265626l-47.765625-28.660157v-106.644531h29.859375c-.003906.3125-.011718.621094-.011718.933594 0 8.054687 1.421874 15.78125 4.023437 22.949218.097656.296876.203125.585938.332031.867188 9.648438 25.453125 34.269532 43.605469 63.0625 43.605469 28.8125 0 53.449219-18.171875 63.082032-43.652344.121093-.261719.21875-.53125.308593-.804687 2.605469-7.171876 4.03125-14.90625 4.03125-22.964844 0-22.03125-10.589843-42.378906-28.472656-55.03125-4.90625-16.882813-20.503906-29.261719-38.949219-29.261719-18.441406 0-34.039062 12.378906-38.945312 29.257813-13.429688 9.519531-22.761719 23.449218-26.5625 39.101562h-31.757813v-23.957031c0-4.140625-3.359375-7.5-7.5-7.5s-7.5 3.359375-7.5 7.5v23.957031h-61.082031c-.015625 0-.03125.003906-.046875.003906l-7.359375 7.570313 7.636719 7.425781h60.851562v97.644531l-83.714843-50.234375-10.773438 1.589844-2.132812 8.15625 96.621093 57.980469v105.863281c0 6.894531-5.605469 12.5-12.5 12.5h-243.164062c-6.894531 0-12.5-5.605469-12.5-12.5v-457c0-6.894531 5.605469-12.5 12.5-12.5h25.511719c4.140624 0 7.5-3.359375 7.5-7.5s-3.359376-7.5-7.5-7.5h-25.511719c-15.164063 0-27.5 12.335938-27.5 27.5v47h-2.917969c-9.648438 0-17.5 7.851562-17.5 17.5v79c0 9.648438 7.851562 17.5 17.5 17.5h2.917969v17h-2.917969c-9.648438 0-17.5 7.851562-17.5 17.5v19c0 9.648438 7.851562 17.5 17.5 17.5h2.917969v8h-2.917969c-9.648438 0-17.5 7.851562-17.5 17.5v19c0 9.648438 7.851562 17.5 17.5 17.5h2.917969v163c0 15.164062 12.335937 27.5 27.5 27.5h243.164062c15.164063 0 27.5-12.335938 27.5-27.5v-96.863281l38.828125 23.300781c-5.800781 10.082031-8.980468 21.640625-8.980468 33.636719 0 8.054687 1.421874 15.78125 4.023437 22.949219.097656.296874.203125.585937.332031.871093 9.648438 25.453125 34.269532 43.601563 63.066406 43.601563 28.800782 0 53.429688-18.160156 63.070313-43.625.125-.269532.226563-.550782.320313-.835938 2.605468-7.167968 4.03125-14.898437 4.03125-22.960937-.003907-21.96875-10.609376-42.390625-28.480469-55.042969zm.535156-159.570312c8.03125 9.171874 12.667969 20.925781 12.910156 33.441406-5.71875-7.050782-12.820312-12.945313-20.859375-17.226563 3.777344-4.667969 6.535156-10.183593 7.949219-16.214843zm-39.480469-34.820313c14.09375 0 25.5625 11.464844 25.5625 25.558594 0 14.097656-11.46875 25.5625-25.5625 25.5625s-25.558594-11.464844-25.558594-25.5625c0-14.09375 11.464844-25.558594 25.558594-25.558594zm-18.578125 61.597656c5.570313 2.882813 11.886719 4.523438 18.578125 4.523438 6.695313 0 13.007813-1.640625 18.578125-4.523438 13.207031 5.019531 24.007813 15.367188 29.597657 28.347657-8.03125 18.664062-26.597657 31.769531-48.175782 31.769531-21.574218 0-40.140625-13.105469-48.171875-31.769531 5.585938-12.980469 16.390625-23.328126 29.59375-28.347657zm-20.902343-26.769531c1.417968 6.027344 4.175781 11.542969 7.949218 16.207031-8.035156 4.28125-15.136718 10.179688-20.855468 17.226563.242187-12.457032 4.882812-24.246094 12.90625-33.433594zm-355.949219 76.53125h-2.917969c-1.378906 0-2.5-1.121094-2.5-2.5v-19c0-1.378906 1.121094-2.5 2.5-2.5h2.917969zm0-62h-2.917969c-1.378906 0-2.5-1.121094-2.5-2.5v-19c0-1.378906 1.121094-2.5 2.5-2.5h2.917969zm0-71h-2.917969c-1.378906 0-2.5-1.121094-2.5-2.5v-79c0-1.378906 1.121094-2.5 2.5-2.5h2.917969zm395.429687 201.78125c14.09375 0 25.5625 11.464844 25.5625 25.558594s-11.46875 25.5625-25.5625 25.5625-25.558594-11.46875-25.558594-25.5625 11.464844-25.558594 25.558594-25.558594zm-52.386718 68.265625c.242187-12.460937 4.882812-24.25 12.90625-33.441406 1.417968 6.035156 4.179687 11.550781 7.957031 16.21875-8.03125 4.28125-15.144531 10.175781-20.863281 17.222656zm52.386718 53.449219c-21.574218 0-40.140625-13.105469-48.171875-31.773438 5.582031-12.957031 16.414063-23.328125 29.605469-28.339844 5.570312 2.882813 11.878906 4.519532 18.570312 4.519532 6.695313 0 13.011719-1.640625 18.585938-4.527344 13.214844 5.023438 23.992188 15.347656 29.585938 28.351562-8.03125 18.664063-26.597657 31.769532-48.175782 31.769532zm31.523438-70.671875c3.78125-4.667969 6.542968-10.183594 7.957031-16.21875 8.023437 9.179687 12.664063 20.953125 12.910156 33.429687-5.71875-7.050781-12.820312-12.929687-20.867187-17.210937zm0 0" fill="#474d54"/><path d="m243.714844 258.613281c0 8.992188-1.605469 17.609375-4.539063 25.589844-10.421875 28.375-37.6875 48.625-69.675781 48.625s-59.25-20.25-69.675781-48.625c-2.933594-7.980469-4.539063-16.597656-4.539063-25.589844 0-40.996093 33.238282-74.214843 74.21875-74.214843 40.976563 0 74.210938 33.21875 74.210938 74.214843zm0 0" fill="#d9dfe9"/><path d="m239.171875 284.210938c-10.425781 28.367187-37.679687 48.621093-69.671875 48.621093s-59.246094-20.253906-69.671875-48.621093c6.128906-16.710938 18.09375-30.585938 33.417969-39.1875 10.71875-6.015626 23.085937-9.449219 36.253906-9.449219s25.535156 3.433593 36.253906 9.449219c15.324219 8.601562 27.289063 22.476562 33.417969 39.1875zm0 0" fill="#76ffd9"/><path d="m210.445312 204.445312c0 22.613282-18.332031 40.945313-40.945312 40.945313s-40.945312-18.332031-40.945312-40.945313c0-22.613281 18.332031-40.945312 40.945312-40.945312s40.945312 18.332031 40.945312 40.945312zm0 0" fill="#ffc843"/></svg>