<svg height="512pt" viewBox="0 -86 512 512" width="512pt" xmlns="http://www.w3.org/2000/svg"><path d="m161 17.5v13h-79v-13c0-5.523438 4.476562-10 10-10h59c5.523438 0 10 4.476562 10 10zm0 0" fill="#fff"/><path d="m252 321.5v-13h-39v13c0 5.523438 4.476562 10 10 10h19c5.523438 0 10-4.476562 10-10zm0 0" fill="#fff"/><path d="m181 321.5v-13h-99v13c0 5.523438 4.476562 10 10 10h79c5.523438 0 10-4.476562 10-10zm0 0" fill="#fff"/><path d="m314 321.5v-13h-39v13c0 5.523438 4.476562 10 10 10h19c5.523438 0 10-4.476562 10-10zm0 0" fill="#fff"/><path d="m504.5 47.917969v243.160156c0 11.050781-8.949219 20-20 20h-457c-11.050781 0-20-8.949219-20-20v-243.160156c0-11.050781 8.949219-20 20-20h457c11.050781 0 20 8.949219 20 20zm0 0" fill="#ffc843"/><path d="m504.5 47.917969v243.160156c0 11.050781-8.949219 20-20 20h-17.5c11.050781 0 20-8.949219 20-20v-243.160156c0-11.050781-8.949219-20-20-20h17.5c11.050781 0 20 8.949219 20 20zm0 0" fill="#eaa62f"/><path d="m58 27.917969h396v283.160156h-396zm0 0" fill="#fff"/><path d="m337.714844 133.542969-163.242188-.003907c-35.773437.46875-64.632812 29.597657-64.632812 65.484376 0 36.175781 29.324218 65.503906 65.503906 65.503906 25.105469 0 46.902344-14.132813 57.898438-34.867188h45.515624c10.996094 20.734375 32.792969 34.867188 57.898438 34.867188 36.179688 0 65.503906-29.328125 65.503906-65.503906 0-35.824219-28.757812-64.914063-64.445312-65.480469zm0 0" fill="#fff"/><path d="m402.160156 199.023438c0 36.179687-29.332031 65.5-65.5 65.5-3.082031 0-6.121094-.210938-9.089844-.628907 31.871094-4.410156 56.417969-31.773437 56.417969-64.871093 0-35.820313-28.757812-64.910157-64.449219-65.480469h18.171876c35.6875.570312 64.449218 29.660156 64.449218 65.480469zm0 0" fill="#d3d8df"/><path d="m218.335938 199.867188c0 24.085937-19.527344 43.609374-43.609376 43.609374-24.085937 0-43.609374-19.523437-43.609374-43.609374 0-24.082032 19.523437-43.605469 43.609374-43.605469 24.082032 0 43.609376 19.523437 43.609376 43.605469zm0 0" fill="#76ffd9"/><path d="m484.5 20.417969h-73.171875c-4.140625 0-7.5 3.355469-7.5 7.5s3.359375 7.5 7.5 7.5h73.171875c6.894531 0 12.5 5.605469 12.5 12.5v175.253906c0 4.140625 3.355469 7.5 7.5 7.5s7.5-3.359375 7.5-7.5v-175.253906c0-15.164063-12.335938-27.5-27.5-27.5zm0 0" fill="#474d54"/><path d="m504.5 248.328125c-4.144531 0-7.5 3.359375-7.5 7.5v35.253906c0 6.894531-5.605469 12.5-12.5 12.5h-71.171875c-4.140625 0-7.5 3.355469-7.5 7.5s3.359375 7.5 7.5 7.5h71.171875c15.164062 0 27.5-12.335937 27.5-27.5v-35.253906c0-4.140625-3.355469-7.5-7.5-7.5zm0 0" fill="#474d54"/><path d="m26.832031 189.082031c0 4.144531 3.359375 7.5 7.5 7.5 4.144531 0 7.5-3.355469 7.5-7.5v-39.164062c0-4.144531-3.355469-7.5-7.5-7.5-4.140625 0-7.5 3.355469-7.5 7.5zm0 0" fill="#fff"/><path d="m332.933594 96.644531h-61.183594c-15.023438 0-27.25 12.222657-27.25 27.25v2.148438h-70.125c-19.296875.25-37.398438 7.953125-50.96875 21.6875-13.585938 13.746093-21.066406 31.964843-21.066406 51.292969 0 40.257812 32.75 73.007812 73.003906 73.007812 25.554688 0 49.007812-13.25 62.25-34.871094h36.8125c13.246094 21.621094 36.695312 34.871094 62.25 34.871094 40.257812 0 73.007812-32.75 73.007812-73.007812 0-19.292969-7.460937-37.484376-21-51.226563-13.523437-13.722656-31.578124-21.445313-50.832031-21.75-.039062 0-.078125 0-.117187 0l-78.214844-.003906v-2.148438c0-6.753906 5.496094-12.25 12.25-12.25h61.183594c15.027344 0 27.25-12.222656 27.25-27.25 0-15.023437-12.222656-27.25-27.25-27.25h-132.183594c-6.753906 0-12.25-5.496093-12.25-12.25v-9.476562h190.171875c4.140625 0 7.5-3.355469 7.5-7.5 0-4.140625-3.359375-7.5-7.5-7.5h-210.171875v-2.917969c0-9.648438-7.851562-17.5-17.5-17.5h-59c-9.648438 0-17.5 7.851562-17.5 17.5v2.917969h-47c-15.164062 0-27.5 12.335937-27.5 27.5v243.164062c0 15.164063 12.335938 27.5 27.5 27.5h47v2.917969c0 9.648438 7.851562 17.5 17.5 17.5h79c9.648438 0 17.5-7.851562 17.5-17.5v-2.917969h17v2.917969c0 9.648438 7.851562 17.5 17.5 17.5h19c9.648438 0 17.5-7.851562 17.5-17.5v-2.917969h8v2.917969c0 9.648438 7.851562 17.5 17.5 17.5h19c9.648438 0 17.5-7.851562 17.5-17.5v-2.917969h59.171875c4.140625 0 7.5-3.355469 7.5-7.5s-3.359375-7.5-7.5-7.5h-353.171875c-6.894531 0-12.5-5.605469-12.5-12.5v-243.164062c0-6.894531 5.605469-12.5 12.5-12.5h146v9.476562c0 15.023438 12.226562 27.25 27.25 27.25h132.183594c6.753906 0 12.25 5.496094 12.25 12.25 0 6.753907-5.496094 12.25-12.25 12.25zm4.71875 44.398438c15.273437.257812 29.59375 6.394531 40.328125 17.285156 10.757812 10.914063 16.679687 25.367187 16.679687 40.695313 0 31.984374-26.019531 58.003906-58.003906 58.003906-21.523438 0-41.171875-11.832032-51.273438-30.882813-1.300781-2.449219-3.847656-3.984375-6.625-3.984375h-45.515624c-2.777344 0-5.324219 1.535156-6.625 3.984375-10.101563 19.050781-29.75 30.882813-51.273438 30.882813-31.984375 0-58.003906-26.019532-58.003906-58.003906 0-31.5625 25.671875-57.570313 57.132812-57.984376zm-55.152344 177.539062h24v2.917969c0 1.378906-1.121094 2.5-2.5 2.5h-19c-1.378906 0-2.5-1.121094-2.5-2.5zm-62 0h24v2.917969c0 1.378906-1.121094 2.5-2.5 2.5h-19c-1.378906 0-2.5-1.121094-2.5-2.5zm-131 0h84v2.917969c0 1.378906-1.121094 2.5-2.5 2.5h-79c-1.378906 0-2.5-1.121094-2.5-2.5zm64-298.164062h-64v-2.917969c0-1.378906 1.121094-2.5 2.5-2.5h59c1.378906 0 2.5 1.121094 2.5 2.5zm0 0" fill="#474d54"/><g fill="#c2c7d0"><path d="m305.878906 208.914062c.847656 0 1.707032-.144531 2.550782-.449218l.101562-.039063c3.898438-1.410156 5.910156-5.707031 4.5-9.605469-1.40625-3.894531-5.710938-5.90625-9.601562-4.5l-.105469.039063c-3.894531 1.410156-5.910157 5.710937-4.5 9.605469 1.105469 3.050781 3.984375 4.949218 7.054687 4.949218zm0 0"/><path d="m330.332031 199.769531c.839844 0 1.695313-.140625 2.53125-.441406l.105469-.035156c3.898438-1.398438 5.925781-5.691407 4.527344-9.59375-1.398438-3.894531-5.691406-5.925781-9.589844-4.527344l-.105469.039063c-3.898437 1.394531-5.925781 5.691406-4.527343 9.589843 1.097656 3.0625 3.984374 4.96875 7.058593 4.96875zm0 0"/><path d="m354.789062 190.628906c.847657 0 1.710938-.144531 2.554688-.449218l.101562-.035157c3.894532-1.410156 5.910157-5.710937 4.5-9.605469-1.410156-3.894531-5.710937-5.90625-9.605468-4.5l-.101563.035157c-3.894531 1.410156-5.910156 5.710937-4.5 9.605469 1.105469 3.050781 3.984375 4.949218 7.050781 4.949218zm0 0"/><path d="m322.34375 225.472656c.867188 0 1.75-.152344 2.609375-.472656l.105469-.035156c3.882812-1.441406 5.859375-5.761719 4.417968-9.644532-1.441406-3.882812-5.761718-5.863281-9.640624-4.417968l-.105469.039062c-3.882813 1.441406-5.859375 5.757813-4.417969 9.640625 1.125 3.023438 3.988281 4.890625 7.03125 4.890625zm0 0"/><path d="m346.800781 216.332031c.867188 0 1.75-.152343 2.609375-.472656l.105469-.039063c3.882813-1.441406 5.859375-5.757812 4.417969-9.640624-1.441406-3.882813-5.761719-5.867188-9.640625-4.417969l-.105469.035156c-3.882812 1.441406-5.859375 5.761719-4.417969 9.644531 1.125 3.023438 3.988281 4.890625 7.03125 4.890625zm0 0"/><path d="m371.257812 207.1875c.867188 0 1.75-.148438 2.609376-.46875l.105468-.039062c3.882813-1.441407 5.859375-5.757813 4.417969-9.644532-1.441406-3.882812-5.761719-5.863281-9.640625-4.417968l-.105469.039062c-3.882812 1.441406-5.859375 5.757812-4.417969 9.640625 1.125 3.023437 3.988282 4.890625 7.03125 4.890625zm0 0"/><path d="m234.171875 179.386719h7.316406c4.144531 0 7.5-3.359375 7.5-7.5 0-4.144531-3.355469-7.5-7.5-7.5h-7.316406c-4.144531 0-7.5 3.355469-7.5 7.5 0 4.140625 3.355469 7.5 7.5 7.5zm0 0"/><path d="m270.511719 179.386719h7.316406c4.144531 0 7.5-3.359375 7.5-7.5 0-4.144531-3.355469-7.5-7.5-7.5h-7.316406c-4.144531 0-7.5 3.355469-7.5 7.5 0 4.140625 3.355469 7.5 7.5 7.5zm0 0"/></g><path d="m167.226562 207.367188v12.605468c0 4.140625 3.355469 7.5 7.5 7.5 4.140626 0 7.5-3.359375 7.5-7.5v-12.605468h12.601563c4.144531 0 7.5-3.355469 7.5-7.5 0-4.140626-3.355469-7.5-7.5-7.5h-12.601563v-12.601563c0-4.140625-3.359374-7.5-7.5-7.5-4.144531 0-7.5 3.359375-7.5 7.5v12.601563h-12.601562c-4.144531 0-7.5 3.359374-7.5 7.5 0 4.144531 3.355469 7.5 7.5 7.5zm0 0" fill="#fff"/></svg>