<svg height="512pt" viewBox="0 -42 512 512" width="512pt" xmlns="http://www.w3.org/2000/svg"><path d="m161 106.125v13h-79v-13c0-5.523438 4.476562-10 10-10h59c5.523438 0 10 4.476562 10 10zm0 0" fill="#fff"/><path d="m252 410.125v-13h-39v13c0 5.523438 4.476562 10 10 10h19c5.523438 0 10-4.476562 10-10zm0 0" fill="#fff"/><path d="m181 410.125v-13h-99v13c0 5.523438 4.476562 10 10 10h79c5.523438 0 10-4.476562 10-10zm0 0" fill="#fff"/><path d="m314 410.125v-13h-39v13c0 5.523438 4.476562 10 10 10h19c5.523438 0 10-4.476562 10-10zm0 0" fill="#fff"/><path d="m504.5 136.542969v243.160156c0 11.050781-8.949219 20-20 20h-457c-11.050781 0-20-8.949219-20-20v-243.160156c0-11.050781 8.949219-20 20-20h457c11.050781 0 20 8.949219 20 20zm0 0" fill="#ffc843"/><path d="m504.5 136.542969v243.160156c0 11.050781-8.949219 20-20 20h-17.5c11.050781 0 20-8.949219 20-20v-243.160156c0-11.050781-8.949219-20-20-20h17.5c11.050781 0 20 8.949219 20 20zm0 0" fill="#e79732"/><path d="m58 116.542969h396v283.160156h-396zm0 0" fill="#fff"/><path d="m365.300781 96.035156-39.011719 50.699219 1.761719 63.941406c.167969 6.199219-5.941406 10.628907-11.78125 8.558594l-60.269531-21.441406-60.269531 21.441406c-5.839844 2.070313-11.949219-2.359375-11.78125-8.558594l.351562-12.582031 1.410157-51.359375-39.011719-50.699219c-3.777344-4.910156-1.4375-12.089844 4.5-13.851562l61.359375-18.078125 36.160156-52.769531c3.511719-5.113282 11.050781-5.113282 14.5625 0l36.160156 52.769531 14.558594 4.289062 46.800781 13.789063c5.9375 1.761718 8.277344 8.941406 4.5 13.851562zm0 0" fill="#fff"/><g fill="#76ffd9"><path d="m327.46875 189.425781.582031 21.25c.167969 6.199219-5.941406 10.628907-11.78125 8.558594l-13.730469-4.878906zm0 0"/><path d="m365.300781 96.035156-39.011719 50.699219.359376 13.007813-46.597657 46.601562-24.050781-8.550781-60.269531 21.441406c-5.839844 2.070313-11.949219-2.359375-11.78125-8.558594l.351562-12.582031 129.699219-129.699219 46.800781 13.789063c5.9375 1.761718 8.277344 8.941406 4.5 13.851562zm0 0"/><path d="m144.867188 295.296875-19.59375 6.96875c-1.902344.675781-3.886719-.769531-3.832032-2.785156l.574219-20.789063-12.683594-16.480468c-1.230469-1.597657-.46875-3.933594 1.464844-4.5l19.945313-5.882813 11.757812-17.152344c1.140625-1.664062 3.59375-1.664062 4.734375 0l11.757813 17.152344 19.949218 5.882813c1.933594.566406 2.691406 2.902343 1.460938 4.5l-12.679688 16.480468.570313 20.789063c.054687 2.015625-1.929688 3.460937-3.828125 2.785156zm0 0"/><path d="m256 334.800781-19.597656 6.96875c-1.898438.675781-3.882813-.765625-3.828125-2.785156l.570312-20.789063-12.679687-16.480468c-1.230469-1.597656-.472656-3.933594 1.460937-4.503906l19.949219-5.878907 11.757812-17.15625c1.140626-1.660156 3.59375-1.660156 4.734376 0l11.753906 17.15625 19.949218 5.878907c1.933594.570312 2.691407 2.90625 1.464844 4.503906l-12.683594 16.480468.574219 20.789063c.054688 2.015625-1.933593 3.460937-3.832031 2.785156zm0 0"/><path d="m367.132812 295.296875-19.597656 6.96875c-1.898437.675781-3.882812-.769531-3.828125-2.785156l.570313-20.789063-12.679688-16.480468c-1.230468-1.597657-.472656-3.933594 1.460938-4.5l19.949218-5.882813 11.757813-17.152344c1.140625-1.664062 3.59375-1.664062 4.734375 0l11.757812 17.152344 19.945313 5.882813c1.933594.566406 2.691406 2.902343 1.464844 4.5l-12.683594 16.480468.574219 20.789063c.054687 2.015625-1.929688 3.460937-3.832032 2.785156zm0 0"/></g><path d="m384.671875 109.042969h-19.921875l6.488281-8.433594c3.285157-4.269531 4.253907-9.878906 2.589844-15-1.664063-5.125-5.742187-9.09375-10.914063-10.617187l-58.792968-17.332032-34.652344-50.5625c-3.046875-4.445312-8.082031-7.097656-13.46875-7.097656s-10.421875 2.652344-13.46875 7.097656l-34.652344 50.5625-58.796875 17.332032c-5.167969 1.523437-9.246093 5.492187-10.910156 10.617187-.320313.992187-.542969 2-.667969 3.015625h-45.503906c-9.648438 0-17.5 7.851562-17.5 17.5v2.917969h-47c-15.164062 0-27.5 12.335937-27.5 27.5v170.9375c0 4.144531 3.359375 7.5 7.5 7.5s7.5-3.355469 7.5-7.5v-170.9375c0-6.894531 5.605469-12.5 12.5-12.5h131.289062l19.351563 25.148437-1.6875 61.273438c-.144531 5.382812 2.367187 10.488281 6.722656 13.65625 4.359375 3.164062 9.992188 3.976562 15.066407 2.175781l57.757812-20.539063 57.757812 20.539063c1.777344.632813 3.628907.945313 5.46875.945313 3.402344 0 6.765626-1.066407 9.597657-3.121094 4.355469-3.167969 6.871093-8.269532 6.722656-13.65625l-1.6875-61.273438 19.351563-25.148437h31.460937c4.140625 0 7.5-3.355469 7.5-7.5 0-4.140625-3.359375-7.5-7.5-7.5zm-295.171875 0v-2.917969c0-1.378906 1.121094-2.5 2.5-2.5h51.082031l4.167969 5.417969zm269.851562-17.582031-39.007812 50.695312c-1.050781 1.367188-1.601562 3.054688-1.550781 4.78125l1.757812 63.941406c.011719.460938-.171875.835938-.546875 1.105469-.375.273437-.785156.332031-1.222656.179687l-60.269531-21.433593c-.8125-.289063-1.664063-.433594-2.511719-.433594-.851562 0-1.699219.144531-2.515625.433594l-60.265625 21.433593c-.4375.152344-.851562.09375-1.226562-.179687-.375-.269531-.558594-.644531-.546876-1.105469l1.757813-63.941406c.050781-1.726562-.5-3.414062-1.550781-4.78125l-39.007813-50.695312c-.28125-.367188-.351562-.777344-.210937-1.21875.144531-.441407.445312-.730469.886718-.859376l61.355469-18.085937c1.65625-.488281 3.089844-1.53125 4.066407-2.957031l36.160156-52.761719c.523437-.765625 1.664062-.765625 2.1875 0l36.164062 52.761719c.972656 1.425781 2.410156 2.46875 4.0625 2.957031l61.355469 18.085937c.445313.128907.742187.417969.886719.859376.144531.441406.078125.851562-.207032 1.21875zm0 0" fill="#474d54"/><path d="m484.5 109.042969h-67.171875c-4.140625 0-7.5 3.355469-7.5 7.5s3.359375 7.5 7.5 7.5h67.171875c6.894531 0 12.5 5.605469 12.5 12.5v243.164062c0 6.890625-5.605469 12.5-12.5 12.5h-457c-6.894531 0-12.5-5.609375-12.5-12.5v-39.5625c0-4.144531-3.359375-7.5-7.5-7.5s-7.5 3.355469-7.5 7.5v39.5625c0 15.160157 12.335938 27.5 27.5 27.5h47v2.917969c0 9.648438 7.851562 17.5 17.5 17.5h79c9.648438 0 17.5-7.851562 17.5-17.5v-2.917969h17v2.917969c0 9.648438 7.851562 17.5 17.5 17.5h19c9.648438 0 17.5-7.851562 17.5-17.5v-2.917969h8v2.917969c0 9.648438 7.851562 17.5 17.5 17.5h19c9.648438 0 17.5-7.851562 17.5-17.5v-2.917969h163c15.164062 0 27.5-12.339843 27.5-27.5v-243.164062c0-15.164063-12.335938-27.5-27.5-27.5zm-311 301.082031c0 1.378906-1.121094 2.5-2.5 2.5h-79c-1.378906 0-2.5-1.121094-2.5-2.5v-2.917969h84zm71 0c0 1.378906-1.121094 2.5-2.5 2.5h-19c-1.378906 0-2.5-1.121094-2.5-2.5v-2.917969h24zm62 0c0 1.378906-1.121094 2.5-2.5 2.5h-19c-1.378906 0-2.5-1.121094-2.5-2.5v-2.917969h24zm0 0" fill="#474d54"/><path d="m34.332031 285.207031c4.144531 0 7.5-3.359375 7.5-7.5v-39.164062c0-4.144531-3.355469-7.5-7.5-7.5-4.140625 0-7.5 3.355469-7.5 7.5v39.164062c0 4.140625 3.359375 7.5 7.5 7.5zm0 0" fill="#fff"/></svg>