<svg height="512pt" viewBox="-42 0 512 512.001" width="512pt" xmlns="http://www.w3.org/2000/svg"><path d="m321.5 161h-13v-79h13c5.523438 0 10 4.476562 10 10v59c0 5.523438-4.476562 10-10 10zm0 0" fill="#fff"/><path d="m17.5 252h13v-39h-13c-5.523438 0-10 4.476562-10 10v19c0 5.523438 4.476562 10 10 10zm0 0" fill="#fff"/><path d="m17.5 181h13v-99h-13c-5.523438 0-10 4.476562-10 10v79c0 5.523438 4.476562 10 10 10zm0 0" fill="#fff"/><path d="m17.5 314h13v-39h-13c-5.523438 0-10 4.476562-10 10v19c0 5.523438 4.476562 10 10 10zm0 0" fill="#fff"/><path d="m27.917969 484.5v-457c0-11.046875 8.953125-20 20-20h243.164062c11.046875 0 20 8.953125 20 20v457c0 11.046875-8.953125 20-20 20h-243.164062c-11.042969 0-20-8.953125-20-20zm0 0" fill="#ffc843"/><path d="m311.082031 27.5v457c0 11.050781-8.953125 20-20 20h-19.582031c11.050781 0 20-8.949219 20-20v-457c0-11.050781-8.949219-20-20-20h19.582031c11.046875 0 20 8.949219 20 20zm0 0" fill="#eaa62f"/><path d="m27.917969 58h283.164062v396h-283.164062zm0 0" fill="#fff"/><path d="m291.5 58h19.582031v396h-19.582031zm0 0" fill="#d9dfe9"/><path d="m254.851562 195.683594h-170.703124c-7.8125 0-14.148438-6.332032-14.148438-14.148438v-22.703125c0-7.8125 6.335938-14.148437 14.148438-14.148437h170.703124c7.8125 0 14.148438 6.335937 14.148438 14.148437v22.703125c0 7.816406-6.332031 14.148438-14.148438 14.148438zm0 0" fill="#d9dfe9"/><path d="m420.5 258.480469v68.347656c0 67.722656-44.507812 127.390625-109.417969 146.683594-64.910156-19.292969-109.421875-78.960938-109.421875-146.683594v-68.347656c0-4.089844 2.480469-7.761719 6.269532-9.28125l99.421874-39.96875c2.398438-.960938 5.070313-.960938 7.457032 0l99.421875 39.96875c2.039062.820312 3.691406 2.25 4.789062 4.050781.949219 1.539062 1.480469 3.339844 1.480469 5.230469zm0 0" fill="#ffc843"/><path d="m394.5 268.519531v57.601563c0 28.058594-8.871094 54.777344-25.640625 77.257812-14.878906 19.949219-34.71875 34.882813-57.777344 43.582032-23.0625-8.699219-42.890625-23.632813-57.773437-43.582032-16.777344-22.480468-25.648438-49.199218-25.648438-77.257812v-57.601563l83.421875-33.539062zm0 0" fill="#fff"/><path d="m420.5 258.480469v64.167969l-74.488281 73.429687c-4.910157 4.84375-11.3125 7.261719-17.710938 7.261719-6.398437 0-12.800781-2.417969-17.71875-7.261719l-48.53125-47.839844c-3.941406-3.878906-3.980469-10.207031-.101562-14.148437l21.382812-21.691406c3.878907-3.9375 10.207031-3.976563 14.148438-.109376l30.820312 30.390626 90.71875-89.429688c.949219 1.539062 1.480469 3.339844 1.480469 5.230469zm0 0" fill="#76ffd9"/><path d="m149.917969 26.832031c-4.140625 0-7.5 3.359375-7.5 7.5 0 4.144531 3.359375 7.5 7.5 7.5h39.164062c4.144531 0 7.5-3.355469 7.5-7.5 0-4.140625-3.355469-7.5-7.5-7.5zm0 0" fill="#fff"/><g fill="#c2c7d0"><path d="m104.324219 177.683594h.109375.066406c4.113281 0 7.460938-3.3125 7.5-7.429688.035156-4.144531-3.292969-7.53125-7.433594-7.570312h-.109375c-.023437 0-.046875 0-.066406 0-4.113281 0-7.464844 3.3125-7.5 7.433594-.035156 4.140624 3.292969 7.527343 7.433594 7.566406zm0 0"/><path d="m132.433594 177.683594h.109375.066406c4.113281 0 7.464844-3.3125 7.5-7.429688.039063-4.144531-3.289063-7.53125-7.433594-7.570312h-.109375c-.023437 0-.042968 0-.066406 0-4.113281 0-7.460938 3.3125-7.5 7.433594-.035156 4.140624 3.292969 7.527343 7.433594 7.566406zm0 0"/><path d="m160.542969 177.683594h.109375.066406c4.113281 0 7.460938-3.3125 7.5-7.429688.035156-4.144531-3.292969-7.53125-7.433594-7.570312h-.109375c-.023437 0-.046875 0-.066406 0-4.113281 0-7.460937 3.3125-7.5 7.433594-.035156 4.140624 3.292969 7.527343 7.433594 7.566406zm0 0"/><path d="m188.652344 177.683594h.109375.066406c4.113281 0 7.460937-3.3125 7.5-7.429688.035156-4.144531-3.292969-7.53125-7.433594-7.570312h-.109375c-.023437 0-.046875 0-.066406 0-4.113281 0-7.464844 3.3125-7.5 7.433594-.035156 4.140624 3.292969 7.527343 7.433594 7.566406zm0 0"/><path d="m216.761719 177.683594h.109375.070312c4.109375 0 7.460938-3.3125 7.496094-7.433594.035156-4.140625-3.289062-7.527344-7.433594-7.566406h-.109375c-.023437 0-.046875 0-.066406 0-4.113281 0-7.460937 3.3125-7.5 7.433594-.035156 4.140624 3.292969 7.527343 7.433594 7.566406zm0 0"/><path d="m104.5 117.09375c4.144531 0 7.5-3.359375 7.5-7.5 0-4.144531-3.355469-7.5-7.5-7.5h-23.699219c-4.144531 0-7.5 3.355469-7.5 7.5 0 4.140625 3.355469 7.5 7.5 7.5zm0 0"/><path d="m173.082031 214.285156h-92.28125c-4.144531 0-7.5 3.355469-7.5 7.5 0 4.140625 3.355469 7.5 7.5 7.5h92.28125c4.144531 0 7.5-3.359375 7.5-7.5 0-4.144531-3.355469-7.5-7.5-7.5zm0 0"/><path d="m168.582031 243.28125c0-4.140625-3.355469-7.5-7.5-7.5h-80.28125c-4.144531 0-7.5 3.359375-7.5 7.5 0 4.144531 3.355469 7.5 7.5 7.5h80.28125c4.144531 0 7.5-3.355469 7.5-7.5zm0 0"/><path d="m149.917969 402.5h23.164062c4.144531 0 7.5-3.355469 7.5-7.5s-3.355469-7.5-7.5-7.5h-23.164062c-4.140625 0-7.5 3.355469-7.5 7.5s3.359375 7.5 7.5 7.5zm0 0"/><path d="m80.800781 402.5h46.140625c4.144532 0 7.5-3.355469 7.5-7.5s-3.355468-7.5-7.5-7.5h-46.140625c-4.144531 0-7.5 3.355469-7.5 7.5s3.355469 7.5 7.5 7.5zm0 0"/><path d="m80.800781 375.625h11.851563c4.140625 0 7.5-3.355469 7.5-7.5s-3.359375-7.5-7.5-7.5h-11.851563c-4.144531 0-7.5 3.355469-7.5 7.5s3.355469 7.5 7.5 7.5zm0 0"/></g><path d="m417.027344 242.238281-98.421875-39.566406c-.015625-.007813-.023438-.019531-.023438-.035156v-34.101563c0-.019531.015625-.035156.035157-.035156h2.847656c9.683594 0 17.535156-7.851562 17.535156-17.535156v-58.929688c0-9.683594-7.851562-17.535156-17.535156-17.535156h-2.847656c-.019532 0-.035157-.015625-.035157-.035156v-46.929688c0-15.207031-12.328125-27.535156-27.535156-27.535156h-49.371094c-4.125 0-7.738281 3.179688-7.84375 7.304688-.109375 4.230468 3.289063 7.695312 7.5 7.695312h49.714844c6.921875 0 12.535156 5.613281 12.535156 12.535156v175.101563c0 .015625-.007812.027343-.023437.03125l-98.421875 39.570312c-6.667969 2.679688-10.972657 9.054688-10.972657 16.238281v66.894532c0 33.347656 9.816407 66.105468 28.949219 93.417968 7.175781 10.25 15.371094 19.496094 24.445313 27.648438.023437.023438.007812.0625-.023438.0625l19.617188 14.953125c11.246094 7.304687 23.445312 13.195313 36.402344 17.539063.015624.003906.027343.019531.027343.035156v5.4375c0 6.921875-5.613281 12.535156-12.539062 12.535156h-243.089844c-6.921875 0-12.535156-5.613281-12.535156-12.535156v-91.785156c0-4.128907-3.179688-7.742188-7.300781-7.847657-4.234376-.105469-7.699219 3.289063-7.699219 7.5v92.132813c0 15.207031 12.328125 27.535156 27.535156 27.535156h243.09375c15.207031 0 27.535156-12.328125 27.535156-27.535156v-5.445313c0-.015625.011719-.027343.023438-.035156 19.117187-6.410156 36.625-16.214844 52.101562-29.222656 3.179688-2.671875 3.914063-7.464844 1.300781-10.695313-2.65625-3.28125-7.46875-3.726562-10.675781-1.019531-14.832031 12.523437-31.722656 21.808594-50.238281 27.621094-.007812 0-.015625 0-.023438 0-29.367187-9.214844-54.582031-27.097657-73.027343-51.824219-18.894531-25.324219-28.878907-55.414062-28.878907-87.015625v-68.328125c0-1.035156.628907-1.96875 1.589844-2.351562l99.394532-39.960938c.601562-.242188 1.265624-.242188 1.867187 0l95.117187 38.238281c.003907.003907.007813.003907.011719.007813l3.050781 1.414062c1.671876.773438 2.738282 2.449219 2.742188 4.289063l.0625 9.578125v49.796875l-.738281 21.785156v.003906c-2.71875 26.84375-12.925781 52.769531-29.425781 74.230469-2.847657 3.699219-1.707032 9.207031 2.746093 11.363281 3.242188 1.570313 7.144531.386719 9.335938-2.472656 21.335937-27.863281 33.082031-62.507813 33.082031-97.589844v-68.355469c0-7.183593-4.304688-13.558593-10.972656-16.238281zm-98.445313-152.703125c0-.019531.015625-.035156.035157-.035156h2.847656c1.402344 0 2.535156 1.136719 2.535156 2.535156v58.929688c0 1.398437-1.132812 2.535156-2.535156 2.535156h-2.847656c-.019532 0-.035157-.015625-.035157-.035156zm0 0" fill="#474d54"/><path d="m208.671875 0h-160.71875c-15.207031 0-27.535156 12.328125-27.535156 27.535156v46.929688c0 .019531-.015625.035156-.035157.035156h-2.847656c-9.683594 0-17.535156 7.851562-17.535156 17.535156v78.929688c0 9.683594 7.851562 17.535156 17.535156 17.535156h2.847656c.019532 0 .035157.015625.035157.035156v16.929688c0 .019531-.015625.035156-.035157.035156h-2.847656c-9.683594 0-17.535156 7.851562-17.535156 17.535156v18.929688c0 9.683594 7.851562 17.535156 17.535156 17.535156h2.847656c.019532 0 .035157.015625.035157.035156v7.929688c0 .019531-.015625.035156-.035157.035156h-2.847656c-9.683594 0-17.535156 7.851562-17.535156 17.535156v18.929688c0 9.683594 7.851562 17.535156 17.535156 17.535156h2.847656c.019532 0 .035157.015625.035157.035156v37.789063c0 4.125 3.179687 7.738281 7.304687 7.84375 4.230469.109375 7.695313-3.289063 7.695313-7.496094v-332.136719c0-6.921875 5.613281-12.535156 12.535156-12.535156h160.371094c4.125 0 7.738281-3.179688 7.84375-7.304688.109375-4.230468-3.289063-7.695312-7.496094-7.695312zm-188.253906 306.464844c0 .019531-.015625.035156-.035157.035156h-2.847656c-1.398437 0-2.535156-1.136719-2.535156-2.535156v-18.929688c0-1.398437 1.136719-2.535156 2.535156-2.535156h2.847656c.019532 0 .035157.015625.035157.035156zm0-62c0 .019531-.015625.035156-.035157.035156h-2.847656c-1.398437 0-2.535156-1.136719-2.535156-2.535156v-18.929688c0-1.398437 1.136719-2.535156 2.535156-2.535156h2.847656c.019532 0 .035157.015625.035157.035156zm0-71c0 .019531-.015625.035156-.035157.035156h-2.847656c-1.398437 0-2.535156-1.136719-2.535156-2.535156v-78.929688c0-1.398437 1.136719-2.535156 2.535156-2.535156h2.847656c.019532 0 .035157.015625.035157.035156zm0 0" fill="#474d54"/></svg>