<svg height="512pt" viewBox="-44 0 512 512.001" width="512pt" xmlns="http://www.w3.org/2000/svg"><path d="m321.5 161h-13v-79h13c5.523438 0 10 4.476562 10 10v59c0 5.523438-4.476562 10-10 10zm0 0" fill="#fff"/><path d="m17.5 252h13v-39h-13c-5.523438 0-10 4.476562-10 10v19c0 5.523438 4.476562 10 10 10zm0 0" fill="#fff"/><path d="m17.5 181h13v-99h-13c-5.523438 0-10 4.476562-10 10v79c0 5.523438 4.476562 10 10 10zm0 0" fill="#fff"/><path d="m17.5 314h13v-39h-13c-5.523438 0-10 4.476562-10 10v19c0 5.523438 4.476562 10 10 10zm0 0" fill="#fff"/><path d="m27.917969 484.5v-457c0-11.046875 8.953125-20 20-20h243.164062c11.046875 0 20 8.953125 20 20v457c0 11.046875-8.953125 20-20 20h-243.164062c-11.042969 0-20-8.953125-20-20zm0 0" fill="#ffc843"/><path d="m311.082031 27.5v457c0 11.050781-8.953125 20-20 20h-19.582031c11.050781 0 20-8.949219 20-20v-457c0-11.050781-8.949219-20-20-20h19.582031c11.046875 0 20 8.949219 20 20zm0 0" fill="#eaa62f"/><path d="m27.917969 58h283.164062v396h-283.164062zm0 0" fill="#fff"/><path d="m291.5 58h19.582031v396h-19.582031zm0 0" fill="#d9dfe9"/><path d="m254.851562 195.683594h-170.703124c-7.8125 0-14.148438-6.332032-14.148438-14.148438v-22.703125c0-7.8125 6.335938-14.148437 14.148438-14.148437h170.703124c7.8125 0 14.148438 6.335937 14.148438 14.148437v22.703125c0 7.816406-6.332031 14.148438-14.148438 14.148438zm0 0" fill="#d3d8df"/><path d="m368 338.386719c-8.285156 0-15-6.714844-15-15v-109.816407c0-24.539062-19.960938-44.5-44.5-44.5-24.535156 0-44.5 19.960938-44.5 44.5v109.816407c0 8.285156-6.714844 15-15 15s-15-6.714844-15-15v-109.816407c0-41.078124 33.421875-74.5 74.5-74.5s74.5 33.421876 74.5 74.5v109.816407c0 8.285156-6.714844 15-15 15zm0 0" fill="#fff"/><path d="m415.5 369.511719c0 59.09375-47.90625 107-107 107s-107-47.90625-107-107 47.90625-107 107-107 107 47.90625 107 107zm0 0" fill="#76ffd9"/><path d="m415.5 369.507812c0 59.101563-47.910156 107-107 107-5.054688 0-10.027344-.355468-14.894531-1.039062 52.046875-7.234375 92.109375-51.910156 92.109375-105.960938 0-54.042968-40.0625-98.71875-92.109375-105.964843 4.867187-.683594 9.839843-1.035157 14.894531-1.035157 59.089844 0 107 47.90625 107 107zm0 0" fill="#5de0bf"/><path d="m333.515625 376.835938c0-14.753907-12.773437-26.523438-27.863281-24.855469-11.480469 1.265625-20.726563 10.503906-22.003906 21.984375-1.078126 9.640625 3.339843 18.332031 10.511718 23.359375v22.9375c0 7.921875 6.417969 14.339843 14.339844 14.339843 7.917969 0 14.339844-6.417968 14.339844-14.339843v-22.9375c6.453125-4.523438 10.675781-12.011719 10.675781-20.488281zm0 0" fill="#fff"/><path d="m189.082031 26.832031h-39.164062c-4.140625 0-7.5 3.359375-7.5 7.5 0 4.144531 3.359375 7.5 7.5 7.5h39.164062c4.144531 0 7.5-3.355469 7.5-7.5 0-4.140625-3.355469-7.5-7.5-7.5zm0 0" fill="#fff"/><g fill="#c2c7d0"><path d="m104.566406 162.683594h-.109375c-.023437 0-.042969 0-.066406 0-4.109375 0-7.460937 3.3125-7.5 7.433594-.035156 4.144531 3.292969 7.53125 7.433594 7.566406h.109375.066406c4.113281 0 7.464844-3.3125 7.5-7.429688.039062-4.144531-3.289062-7.53125-7.433594-7.570312zm0 0"/><path d="m132.675781 162.683594h-.105469c-.023437 0-.046874 0-.070312 0-4.109375 0-7.460938 3.3125-7.5 7.433594-.035156 4.144531 3.292969 7.53125 7.433594 7.566406h.109375.070312c4.109375 0 7.460938-3.3125 7.496094-7.429688.039063-4.144531-3.289063-7.53125-7.433594-7.570312zm0 0"/><path d="m160.785156 162.683594h-.109375c-.019531 0-.042969 0-.066406 0-4.109375 0-7.460937 3.3125-7.5 7.433594-.035156 4.144531 3.292969 7.53125 7.433594 7.566406h.109375.066406c4.113281 0 7.464844-3.3125 7.5-7.429688.039062-4.144531-3.289062-7.53125-7.433594-7.570312zm0 0"/><path d="m188.898438 162.683594h-.109376c-.023437 0-.046874 0-.070312 0-4.109375 0-7.460938 3.3125-7.5 7.433594-.035156 4.144531 3.292969 7.53125 7.433594 7.566406h.109375.070312c4.109375 0 7.460938-3.3125 7.496094-7.429688.039063-4.144531-3.289063-7.53125-7.429687-7.570312zm0 0"/><path d="m217.003906 162.683594h-.109375c-.019531 0-.042969 0-.066406 0-4.109375 0-7.460937 3.3125-7.5 7.433594-.035156 4.144531 3.292969 7.53125 7.433594 7.566406h.113281.066406c4.109375 0 7.460938-3.3125 7.5-7.433594.035156-4.140625-3.292968-7.527344-7.4375-7.566406zm0 0"/><path d="m104.5 117.09375c4.144531 0 7.5-3.359375 7.5-7.5 0-4.144531-3.355469-7.5-7.5-7.5h-23.699219c-4.144531 0-7.5 3.355469-7.5 7.5 0 4.140625 3.355469 7.5 7.5 7.5zm0 0"/><path d="m173.082031 214.285156h-92.28125c-4.144531 0-7.5 3.355469-7.5 7.5 0 4.140625 3.355469 7.5 7.5 7.5h92.28125c4.144531 0 7.5-3.359375 7.5-7.5 0-4.144531-3.355469-7.5-7.5-7.5zm0 0"/><path d="m80.800781 250.78125h80.28125c4.144531 0 7.5-3.355469 7.5-7.5 0-4.140625-3.355469-7.5-7.5-7.5h-80.28125c-4.144531 0-7.5 3.359375-7.5 7.5 0 4.144531 3.355469 7.5 7.5 7.5zm0 0"/><path d="m173.082031 387.5h-23.164062c-4.140625 0-7.5 3.355469-7.5 7.5s3.359375 7.5 7.5 7.5h23.164062c4.144531 0 7.5-3.355469 7.5-7.5s-3.355469-7.5-7.5-7.5zm0 0"/><path d="m80.800781 402.5h46.140625c4.144532 0 7.5-3.355469 7.5-7.5s-3.355468-7.5-7.5-7.5h-46.140625c-4.144531 0-7.5 3.355469-7.5 7.5s3.355469 7.5 7.5 7.5zm0 0"/><path d="m80.800781 375.625h11.851563c4.140625 0 7.5-3.355469 7.5-7.5s-3.359375-7.5-7.5-7.5h-11.851563c-4.144531 0-7.5 3.355469-7.5 7.5s3.355469 7.5 7.5 7.5zm0 0"/></g><path d="m390.5 289.6875v-27.359375c0-4.140625-3.355469-7.5-7.5-7.5-4.140625 0-7.5 3.359375-7.5 7.5v14.390625c-4.742188-3.433594-9.75-6.515625-15-9.203125v-53.945313c0-28.671874-23.328125-52-52-52s-52 23.328126-52 52v53.933594c-5.210938 2.652344-10.226562 5.710938-15 9.15625v-63.089844c0-36.945312 30.054688-67 67-67s67 30.054688 67 67v16.101563c0 4.140625 3.359375 7.5 7.5 7.5 4.144531 0 7.5-3.359375 7.5-7.5v-16.101563c0-34.4375-21.347656-63.964843-51.5-76.09375v-45.476562c0-9.648438-7.851562-17.5-17.5-17.5h-2.917969v-47c0-15.164062-12.335937-27.5-27.5-27.5h-243.164062c-15.164063 0-27.5 12.335938-27.5 27.5v47h-2.917969c-9.648438 0-17.5 7.851562-17.5 17.5v79c0 9.648438 7.851562 17.5 17.5 17.5h2.917969v17h-2.917969c-9.648438 0-17.5 7.851562-17.5 17.5v19c0 9.648438 7.851562 17.5 17.5 17.5h2.917969v8h-2.917969c-9.648438 0-17.5 7.851562-17.5 17.5v19c0 9.648438 7.851562 17.5 17.5 17.5h2.917969v46.171875c0 4.140625 3.359375 7.5 7.5 7.5 4.144531 0 7.5-3.359375 7.5-7.5v-340.171875c0-6.894531 5.609375-12.5 12.5-12.5h243.164062c6.894531 0 12.5 5.605469 12.5 12.5v104.230469c-12.6875.753906-24.597656 4.410156-35.097656 10.304687l-14.265625 10.148438c-10.820312 9.578125-19.09375 21.960937-23.675781 36l-3.363281 15c-.429688 3.40625-.679688 6.867187-.679688 10.386718v76.035157c-16.464844 16.90625-27.390625 38.546875-31.085938 61.894531-.644531 4.089844 2.148438 7.929688 6.238282 8.578125 4.09375.644531 7.933594-2.144531 8.578125-6.234375 3.660156-23.136719 15.5-44.351562 33.347656-59.730469 18.027344-15.542969 41.085937-24.101562 64.921875-24.101562 54.863281 0 99.5 44.636719 99.5 99.5s-44.636719 99.5-99.5 99.5c-24.003906 0-47.183594-8.664063-65.269531-24.402344-17.914063-15.582031-29.683594-37.027344-33.144531-60.378906-.609376-4.097657-4.417969-6.925781-8.519532-6.320313-4.097656.609375-6.925781 4.421875-6.320312 8.519532 3.328125 22.449218 13.339844 43.34375 28.539062 60.070312l16.542969 15c18.335937 13.597656 40.363281 21.421875 63.253906 22.40625v.59375c0 6.894531-5.605469 12.5-12.5 12.5h-243.164062c-6.890625 0-12.5-5.605469-12.5-12.5v-84.167969c0-4.144531-3.355469-7.5-7.5-7.5-4.140625 0-7.5 3.355469-7.5 7.5v84.167969c0 15.164062 12.335937 27.5 27.5 27.5h243.164062c15.164063 0 27.5-12.335938 27.5-27.5v-.9375c58.429688-5.121094 104.417969-54.3125 104.417969-114.050781 0-31.015625-12.402344-59.1875-32.5-79.824219zm-71.917969-200.1875h2.917969c1.378906 0 2.5 1.121094 2.5 2.5v41.058594c-1.785156-.34375-3.59375-.621094-5.417969-.847656zm-298.164062 217h-2.917969c-1.378906 0-2.5-1.121094-2.5-2.5v-19c0-1.378906 1.121094-2.5 2.5-2.5h2.917969zm0-62h-2.917969c-1.378906 0-2.5-1.121094-2.5-2.5v-19c0-1.378906 1.121094-2.5 2.5-2.5h2.917969zm0-71h-2.917969c-1.378906 0-2.5-1.121094-2.5-2.5v-79c0-1.378906 1.121094-2.5 2.5-2.5h2.917969zm283.164062 81.621094c-10.992187.472656-21.792969 2.523437-32.082031 6.039062v-47.589844c0-18.734374 14-34.25 32.082031-36.664062zm41.917969 6.027344c-8.5625-2.929688-17.582031-4.871094-26.917969-5.6875v-77.484376c15.515625 4.402344 26.917969 18.6875 26.917969 35.59375zm0 0" fill="#474d54"/></svg>