<svg height="512pt" viewBox="-54 0 512 512" width="512pt" xmlns="http://www.w3.org/2000/svg"><g fill="#fff"><path d="m321.5 161h-13v-79h13c5.523438 0 10 4.476562 10 10v59c0 5.523438-4.476562 10-10 10zm0 0"/><path d="m17.5 252h13v-39h-13c-5.523438 0-10 4.476562-10 10v19c0 5.523438 4.476562 10 10 10zm0 0"/><path d="m17.5 181h13v-99h-13c-5.523438 0-10 4.476562-10 10v79c0 5.523438 4.476562 10 10 10zm0 0"/><path d="m17.5 314h13v-39h-13c-5.523438 0-10 4.476562-10 10v19c0 5.523438 4.476562 10 10 10zm0 0"/></g><path d="m27.917969 484.5v-457c0-11.046875 8.953125-20 20-20h243.164062c11.046875 0 20 8.953125 20 20v457c0 11.046875-8.953125 20-20 20h-243.164062c-11.046875 0-20-8.953125-20-20zm0 0" fill="#ffc843"/><path d="m311.078125 27.5v457c0 11.050781-8.949219 20-20 20h-19.578125c11.050781 0 20-8.949219 20-20v-457c0-11.050781-8.949219-20-20-20h19.578125c11.050781 0 20 8.949219 20 20zm0 0" fill="#e79732"/><path d="m27.917969 58h283.164062v396h-283.164062zm0 0" fill="#fff"/><path d="m291.5 58h19.582031v396h-19.582031zm0 0" fill="#d9dfe9"/><path d="m230.34375 180.671875 74.761719-74.757813c3.847656-3.851562 10.097656-3.851562 13.949219 0l74.757812 74.757813c6.210938 6.210937 1.8125 16.839844-6.96875 16.839844h-17.210938v99.851562c0 5.441407-4.410156 9.859375-9.859374 9.859375h-95.390626c-5.4375 0-9.859374-4.417968-9.859374-9.859375v-99.851562h-17.199219c-8.789063 0-13.191407-10.628907-6.980469-16.839844zm0 0" fill="#76ffd9"/><path d="m369.636719 339.308594v22.351562c0 5.519532-4.480469 10-10 10h-95.109375c-5.519532 0-10-4.480468-10-10v-22.351562c0-5.527344 4.480468-10 10-10h95.109375c5.519531 0 10 4.472656 10 10zm0 0" fill="#76ffd9"/><path d="m369.636719 402.28125v8.347656c0 5.53125-4.480469 10-10 10h-95.109375c-5.519532 0-10-4.46875-10-10v-8.347656c0-5.519531 4.480468-10 10-10h95.109375c5.519531 0 10 4.480469 10 10zm0 0" fill="#76ffd9"/><path d="m190.597656 162v146.53125c0 5.527344-4.480468 10-10 10h-92.871094c-5.53125 0-10-4.472656-10-10v-146.53125c0-5.519531 4.46875-10 10-10h92.871094c5.519532 0 10 4.480469 10 10zm0 0" fill="#d9dfe9"/><path d="m190.597656 275.578125v32.953125c0 5.527344-4.480468 10-10 10h-92.871094c-5.53125 0-10-4.472656-10-10v-32.929688c13.128907-16.722656 33.539063-27.460937 56.449219-27.460937 22.910157 0 43.300781 10.730469 56.421875 27.4375zm0 0" fill="#76ffd9"/><path d="m169.113281 220.390625c0 19.304687-15.648437 34.953125-34.953125 34.953125-19.304687 0-34.953125-15.648438-34.953125-34.953125s15.648438-34.953125 34.953125-34.953125c19.304688 0 34.953125 15.648438 34.953125 34.953125zm0 0" fill="#ffc843"/><path d="m189.082031 26.832031h-39.164062c-4.140625 0-7.5 3.359375-7.5 7.5 0 4.144531 3.359375 7.5 7.5 7.5h39.164062c4.140625 0 7.5-3.355469 7.5-7.5 0-4.140625-3.359375-7.5-7.5-7.5zm0 0" fill="#fff"/><path d="m80.800781 117.09375h23.699219c4.140625 0 7.5-3.359375 7.5-7.5 0-4.144531-3.359375-7.5-7.5-7.5h-23.699219c-4.144531 0-7.5 3.355469-7.5 7.5 0 4.140625 3.355469 7.5 7.5 7.5zm0 0" fill="#c2c7d0"/><path d="m149.917969 387.5c-4.144531 0-7.5 3.355469-7.5 7.5s3.355469 7.5 7.5 7.5h23.164062c4.140625 0 7.5-3.355469 7.5-7.5s-3.359375-7.5-7.5-7.5zm0 0" fill="#c2c7d0"/><path d="m80.800781 402.5h46.140625c4.140625 0 7.5-3.355469 7.5-7.5s-3.359375-7.5-7.5-7.5h-46.140625c-4.144531 0-7.5 3.355469-7.5 7.5s3.355469 7.5 7.5 7.5zm0 0" fill="#c2c7d0"/><path d="m80.800781 375.625h11.847657c4.140624 0 7.5-3.355469 7.5-7.5s-3.359376-7.5-7.5-7.5h-11.847657c-4.144531 0-7.5 3.355469-7.5 7.5s3.355469 7.5 7.5 7.5zm0 0" fill="#c2c7d0"/><path d="m202.78125 497h-154.863281c-6.894531 0-12.5-5.605469-12.5-12.5v-78.171875c0-4.140625-3.359375-7.5-7.5-7.5s-7.5 3.359375-7.5 7.5v78.171875c0 15.164062 12.335937 27.5 27.5 27.5h154.863281c4.140625 0 7.5-3.355469 7.5-7.5s-3.359375-7.5-7.5-7.5zm0 0" fill="#474d54"/><path d="m399.117188 175.371094-60.117188-60.117188v-23.253906c0-9.648438-7.851562-17.5-17.5-17.5h-2.917969v-47c0-15.164062-12.335937-27.5-27.5-27.5h-243.164062c-15.164063 0-27.5 12.335938-27.5 27.5v47h-2.917969c-9.648438 0-17.5 7.851562-17.5 17.5v79c0 9.648438 7.851562 17.5 17.5 17.5h2.917969v17h-2.917969c-9.648438 0-17.5 7.851562-17.5 17.5v19c0 9.648438 7.851562 17.5 17.5 17.5h2.917969v8h-2.917969c-9.648438 0-17.5 7.851562-17.5 17.5v19c0 9.648438 7.851562 17.5 17.5 17.5h2.917969v52.171875c0 4.140625 3.359375 7.5 7.5 7.5s7.5-3.359375 7.5-7.5v-346.171875c0-6.894531 5.605469-12.5 12.5-12.5h243.164062c6.890625 0 12.5 5.605469 12.5 12.5v70.253906c-1.363281.769532-2.640625 1.71875-3.777343 2.855469l-74.761719 74.761719c-4.984375 4.984375-6.460938 12.410156-3.761719 18.921875 2.695312 6.507812 8.992188 10.714843 16.039062 10.714843h9.707032v18.664063c0 4.140625 3.359375 7.5 7.5 7.5 4.144531 0 7.5-3.359375 7.5-7.5v-26.164063c0-4.140624-3.355469-7.5-7.5-7.5h-17.207032c-1.304687 0-1.90625-.792968-2.183593-1.457031-.273438-.664062-.410157-1.652343.511719-2.574219l74.761718-74.757812c.601563-.605469 1.304688-.695312 1.671875-.695312.363281 0 1.066407.089843 1.667969.695312l74.761719 74.757812c.921875.921876.789062 1.910157.511719 2.574219-.277344.664063-.875 1.457031-2.179688 1.457031h-17.210938c-4.140624 0-7.5 3.359376-7.5 7.5v99.851563c0 1.304687-1.058593 2.363281-2.359374 2.363281h-95.386719c-1.300781 0-2.359375-1.0625-2.359375-2.363281v-41.027344c0-4.144531-3.359375-7.5-7.5-7.5s-7.5 3.355469-7.5 7.5v41.027344c0 9.574219 7.789062 17.363281 17.359375 17.363281h39.191406v7.082032h-39.050781c-9.648438 0-17.5 7.851562-17.5 17.5v22.355468c0 9.648438 7.851562 17.5 17.5 17.5h39.050781v5.617188h-39.050781c-9.648438 0-17.5 7.851562-17.5 17.5v8.355468c0 9.648438 7.851562 17.5 17.5 17.5h39.050781v56.367188c0 6.894531-5.605469 12.5-12.5 12.5h-55.636719c-4.140625 0-7.5 3.355469-7.5 7.5s3.359375 7.5 7.5 7.5h55.636719c15.164063 0 27.5-12.335938 27.5-27.5v-56.367188h41.054687c9.648438 0 17.5-7.851562 17.5-17.5v-8.351562c0-9.648438-7.851562-17.5-17.5-17.5h-41.054687v-5.621094h41.054687c9.648438 0 17.5-7.851562 17.5-17.5v-22.351562c0-9.652344-7.851562-17.5-17.5-17.5h-41.054687v-7.085938h41.195313c9.574218 0 17.359374-7.789062 17.359374-17.359375v-92.351562h9.710938c7.046875 0 13.339844-4.207031 16.039062-10.71875 2.695313-6.511719 1.21875-13.9375-3.765624-18.921875zm-378.699219 131.128906h-2.917969c-1.378906 0-2.5-1.121094-2.5-2.5v-19c0-1.378906 1.121094-2.5 2.5-2.5h2.917969zm0-62h-2.917969c-1.378906 0-2.5-1.121094-2.5-2.5v-19c0-1.378906 1.121094-2.5 2.5-2.5h2.917969zm0-71h-2.917969c-1.378906 0-2.5-1.121094-2.5-2.5v-79c0-1.378906 1.121094-2.5 2.5-2.5h2.917969zm303.582031-73.214844c-1.601562-1.515625-3.429688-2.699218-5.417969-3.5v-7.285156h2.917969c1.378906 0 2.5 1.121094 2.5 2.5zm35.636719 299.492188c1.375 0 2.5 1.121094 2.5 2.5v8.355468c0 1.378907-1.125 2.5-2.5 2.5h-95.109375c-1.378906 0-2.5-1.121093-2.5-2.5v-8.355468c0-1.378906 1.121094-2.5 2.5-2.5zm0-62.972656c1.375 0 2.5 1.121093 2.5 2.5v22.355468c0 1.378906-1.125 2.5-2.5 2.5h-95.109375c-1.378906 0-2.5-1.121094-2.5-2.5v-22.355468c0-1.378907 1.121094-2.5 2.5-2.5zm0 0" fill="#474d54"/></svg>