<svg height="512pt" viewBox="0 -23 512.00063 512" width="512pt" xmlns="http://www.w3.org/2000/svg"><path d="m186.339844 206.832031c-10.71875.542969-21.273438 4.902344-29.4375 13.066407l-113.5 113.5c-17.519532 17.519531-17.519532 46.035156 0 63.554687l48.882812 48.882813c17.523438 17.523437 46.035156 17.523437 63.554688 0l113.5-113.496094c17.523437-17.523438 17.523437-46.039063 0-63.558594l-48.882813-48.882812c-9.355469-9.359376-21.84375-13.710938-34.117187-13.066407zm57.75 87.203125c3.597656 3.59375 3.597656 9.457032 0 13.050782l-113.5 113.5c-3.597656 3.597656-9.449219 3.589843-13.046875-.007813l-48.882813-48.882813c-3.59375-3.597656-3.601562-9.449218-.007812-13.046874l113.5-113.5c1.195312-1.195313 2.652344-1.996094 4.1875-2.398438 3.074218-.789062 6.472656.007812 8.867187 2.398438zm0 0" fill="#76ffd9"/><path d="m220.457031 219.898438 48.882813 48.882812c17.523437 17.523438 17.523437 46.035156 0 63.558594l-83 83v-50.503906l57.75-57.75c3.597656-3.59375 3.597656-9.457032 0-13.050782l-48.882813-48.886718c-2.390625-2.390626-5.792969-3.1875-8.867187-2.398438v-35.917969c12.273437-.644531 24.761718 3.707031 34.117187 13.066407zm0 0" fill="#5de0bf"/><path d="m363.269531 14.851562c-2.515625 1.652344-4.902343 3.582032-7.113281 5.792969l-113.496094 113.496094c-17.523437 17.523437-17.523437 46.039063 0 63.558594l48.882813 48.882812c17.519531 17.519531 46.035156 17.519531 63.554687 0l113.5-113.5c17.519532-17.519531 17.519532-46.035156 0-63.554687l-48.882812-48.882813c-15.308594-15.3125-39.015625-17.242187-56.445313-5.792969zm80.066407 79.933594c3.597656 3.597656 3.605468 9.449219.011718 13.046875l-113.5 113.5c-3.597656 3.59375-9.457031 3.59375-13.054687 0l-48.882813-48.882812c-3.597656-3.597657-3.597656-9.457031 0-13.054688l113.5-113.5c3.597656-3.597656 9.449219-3.589843 13.046875.007813zm0 0" fill="#ffc843"/><path d="m419.714844 20.644531 48.882812 48.882813c17.519532 17.519531 17.519532 46.035156 0 63.554687l-105.324218 105.324219v-50.503906l80.070312-80.070313c3.597656-3.597656 3.589844-9.449219-.007812-13.046875l-48.882813-48.882812c-3.597656-3.597656-9.449219-3.605469-13.046875-.007813l-18.140625 18.140625v-49.183594c17.433594-11.449218 41.140625-9.519531 56.449219 5.792969zm0 0" fill="#eaa62f"/><path d="m207.289062 281.949219c6.976563 6.972656 18.285157 6.972656 25.257813 0l72.164063-72.160157c6.972656-6.976562 6.972656-18.285156 0-25.257812-6.976563-6.976562-18.28125-6.976562-25.257813 0l-72.164063 72.160156c-6.972656 6.976563-6.972656 18.285156 0 25.257813zm0 0" fill="#fff"/><path d="m473.902344 64.222656-48.882813-48.882812c-9.894531-9.890625-23.0625-15.339844-37.085937-15.339844-14.023438 0-27.191406 5.449219-37.085938 15.339844l-113.496094 113.496094c-20.445312 20.449218-20.445312 53.722656 0 74.171874l6.511719 6.507813-11.589843 11.585937-6.507813-6.507812c-20.449219-20.449219-53.71875-20.449219-74.167969 0l-21.769531 21.765625c-2.929687 2.929687-2.929687 7.679687 0 10.609375 1.464844 1.460938 3.386719 2.195312 5.304687 2.195312 1.917969 0 3.839844-.734374 5.304688-2.195312l21.765625-21.769531c14.601563-14.601563 38.355469-14.597657 52.957031 0l6.507813 6.507812-13.929688 13.933594c-.480469.480469-.9375.976563-1.375 1.492187l-6.058593 7.171876c-3.804688 4.503906-5.960938 10.25-5.703126 16.140624.265626 6.113282 2.726563 12.148438 7.386719 16.808594 4.945313 4.941406 11.4375 7.414063 17.929688 7.414063h.121093c5.25-.011719 10.332032-1.875 14.34375-5.265625l7.726563-6.527344c.515625-.433594 1.015625-.894531 1.492187-1.371094l13.929688-13.929687 6.511719 6.507812c14.601562 14.601563 14.601562 38.355469 0 52.953125l-113.5 113.5c-14.601563 14.601563-38.355469 14.597656-52.953125 0l-48.882813-48.886718c-7.058593-7.058594-10.949219-16.460938-10.949219-26.476563s3.890626-19.417969 10.949219-26.476563l68.632813-68.636718c2.929687-2.929688 2.929687-7.675782 0-10.605469-2.929688-2.929687-7.675782-2.929687-10.605469 0l-68.632813 68.636719c-9.894531 9.890625-15.34375 23.0625-15.34375 37.085937 0 14.019531 5.449219 27.191407 15.34375 37.082031l48.878907 48.882813c10.226562 10.226563 23.65625 15.335937 37.085937 15.335937 13.429688 0 26.859375-5.109374 37.085938-15.335937l113.496094-113.496094c9.890624-9.894531 15.339843-23.0625 15.339843-37.085937 0-14.019532-5.449219-27.191406-15.339843-37.082032l-6.507813-6.511718 11.585937-11.585938 6.507813 6.507813c9.894531 9.894531 23.0625 15.339843 37.085937 15.339843 14.019532 0 27.191407-5.445312 37.082032-15.335937l22.078125-22.078125c2.925781-2.929688 2.925781-7.675781 0-10.605469-2.933594-2.925781-7.679688-2.925781-10.609375 0l-22.074219 22.074219c-14.621094 14.625-38.332031 14.625-52.957031 0l-6.507813-6.507812 13.898438-13.898438c.5-.5.980469-1.023438 1.441406-1.566406l5.339844-6.324219c7.988281-9.457031 8.226562-23.523437-.039063-32.742187-.308594-.34375-.628906-.683594-.957031-1.015626-.332031-.328124-.671875-.648437-1.015625-.957031-9.21875-8.265625-23.285156-8.027343-32.742188-.039062l-6.324218 5.339843c-.542969.460938-1.066406.941407-1.566406 1.441407l-13.898438 13.898437-6.507812-6.511718c-14.601563-14.597657-14.601563-38.355469 0-52.953126l113.496093-113.496093c7.058594-7.0625 16.460938-10.949219 26.476563-10.949219s19.417968 3.886719 26.476562 10.949219l48.882813 48.878906c14.601562 14.601563 14.601562 38.355469 0 52.957031l-68.328125 68.324219c-2.925782 2.933594-2.925782 7.679687 0 10.609375 2.933594 2.925781 7.679687 2.925781 10.609375 0l68.328125-68.328125c20.445312-20.449219 20.445312-53.71875 0-74.167969zm-189.148438 125.613282c2.023438-2.019532 4.675782-3.03125 7.328125-3.03125 2.882813 0 5.765625 1.195312 7.835938 3.582031 3.597656 4.144531 3.136719 10.449219-.746094 14.332031l-71.929687 71.929688c-4.203126 4.203124-11.152344 4.03125-15.132813-.519532-3.628906-4.148437-3.15625-10.492187.742187-14.386718zm0 0" fill="#474d54"/><path d="m492.789062 155.109375c-2.929687-2.929687-7.675781-2.929687-10.605468 0l-43.160156 43.160156c-2.929688 2.929688-2.929688 7.675781 0 10.605469 1.464843 1.464844 3.382812 2.195312 5.304687 2.195312 1.917969 0 3.835937-.730468 5.300781-2.195312l43.160156-43.160156c2.929688-2.929688 2.929688-7.675782 0-10.605469zm0 0" fill="#e37f31"/><path d="m509.804688 172.121094c-2.929688-2.925782-7.679688-2.925782-10.609376 0l-11.304687 11.308594c-2.929687 2.929687-2.929687 7.679687 0 10.609374 1.464844 1.460938 3.382813 2.195313 5.300781 2.195313 1.921875 0 3.839844-.734375 5.304688-2.195313l11.308594-11.308593c2.929687-2.929688 2.929687-7.679688 0-10.609375zm0 0" fill="#e37f31"/><g fill="#6dc296"><path d="m29.816406 311.371094 43.160156-43.160156c2.929688-2.929688 2.929688-7.675782 0-10.605469-2.929687-2.929688-7.675781-2.929688-10.605468 0l-43.160156 43.160156c-2.929688 2.929687-2.929688 7.675781 0 10.605469 1.464843 1.464844 3.386718 2.195312 5.304687 2.195312s3.835937-.730468 5.300781-2.195312zm0 0"/><path d="m24.113281 272.441406c-2.929687-2.925781-7.679687-2.925781-10.609375 0l-11.308594 11.308594c-2.925781 2.929688-2.925781 7.679688 0 10.609375 1.464844 1.464844 3.386719 2.195313 5.304688 2.195313s3.839844-.730469 5.304688-2.195313l11.308593-11.308594c2.925781-2.929687 2.925781-7.675781 0-10.609375zm0 0"/></g></svg>