<svg height="512pt" viewBox="-86 0 512 512" width="512pt" xmlns="http://www.w3.org/2000/svg"><path d="m321.5 161h-13v-79h13c5.523438 0 10 4.476562 10 10v59c0 5.523438-4.476562 10-10 10zm0 0" fill="#fff"/><path d="m17.5 252h13v-39h-13c-5.523438 0-10 4.476562-10 10v19c0 5.523438 4.476562 10 10 10zm0 0" fill="#fff"/><path d="m17.5 181h13v-99h-13c-5.523438 0-10 4.476562-10 10v79c0 5.523438 4.476562 10 10 10zm0 0" fill="#fff"/><path d="m17.5 314h13v-39h-13c-5.523438 0-10 4.476562-10 10v19c0 5.523438 4.476562 10 10 10zm0 0" fill="#fff"/><path d="m27.917969 484.5v-457c0-11.046875 8.953125-20 20-20h243.164062c11.046875 0 20 8.953125 20 20v457c0 11.046875-8.953125 20-20 20h-243.164062c-11.046875 0-20-8.953125-20-20zm0 0" fill="#ffc843"/><path d="m311.078125 27.5v457c0 11.050781-8.949219 20-20 20h-19.578125c11.050781 0 20-8.949219 20-20v-457c0-11.050781-8.949219-20-20-20h19.578125c11.050781 0 20 8.949219 20 20zm0 0" fill="#e79732"/><path d="m27.921875 58h283.15625v396h-283.15625zm0 0" fill="#fff"/><path d="m291.5 58h19.582031v396h-19.582031zm0 0" fill="#d9dfe9"/><path d="m27.921875 351h283.15625v103h-283.15625zm0 0" fill="#fff"/><path d="m291.5 351h19.578125v103h-19.578125zm0 0" fill="#d9dfe9"/><path d="m27.921875 161h283.15625v190h-283.15625zm0 0" fill="#76ffd9"/><path d="m291.5 161h19.578125v190h-19.578125zm0 0" fill="#5de0bf"/><path d="m311.078125 274.398438v76.601562h-212.566406l126.117187-126.121094c3.410156-3.410156 8.761719-3.898437 12.730469-1.167968l54.140625 37.230468zm0 0" fill="#ffc843"/><path d="m311.078125 274.398438v76.601562h-19.578125v-90.058594zm0 0" fill="#e79732"/><path d="m190.949219 351h-163.027344v-45.5l62.792969-43.175781c3.972656-2.730469 9.328125-2.242188 12.738281 1.167969zm0 0" fill="#fff"/><path d="m82.171875 497h-34.253906c-6.894531 0-12.5-5.605469-12.5-12.5v-457c0-6.894531 5.605469-12.5 12.5-12.5h28.253906c4.140625 0 7.5-3.355469 7.5-7.5s-3.359375-7.5-7.5-7.5h-28.253906c-15.164063 0-27.5 12.335938-27.5 27.5v47h-2.917969c-9.648438 0-17.5 7.851562-17.5 17.5v79c0 9.648438 7.851562 17.5 17.5 17.5h2.917969v17h-2.917969c-9.648438 0-17.5 7.851562-17.5 17.5v19c0 9.648438 7.851562 17.5 17.5 17.5h2.917969v8h-2.917969c-9.648438 0-17.5 7.851562-17.5 17.5v19c0 9.648438 7.851562 17.5 17.5 17.5h2.917969v163c0 15.164062 12.335937 27.5 27.5 27.5h34.253906c4.140625 0 7.5-3.355469 7.5-7.5s-3.359375-7.5-7.5-7.5zm-61.753906-190.5h-2.917969c-1.378906 0-2.5-1.121094-2.5-2.5v-19c0-1.378906 1.121094-2.5 2.5-2.5h2.917969zm0-62h-2.917969c-1.378906 0-2.5-1.121094-2.5-2.5v-19c0-1.378906 1.121094-2.5 2.5-2.5h2.917969zm0-71h-2.917969c-1.378906 0-2.5-1.121094-2.5-2.5v-79c0-1.378906 1.121094-2.5 2.5-2.5h2.917969zm0 0" fill="#474d54"/><path d="m311.082031 320.828125c-4.144531 0-7.5 3.359375-7.5 7.5v156.171875c0 6.894531-5.605469 12.5-12.5 12.5h-176.253906c-4.140625 0-7.5 3.355469-7.5 7.5s3.359375 7.5 7.5 7.5h176.253906c15.164063 0 27.5-12.335938 27.5-27.5v-156.171875c0-4.140625-3.355469-7.5-7.5-7.5zm0 0" fill="#474d54"/><path d="m321.5 74.5h-2.917969v-47c0-15.164062-12.335937-27.5-27.5-27.5h-182.253906c-4.140625 0-7.5 3.355469-7.5 7.5s3.359375 7.5 7.5 7.5h182.253906c6.894531 0 12.5 5.605469 12.5 12.5v268.171875c0 4.140625 3.355469 7.5 7.5 7.5s7.5-3.359375 7.5-7.5v-127.171875h2.917969c9.648438 0 17.5-7.851562 17.5-17.5v-59c0-9.648438-7.851562-17.5-17.5-17.5zm2.5 76.5c0 1.378906-1.121094 2.5-2.5 2.5h-2.917969v-64h2.917969c1.378906 0 2.5 1.121094 2.5 2.5zm0 0" fill="#474d54"/><path d="m189.082031 41.832031c4.144531 0 7.5-3.355469 7.5-7.5 0-4.140625-3.355469-7.5-7.5-7.5h-39.164062c-4.144531 0-7.5 3.359375-7.5 7.5 0 4.144531 3.355469 7.5 7.5 7.5zm0 0" fill="#fff"/><path d="m149.625 110.828125h39.75c4.140625 0 7.5-3.355469 7.5-7.5s-3.359375-7.5-7.5-7.5h-39.75c-4.140625 0-7.5 3.355469-7.5 7.5s3.359375 7.5 7.5 7.5zm0 0" fill="#c2c7d0"/><path d="m174.375 116.171875h-9.75c-4.140625 0-7.5 3.355469-7.5 7.5s3.359375 7.5 7.5 7.5h9.75c4.140625 0 7.5-3.355469 7.5-7.5s-3.359375-7.5-7.5-7.5zm0 0" fill="#c2c7d0"/><path d="m141.625 185.710938h-79.792969c-4.140625 0-7.5 3.355468-7.5 7.5 0 4.144531 3.359375 7.5 7.5 7.5h79.792969c4.144531 0 7.5-3.355469 7.5-7.5 0-4.144532-3.355469-7.5-7.5-7.5zm0 0" fill="#fff"/><path d="m115.167969 206.832031h-13.4375c-4.144531 0-7.5 3.359375-7.5 7.5 0 4.144531 3.355469 7.5 7.5 7.5h13.4375c4.140625 0 7.5-3.355469 7.5-7.5 0-4.140625-3.359375-7.5-7.5-7.5zm0 0" fill="#fff"/><path d="m179.832031 230.167969h-9.457031c-4.144531 0-7.5 3.355469-7.5 7.5 0 4.140625 3.355469 7.5 7.5 7.5h9.457031c4.144531 0 7.5-3.359375 7.5-7.5 0-4.144531-3.355469-7.5-7.5-7.5zm0 0" fill="#fff"/><g fill="#c2c7d0"><path d="m55.5 388.941406h6.332031c4.144531 0 7.5-3.355468 7.5-7.5 0-4.140625-3.355469-7.5-7.5-7.5h-6.332031c-4.144531 0-7.5 3.359375-7.5 7.5 0 4.144532 3.355469 7.5 7.5 7.5zm0 0"/><path d="m92.832031 373.941406h-6.332031c-4.144531 0-7.5 3.359375-7.5 7.5 0 4.144532 3.355469 7.5 7.5 7.5h6.332031c4.144531 0 7.5-3.355468 7.5-7.5 0-4.140625-3.355469-7.5-7.5-7.5zm0 0"/><path d="m117.5 388.941406h6.332031c4.144531 0 7.5-3.355468 7.5-7.5 0-4.140625-3.355469-7.5-7.5-7.5h-6.332031c-4.144531 0-7.5 3.359375-7.5 7.5 0 4.144532 3.355469 7.5 7.5 7.5zm0 0"/><path d="m172.5 405h-59c-4.144531 0-7.5 3.355469-7.5 7.5s3.355469 7.5 7.5 7.5h59c4.144531 0 7.5-3.355469 7.5-7.5s-3.355469-7.5-7.5-7.5zm0 0"/><path d="m92.832031 405h-37.332031c-4.144531 0-7.5 3.355469-7.5 7.5s3.355469 7.5 7.5 7.5h37.332031c4.144531 0 7.5-3.355469 7.5-7.5s-3.355469-7.5-7.5-7.5zm0 0"/></g></svg>