<svg height="512pt" viewBox="-86 0 512 512" width="512pt" xmlns="http://www.w3.org/2000/svg"><g fill="#fff"><path d="m321.5 161h-13v-79h13c5.523438 0 10 4.476562 10 10v59c0 5.523438-4.476562 10-10 10zm0 0"/><path d="m17.5 252h13v-39h-13c-5.523438 0-10 4.476562-10 10v19c0 5.523438 4.476562 10 10 10zm0 0"/><path d="m17.5 181h13v-99h-13c-5.523438 0-10 4.476562-10 10v79c0 5.523438 4.476562 10 10 10zm0 0"/><path d="m17.5 314h13v-39h-13c-5.523438 0-10 4.476562-10 10v19c0 5.523438 4.476562 10 10 10zm0 0"/></g><path d="m27.917969 484.5v-457c0-11.046875 8.953125-20 20-20h243.164062c11.046875 0 20 8.953125 20 20v457c0 11.046875-8.953125 20-20 20h-243.164062c-11.046875 0-20-8.953125-20-20zm0 0" fill="#ffc843"/><path d="m311.078125 27.5v457c0 11.050781-8.949219 20-20 20h-19.578125c11.050781 0 20-8.949219 20-20v-457c0-11.050781-8.949219-20-20-20h19.578125c11.050781 0 20 8.949219 20 20zm0 0" fill="#e79732"/><path d="m27.917969 58h283.164062v396h-283.164062zm0 0" fill="#fff"/><path d="m106.363281 369.726562h126.273438v84.273438h-126.273438zm0 0" fill="#76ffd9"/><path d="m169.5 369.726562h63.136719v84.273438h-63.136719zm0 0" fill="#5de0bf"/><path d="m291.5 58h19.582031v396h-19.582031zm0 0" fill="#d9dfe9"/><path d="m56.234375 162.304688c-15.636719 0-28.316406-12.679688-28.316406-28.316407v-75.988281h56.632812v75.988281c0 15.636719-12.679687 28.316407-28.316406 28.316407zm0 0" fill="#76ffd9"/><path d="m112.867188 162.304688c-15.640626 0-28.316407-12.679688-28.316407-28.316407v-75.988281h56.632813v75.988281c0 15.636719-12.675782 28.316407-28.316406 28.316407zm0 0" fill="#5de0bf"/><path d="m169.5 162.304688c-15.640625 0-28.316406-12.679688-28.316406-28.316407v-75.988281h56.632812v75.988281c0 15.636719-12.675781 28.316407-28.316406 28.316407zm0 0" fill="#76ffd9"/><path d="m226.132812 162.304688c-15.640624 0-28.316406-12.679688-28.316406-28.316407v-75.988281h56.632813v75.988281c0 15.636719-12.679688 28.316407-28.316407 28.316407zm0 0" fill="#5de0bf"/><path d="m282.765625 162.304688c-15.640625 0-28.316406-12.679688-28.316406-28.316407v-75.988281h56.632812v75.988281c0 15.636719-12.679687 28.316407-28.316406 28.316407zm0 0" fill="#76ffd9"/><path d="m311.082031 227.355469c-4.140625 0-7.5 3.355469-7.5 7.5v249.644531c0 6.894531-5.605469 12.5-12.5 12.5h-36.25c-4.144531 0-7.5 3.355469-7.5 7.5s3.355469 7.5 7.5 7.5h36.25c15.164063 0 27.5-12.335938 27.5-27.5v-249.644531c0-4.140625-3.359375-7.5-7.5-7.5zm0 0" fill="#474d54"/><path d="m321.5 74.5h-2.917969v-47c0-15.164062-12.335937-27.5-27.5-27.5h-243.164062c-15.164063 0-27.5 12.335938-27.5 27.5v47h-2.917969c-9.648438 0-17.5 7.851562-17.5 17.5v79c0 9.648438 7.851562 17.5 17.5 17.5h2.917969v17h-2.917969c-9.648438 0-17.5 7.851562-17.5 17.5v19c0 9.648438 7.851562 17.5 17.5 17.5h2.917969v8h-2.917969c-9.648438 0-17.5 7.851562-17.5 17.5v19c0 9.648438 7.851562 17.5 17.5 17.5h2.917969v163c0 15.164062 12.335937 27.5 27.5 27.5h106.253906c4.140625 0 7.5-3.355469 7.5-7.5s-3.359375-7.5-7.5-7.5h-106.253906c-6.894531 0-12.5-5.605469-12.5-12.5v-457c0-6.894531 5.605469-12.5 12.5-12.5h243.164062c6.890625 0 12.5 5.605469 12.5 12.5v174.695312c0 4.144532 3.355469 7.5 7.5 7.5 4.140625 0 7.5-3.355468 7.5-7.5v-33.695312h2.917969c9.648438 0 17.5-7.851562 17.5-17.5v-59c0-9.648438-7.851562-17.5-17.5-17.5zm-301.082031 232h-2.917969c-1.378906 0-2.5-1.121094-2.5-2.5v-19c0-1.378906 1.121094-2.5 2.5-2.5h2.917969zm0-62h-2.917969c-1.378906 0-2.5-1.121094-2.5-2.5v-19c0-1.378906 1.121094-2.5 2.5-2.5h2.917969zm0-71h-2.917969c-1.378906 0-2.5-1.121094-2.5-2.5v-79c0-1.378906 1.121094-2.5 2.5-2.5h2.917969zm303.582031-22.5c0 1.378906-1.121094 2.5-2.5 2.5h-2.917969v-64h2.917969c1.378906 0 2.5 1.121094 2.5 2.5zm0 0" fill="#474d54"/><path d="m222.171875 497h-35.339844c-4.144531 0-7.5 3.355469-7.5 7.5s3.355469 7.5 7.5 7.5h35.339844c4.140625 0 7.5-3.355469 7.5-7.5s-3.359375-7.5-7.5-7.5zm0 0" fill="#474d54"/><path d="m149.917969 41.835938h39.164062c4.140625 0 7.5-3.359376 7.5-7.5 0-4.144532-3.359375-7.5-7.5-7.5h-39.164062c-4.140625 0-7.5 3.355468-7.5 7.5 0 4.140624 3.359375 7.5 7.5 7.5zm0 0" fill="#fff"/><path d="m129.355469 283.726562h84.097656c2.898437 0 5.539063-1.671874 6.777344-4.292968l27.050781-57.1875c1.097656-2.320313.929688-5.046875-.445312-7.21875s-3.765626-3.488282-6.335938-3.488282h-110.832031v-11.25c0-6.894531-5.609375-12.5-12.5-12.5h-18.667969c-4.140625 0-7.5 3.355469-7.5 7.5 0 4.140626 3.359375 7.5 7.5 7.5h16.167969v77.398438c0 1.722656-.671875 3.34375-1.890625 4.558594l-10.378906 10.378906c-3.585938 3.589844-4.652344 8.9375-2.707032 13.621094 1.929688 4.667968 6.4375 7.691406 11.484375 7.714844-.8125 2.3125-1.253906 4.792968-1.253906 7.378906 0 12.335937 10.035156 22.371094 22.371094 22.371094 12.335937 0 22.375-10.035157 22.375-22.371094 0-2.585938-.445313-5.066406-1.253907-7.375h29.007813c-.582031 1.667968-.988281 3.40625-1.164063 5.207031-1.195312 12.277344 7.824219 23.238281 20.101563 24.433594.734375.074219 1.457031.105469 2.179687.105469 11.371094 0 21.132813-8.664063 22.253907-20.207032.320312-3.285156-.101563-6.519531-1.160157-9.539062h8.429688c4.140625 0 7.5-3.359375 7.5-7.5 0-4.144532-3.359375-7.5-7.5-7.5h-115.789062l6.109374-6.109375c3.207032-3.203125 5.25-7.246094 5.972657-11.628907zm.3125-28.59375h11.707031v13.59375h-11.707031zm72.554687-28.59375-4.199218 13.59375h-13.363282l.96875-13.59375zm-19.597656 42.1875.96875-13.59375h9.800781l-4.195312 13.59375zm-13.003906-28.59375h-13.246094v-13.59375h14.21875zm-1.066406 15-.96875 13.59375h-11.210938v-13.59375zm40.148437 13.59375h-3.804687l4.195312-13.59375h6.039062zm13.523437-28.59375h-8.503906l4.199219-13.59375h10.734375zm-80.851562-13.59375v13.59375h-11.707031v-13.59375zm-1.707031 97.300782c0 4.0625-3.308594 7.371094-7.375 7.371094-4.066407 0-7.371094-3.308594-7.371094-7.371094 0-4.066406 3.304687-7.375 7.371094-7.375 4.066406 0 7.375 3.308594 7.375 7.375zm64.570312-7.339844c1.960938.191406 3.730469 1.132812 4.980469 2.652344 1.25 1.523437 1.835938 3.4375 1.644531 5.398437-.394531 4.046875-4.007812 7.015625-8.050781 6.625-1.960938-.1875-3.730469-1.132812-4.980469-2.652343-1.253906-1.519532-1.835937-3.4375-1.644531-5.398438.1875-1.960938 1.132812-3.730469 2.652344-4.980469 1.332031-1.09375 2.96875-1.679687 4.671875-1.679687.242187 0 .484375.011718.726562.035156zm0 0" fill="#c2c7d0"/></svg>