<svg height="512pt" viewBox="0 -70 512 512" width="512pt" xmlns="http://www.w3.org/2000/svg"><path d="m39.710938 364.972656c-17.789063 0-32.210938-14.421875-32.210938-32.210937v-240.460938c0-5.523437 4.476562-10 10-10h54.421875v250.460938c0 17.792969-14.421875 32.210937-32.210937 32.210937zm0 0" fill="#fff"/><path d="m71.921875 82.304688v250.460937c0 17.789063-14.421875 32.207031-32.210937 32.207031-3.121094 0-6.140626-.449218-9-1.269531 13.410156-3.898437 23.210937-16.269531 23.210937-30.9375v-250.460937zm0 0" fill="#d9dfe9"/><path d="m504.5 17.5v315.261719c0 17.792969-14.421875 32.214843-32.214844 32.214843h-432.539062c17.78125-.023437 32.183594-14.433593 32.183594-32.214843v-315.261719c0-5.523438 4.476562-10 10-10h412.570312c5.523438 0 10 4.476562 10 10zm0 0" fill="#fff"/><path d="m504.5 17.503906v315.261719c0 17.789063-14.421875 32.207031-32.210938 32.207031h-26.367187c17.789063 0 32.21875-14.417968 32.21875-32.207031v-315.261719c0-5.53125-4.480469-10-10-10h26.359375c5.519531 0 10 4.46875 10 10zm0 0" fill="#d9dfe9"/><path d="m298.851562 63.417969v101.957031c0 5.523438-4.476562 10-10 10h-161.753906c-5.523437 0-10-4.476562-10-10v-101.957031c0-5.523438 4.476563-10 10-10h161.753906c5.523438 0 10 4.476562 10 10zm0 0" fill="#76ffd9"/><path d="m298.851562 126.207031v39.167969c0 5.523438-4.476562 10-10 10h-126.441406l80.953125-80.953125c2.1875-2.1875 5.621094-2.503906 8.171875-.75l34.75 23.894531zm0 0" fill="#ffc843"/><path d="m221.742188 175.375h-94.644532c-5.523437 0-10-4.476562-10-10v-19.207031l40.308594-27.714844c2.550781-1.75 5.988281-1.4375 8.175781.753906zm0 0" fill="#fff"/><path d="m454.105469 92.542969h-107.492188c-5.523437 0-10-4.476563-10-10v-19.125c0-5.523438 4.476563-10 10-10h107.492188c5.523437 0 10 4.476562 10 10v19.125c0 5.523437-4.476563 10-10 10zm0 0" fill="#ffc843"/><path d="m454.105469 175.375h-107.492188c-5.523437 0-10-4.476562-10-10v-40.976562c0-5.523438 4.476563-10 10-10h107.492188c5.523437 0 10 4.476562 10 10v40.976562c0 5.523438-4.476563 10-10 10zm0 0" fill="#ffc843"/><path d="m494.5 0h-277.167969c-4.144531 0-7.5 3.355469-7.5 7.5s3.355469 7.5 7.5 7.5h277.167969c1.378906 0 2.5 1.121094 2.5 2.5v315.261719c0 13.628906-11.085938 24.714843-24.714844 24.714843h-60.957031c-4.140625 0-7.5 3.359376-7.5 7.5 0 4.144532 3.359375 7.5 7.5 7.5h60.957031c21.898438 0 39.714844-17.816406 39.714844-39.714843v-315.261719c0-9.648438-7.851562-17.5-17.5-17.5zm0 0" fill="#474d54"/><path d="m378.667969 357.476562h-307.894531c5.414062-6.789062 8.65625-15.382812 8.65625-24.714843v-123.667969c0-4.144531-3.359376-7.5-7.5-7.5-4.144532 0-7.5 3.355469-7.5 7.5v123.667969c0 13.601562-11.0625 24.679687-24.660157 24.714843-.019531 0-.039062-.003906-.058593-.003906-13.625 0-24.710938-11.082031-24.710938-24.710937v-240.460938c0-1.378906 1.121094-2.5 2.5-2.5h46.929688v86.632813c0 4.144531 3.355468 7.5 7.5 7.5 4.140624 0 7.5-3.355469 7.5-7.5v-158.933594c0-1.378906 1.121093-2.5 2.5-2.5h102.742187c4.140625 0 7.5-3.355469 7.5-7.5s-3.359375-7.5-7.5-7.5h-102.742187c-9.648438 0-17.5 7.851562-17.5 17.5v57.300781h-46.929688c-9.648438 0-17.5 7.851563-17.5 17.5v240.460938c0 21.871093 17.769531 39.664062 39.628906 39.710937.042969 0 339.042969.003906 339.042969.003906 4.140625 0 7.5-3.355468 7.5-7.5 0-4.140624-3.359375-7.5-7.503906-7.5zm0 0" fill="#474d54"/><g fill="#c2c7d0"><path d="m109.597656 223.289062c0 4.144532 3.359375 7.5 7.5 7.5h328.824219c4.140625 0 7.5-3.355468 7.5-7.5 0-4.140624-3.359375-7.5-7.5-7.5h-328.824219c-4.140625 0-7.5 3.359376-7.5 7.5zm0 0"/><path d="m445.921875 244.859375h-328.824219c-4.140625 0-7.5 3.359375-7.5 7.5 0 4.144531 3.359375 7.5 7.5 7.5h328.824219c4.140625 0 7.5-3.355469 7.5-7.5 0-4.140625-3.359375-7.5-7.5-7.5zm0 0"/><path d="m453.421875 281.429688c0-4.144532-3.359375-7.5-7.5-7.5h-328.824219c-4.140625 0-7.5 3.355468-7.5 7.5 0 4.144531 3.359375 7.5 7.5 7.5h328.824219c4.140625 0 7.5-3.359376 7.5-7.5zm0 0"/><path d="m387.609375 303h-21.371094c-4.140625 0-7.5 3.355469-7.5 7.5s3.359375 7.5 7.5 7.5h21.371094c4.144531 0 7.5-3.355469 7.5-7.5s-3.355469-7.5-7.5-7.5zm0 0"/><path d="m117.097656 303c-4.140625 0-7.5 3.355469-7.5 7.5s3.359375 7.5 7.5 7.5h219.515625c4.140625 0 7.5-3.355469 7.5-7.5s-3.359375-7.5-7.5-7.5zm0 0"/></g></svg>