<svg height="512pt" viewBox="0 -25 512 512" width="512pt" xmlns="http://www.w3.org/2000/svg"><path d="m504.5 40.335938v402.75c0 6.042968-4.890625 10.945312-10.945312 10.945312h-475.109376c-6.054687 0-10.945312-4.902344-10.945312-10.945312v-402.75c0-18.125 14.699219-32.835938 32.835938-32.835938h431.328124c18.136719 0 32.835938 14.710938 32.835938 32.835938zm0 0" fill="#fff"/><path d="m504.5 40.332031v402.757813c0 6.042968-4.890625 10.941406-10.949219 10.941406h-22c6.058594 0 10.949219-4.898438 10.949219-10.941406v-402.757813c0-18.121093-14.699219-32.832031-32.839844-32.832031h22c18.140625 0 32.839844 14.710938 32.839844 32.832031zm0 0" fill="#d9dfe9"/><path d="m504.5 40.332031v91.578125h-497v-91.578125c0-18.121093 14.699219-32.832031 32.839844-32.832031h431.320312c18.140625 0 32.839844 14.710938 32.839844 32.832031zm0 0" fill="#ffc843"/><path d="m504.5 40.332031v91.578125h-22v-91.578125c0-18.121093-14.699219-32.832031-32.839844-32.832031h22c18.140625 0 32.839844 14.710938 32.839844 32.832031zm0 0" fill="#e79732"/><path d="m237.066406 291.519531c0 48.5625-39.367187 87.933594-87.933594 87.933594-48.5625 0-87.933593-39.371094-87.933593-87.933594 0-48.566406 39.371093-87.933593 87.933593-87.933593 48.566407 0 87.933594 39.367187 87.933594 87.933593zm0 0" fill="#76ffd9"/><path d="m161.96875 332.40625c4.140625 0 7.5-3.355469 7.5-7.5 0-4.140625-3.359375-7.5-7.5-7.5h-5.042969v-59.277344c0-2.621094-1.371093-5.054687-3.613281-6.414062s-5.03125-1.449219-7.355469-.234375l-13.128906 6.851562c-3.671875 1.914063-5.09375 6.445313-3.179687 10.117188 1.917968 3.671875 6.449218 5.097656 10.121093 3.179687l2.15625-1.125v46.90625h-5.042969c-4.140624 0-7.5 3.355469-7.5 7.5 0 4.140625 3.359376 7.5 7.5 7.5h25.085938zm0 0" fill="#fff"/><g fill="#c2c7d0"><path d="m292.824219 218.046875h10.046875c4.140625 0 7.5-3.359375 7.5-7.5 0-4.144531-3.359375-7.5-7.5-7.5h-10.046875c-4.140625 0-7.5 3.355469-7.5 7.5 0 4.140625 3.359375 7.5 7.5 7.5zm0 0"/><path d="m342.136719 218.046875h10.042969c4.144531 0 7.5-3.359375 7.5-7.5 0-4.144531-3.355469-7.5-7.5-7.5h-10.042969c-4.144531 0-7.5 3.355469-7.5 7.5 0 4.140625 3.355469 7.5 7.5 7.5zm0 0"/><path d="m391.445312 218.046875h10.042969c4.144531 0 7.5-3.359375 7.5-7.5 0-4.144531-3.355469-7.5-7.5-7.5h-10.042969c-4.144531 0-7.5 3.355469-7.5 7.5 0 4.140625 3.359376 7.5 7.5 7.5zm0 0"/><path d="m440.757812 218.046875h10.042969c4.144531 0 7.5-3.359375 7.5-7.5 0-4.144531-3.355469-7.5-7.5-7.5h-10.042969c-4.144531 0-7.5 3.355469-7.5 7.5 0 4.140625 3.355469 7.5 7.5 7.5zm0 0"/><path d="m292.824219 256.71875h10.046875c4.140625 0 7.5-3.359375 7.5-7.5 0-4.144531-3.359375-7.5-7.5-7.5h-10.046875c-4.140625 0-7.5 3.355469-7.5 7.5 0 4.140625 3.359375 7.5 7.5 7.5zm0 0"/><path d="m342.136719 256.71875h10.042969c4.144531 0 7.5-3.359375 7.5-7.5 0-4.144531-3.355469-7.5-7.5-7.5h-10.042969c-4.144531 0-7.5 3.355469-7.5 7.5 0 4.140625 3.355469 7.5 7.5 7.5zm0 0"/><path d="m391.445312 256.71875h10.042969c4.144531 0 7.5-3.359375 7.5-7.5 0-4.144531-3.355469-7.5-7.5-7.5h-10.042969c-4.144531 0-7.5 3.355469-7.5 7.5 0 4.140625 3.359376 7.5 7.5 7.5zm0 0"/><path d="m440.757812 256.71875h10.042969c4.144531 0 7.5-3.359375 7.5-7.5 0-4.144531-3.355469-7.5-7.5-7.5h-10.042969c-4.144531 0-7.5 3.355469-7.5 7.5 0 4.140625 3.355469 7.5 7.5 7.5zm0 0"/><path d="m292.824219 295.390625h10.046875c4.140625 0 7.5-3.355469 7.5-7.5s-3.359375-7.5-7.5-7.5h-10.046875c-4.140625 0-7.5 3.355469-7.5 7.5s3.359375 7.5 7.5 7.5zm0 0"/><path d="m342.136719 295.390625h10.042969c4.144531 0 7.5-3.355469 7.5-7.5s-3.355469-7.5-7.5-7.5h-10.042969c-4.144531 0-7.5 3.355469-7.5 7.5s3.355469 7.5 7.5 7.5zm0 0"/><path d="m391.445312 295.390625h10.042969c4.144531 0 7.5-3.355469 7.5-7.5s-3.355469-7.5-7.5-7.5h-10.042969c-4.144531 0-7.5 3.355469-7.5 7.5s3.359376 7.5 7.5 7.5zm0 0"/><path d="m440.757812 295.390625h10.042969c4.144531 0 7.5-3.355469 7.5-7.5s-3.355469-7.5-7.5-7.5h-10.042969c-4.144531 0-7.5 3.355469-7.5 7.5s3.355469 7.5 7.5 7.5zm0 0"/><path d="m292.824219 334.066406h10.046875c4.140625 0 7.5-3.359375 7.5-7.5 0-4.144531-3.359375-7.5-7.5-7.5h-10.046875c-4.140625 0-7.5 3.355469-7.5 7.5 0 4.140625 3.359375 7.5 7.5 7.5zm0 0"/><path d="m342.136719 334.066406h10.042969c4.144531 0 7.5-3.359375 7.5-7.5 0-4.144531-3.355469-7.5-7.5-7.5h-10.042969c-4.144531 0-7.5 3.355469-7.5 7.5 0 4.140625 3.355469 7.5 7.5 7.5zm0 0"/><path d="m391.445312 334.066406h10.042969c4.144531 0 7.5-3.359375 7.5-7.5 0-4.144531-3.355469-7.5-7.5-7.5h-10.042969c-4.144531 0-7.5 3.355469-7.5 7.5 0 4.140625 3.359376 7.5 7.5 7.5zm0 0"/><path d="m440.757812 334.066406h10.042969c4.144531 0 7.5-3.359375 7.5-7.5 0-4.144531-3.355469-7.5-7.5-7.5h-10.042969c-4.144531 0-7.5 3.355469-7.5 7.5 0 4.140625 3.355469 7.5 7.5 7.5zm0 0"/><path d="m292.824219 372.738281h10.046875c4.140625 0 7.5-3.355469 7.5-7.5s-3.359375-7.5-7.5-7.5h-10.046875c-4.140625 0-7.5 3.355469-7.5 7.5s3.359375 7.5 7.5 7.5zm0 0"/><path d="m342.136719 372.738281h10.042969c4.144531 0 7.5-3.355469 7.5-7.5s-3.355469-7.5-7.5-7.5h-10.042969c-4.144531 0-7.5 3.355469-7.5 7.5s3.355469 7.5 7.5 7.5zm0 0"/><path d="m391.445312 372.738281h10.042969c4.144531 0 7.5-3.355469 7.5-7.5s-3.355469-7.5-7.5-7.5h-10.042969c-4.144531 0-7.5 3.355469-7.5 7.5s3.359376 7.5 7.5 7.5zm0 0"/><path d="m440.757812 372.738281h10.042969c4.144531 0 7.5-3.355469 7.5-7.5s-3.355469-7.5-7.5-7.5h-10.042969c-4.144531 0-7.5 3.355469-7.5 7.5s3.355469 7.5 7.5 7.5zm0 0"/></g><path d="m208.3125 98.445312c10.980469 0 19.914062-8.929687 19.914062-19.910156v-17.652344c0-10.980468-8.933593-19.914062-19.914062-19.914062h-9.863281c-10.976563 0-19.910157 8.933594-19.910157 19.914062v17.652344c0 10.976563 8.929688 19.910156 19.910157 19.910156zm-14.773438-19.910156v-17.652344c0-2.710937 2.203126-4.914062 4.910157-4.914062h9.867187c2.707032 0 4.910156 2.203125 4.910156 4.914062v17.652344c0 2.707032-2.203124 4.910156-4.910156 4.910156h-9.867187c-2.707031 0-4.910157-2.203124-4.910157-4.910156zm0 0" fill="#fff"/><path d="m254.25 55.96875h9.863281c2.199219 0 4.144531 1.484375 4.726563 3.609375 1.097656 3.992187 5.222656 6.347656 9.21875 5.242187 3.996094-1.097656 6.34375-5.226562 5.246094-9.21875-2.371094-8.617187-10.261719-14.632812-19.191407-14.632812h-9.859375c-10.980468 0-19.914062 8.933594-19.914062 19.910156v17.652344c0 10.980469 8.933594 19.914062 19.914062 19.914062h9.859375c7.628907 0 14.683594-4.460937 17.972657-11.359374 1.78125-3.742188.195312-8.21875-3.546876-10-3.734374-1.78125-8.214843-.195313-9.996093 3.546874-.824219 1.734376-2.523438 2.8125-4.429688 2.8125h-9.859375c-2.710937 0-4.914062-2.203124-4.914062-4.914062v-17.648438c0-2.710937 2.203125-4.914062 4.910156-4.914062zm0 0" fill="#fff"/><path d="m310.085938 98.445312c4.140624 0 7.5-3.355468 7.5-7.5v-34.976562h8.375c4.144531 0 7.5-3.355469 7.5-7.5s-3.355469-7.5-7.5-7.5h-31.753907c-4.144531 0-7.5 3.355469-7.5 7.5s3.355469 7.5 7.5 7.5h8.378907v34.976562c0 4.144532 3.355468 7.5 7.5 7.5zm0 0" fill="#fff"/><path d="m103.667969 0h-63.332031c-22.242188 0-40.335938 18.09375-40.335938 40.335938v140.625c0 4.144531 3.359375 7.5 7.5 7.5s7.5-3.355469 7.5-7.5v-140.625c0-13.96875 11.363281-25.335938 25.335938-25.335938h63.332031c4.144531 0 7.5-3.355469 7.5-7.5s-3.355469-7.5-7.5-7.5zm0 0" fill="#474d54"/><path d="m471.664062 0h-335.332031c-4.144531 0-7.5 3.355469-7.5 7.5s3.355469 7.5 7.5 7.5h335.332031c13.972657 0 25.335938 11.367188 25.335938 25.335938v338.625c0 4.144531 3.355469 7.5 7.5 7.5s7.5-3.355469 7.5-7.5v-338.625c0-22.242188-18.09375-40.335938-40.335938-40.335938zm0 0" fill="#474d54"/><path d="m504.5 404.121094c-4.144531 0-7.5 3.355468-7.5 7.5v31.464844c0 1.898437-1.546875 3.445312-3.445312 3.445312h-475.109376c-1.898437 0-3.445312-1.546875-3.445312-3.445312v-229.464844c0-4.144532-3.359375-7.5-7.5-7.5s-7.5 3.355468-7.5 7.5v229.464844c0 10.171874 8.273438 18.445312 18.445312 18.445312h475.109376c10.171874 0 18.445312-8.273438 18.445312-18.445312v-31.464844c0-4.140625-3.355469-7.5-7.5-7.5zm0 0" fill="#474d54"/><path d="m73.355469 397.789062c-.023438 0-.042969 0-.066407 0-4.109374 0-7.460937 3.316407-7.5 7.433594-.035156 4.144532 3.292969 7.53125 7.433594 7.566406h.109375.066407c4.113281 0 7.460937-3.3125 7.5-7.429687.035156-4.144531-3.292969-7.53125-7.433594-7.570313zm0 0" fill="#c2c7d0"/><path d="m94.066406 397.789062c-.023437 0-.042968 0-.066406 0-4.109375 0-7.460938 3.316407-7.5 7.433594-.035156 4.144532 3.292969 7.53125 7.433594 7.566406h.109375.066406c4.113281 0 7.460937-3.3125 7.5-7.429687.035156-4.144531-3.292969-7.53125-7.433594-7.570313zm0 0" fill="#c2c7d0"/></svg>