<svg height="512pt" viewBox="-31 0 512 512" width="512pt" xmlns="http://www.w3.org/2000/svg"><path d="m390.011719 504.519531h-330.585938c-17.550781 0-27.484375-20.09375-16.871093-34.070312 15.660156-20.621094 34.738281-38.5 56.402343-52.804688 36.074219-23.804687 79.296875-37.667969 125.761719-37.667969s89.6875 13.859376 125.761719 37.667969c21.664062 14.304688 40.742187 32.183594 56.402343 52.804688 10.613282 13.976562.679688 34.070312-16.871093 34.070312zm0 0" fill="#76ffd9"/><path d="m442.082031 224.882812c0 120.046876-97.316406 217.367188-217.363281 217.367188s-217.363281-97.320312-217.363281-217.367188c0-120.042968 97.316406-217.363281 217.363281-217.363281s217.363281 97.320313 217.363281 217.363281zm0 0" fill="#fff"/><path d="m442.085938 224.886719c0 120.046875-97.320313 217.359375-217.367188 217.359375-4.09375 0-8.152344-.117188-12.195312-.339844 114.375-6.320312 205.175781-101.066406 205.175781-217.019531s-90.800781-210.707031-205.175781-217.027344c4.042968-.222656 8.101562-.339844 12.195312-.339844 120.046875-.003906 217.367188 97.320313 217.367188 217.367188zm0 0" fill="#d9dfe9"/><path d="m410.191406 111.5-15.664062 15.660156-9.890625 9.894532c-12.109375 12.109374-31.75 12.109374-43.859375 0-12.117188-12.109376-12.117188-31.75 0-43.859376l17.574218-17.570312 12.054688-12.054688c15.4375 13.953126 28.875 30.09375 39.785156 47.929688zm0 0" fill="#d9dfe9"/><path d="m410.191406 111.5-15.664062 15.660156c-9.53125-18.925781-21.757813-36.277344-36.179688-51.535156l12.058594-12.054688c15.4375 13.953126 28.875 30.09375 39.785156 47.929688zm0 0" fill="#c2c7d0"/><path d="m108.660156 137.054688c-12.109375 12.113281-31.75 12.113281-43.859375 0l-25.554687-25.554688c10.910156-17.835938 24.347656-33.972656 39.785156-47.929688l29.628906 29.628907c12.121094 12.109375 12.121094 31.746093 0 43.855469zm0 0" fill="#d9dfe9"/><path d="m350.5625 266.546875c0 69.5-56.34375 125.84375-125.84375 125.84375s-125.84375-56.34375-125.84375-125.84375c0-69.503906 56.34375-125.84375 125.84375-125.84375s125.84375 56.339844 125.84375 125.84375zm0 0" fill="#ffc843"/><path d="m324.261719 266.542969c0 54.980469-44.570313 99.539062-99.539063 99.539062-13.351562 0-26.101562-2.636719-37.734375-7.398437-12.0625-4.953125-22.941406-12.195313-32.085937-21.195313-2.824219-2.769531-5.476563-5.714843-7.9375-8.808593-6.050782-7.53125-11.003906-15.964844-14.660156-25.0625-4.601563-11.449219-7.128907-23.972657-7.128907-37.074219 0-54.96875 44.566407-99.539063 99.546875-99.539063 13.101563 0 25.613282 2.53125 37.066406 7.128906 9.09375 3.65625 17.519532 8.609376 25.058594 14.648438 3.09375 2.464844 6.042969 5.125 8.820313 7.953125 9 9.140625 16.242187 20.019531 21.183593 32.082031 4.773438 11.636719 7.410157 24.375 7.410157 37.726563zm0 0" fill="#fff"/><path d="m286.851562 188.785156-139.886718 139.894532c-6.050782-7.527344-11.003906-15.964844-14.523438-24.925782l129.484375-129.484375c8.957031 3.519531 17.386719 8.472657 24.925781 14.515625zm0 0" fill="#d9dfe9"/><path d="m316.992188 228.953125-129.867188 129.867187c-12.0625-4.953124-22.941406-12.195312-32.085938-21.195312l140.765626-140.753906c9 9.140625 16.242187 20.019531 21.1875 32.082031zm0 0" fill="#d9dfe9"/><path d="m383.867188 65.859375c-42.472657-42.46875-98.941407-65.859375-159.003907-65.859375-25.226562 0-50.019531 4.160156-73.6875 12.367188-3.914062 1.359374-5.988281 5.632812-4.628906 9.546874 1.355469 3.914063 5.625 5.984376 9.542969 4.628907 22.085937-7.660157 45.226562-11.542969 68.773437-11.542969 51.195313 0 98.160157 18.433594 134.625 49.003906l11.160157 10.050782c11.332031 10.957031 21.433593 23.175781 30.082031 36.425781l7.96875 13.25c10 18.101562 17.410156 37.828125 21.710937 58.679687-18.660156 25.539063-43.972656 47.460938-73.734375 63.878906-9.777343-63.957031-65.164062-113.105468-131.8125-113.105468-66.644531 0-122.027343 49.144531-131.808593 113.097656-29.773438-16.421875-55.074219-38.328125-73.742188-63.882812 4.253906-20.714844 11.589844-40.496094 21.636719-58.753907l7.945312-13.265625c8.578125-13.183594 18.660157-25.410156 30.078125-36.429687l11.171875-10.039063c11.253907-9.40625 23.59375-17.726562 36.910157-24.753906 3.664062-1.933594 5.0625-6.472656 3.132812-10.132812-1.933594-3.664063-6.46875-5.0625-10.136719-3.132813-74.050781 39.082031-120.050781 115.328125-120.050781 198.972656 0 60.0625 23.390625 116.53125 65.859375 159.003907 9.726563 9.726562 20.195313 18.4375 31.265625 26.113281-23.269531 14.980469-43.566406 33.75-60.398438 55.917969-6.652343 8.757812-7.75 20.316406-2.859374 30.164062 4.878906 9.832031 14.726562 15.9375 25.707031 15.9375h42.960937c4.144532 0 7.5-3.355469 7.5-7.5s-3.355468-7.5-7.5-7.5h-42.964844c-5.316406 0-9.90625-2.84375-12.269531-7.605469-2.371093-4.777343-1.859375-10.171875 1.371094-14.425781 17.167969-22.609375 38.179687-41.449219 62.449219-56.035156 34.125 20.074218 73.105468 30.792968 113.742187 30.792968 36.257813 0 72.285157-8.835937 104.191407-25.550781 3.203124-1.679687 6.355468-3.457031 9.472656-5.289062 24.304687 14.59375 45.339844 33.449219 62.527344 56.082031 3.230468 4.253906 3.742187 9.648438 1.371093 14.425781-2.363281 4.761719-6.949219 7.605469-12.269531 7.605469h-254.960938c-4.140624 0-7.5 3.355469-7.5 7.5s3.359376 7.5 7.5 7.5h254.960938c10.980469 0 20.828125-6.105469 25.707031-15.9375 4.886719-9.847656 3.789063-21.40625-2.859375-30.164062-16.847656-22.1875-37.164062-40.96875-60.460937-55.957032 21.15625-14.648437 39.859375-32.921875 54.914062-53.828125 2.417969-3.359375 1.65625-8.046875-1.703125-10.46875-3.363281-2.417969-8.050781-1.65625-10.472656 1.703125-19.058594 26.46875-44.363281 48.441406-73.183594 63.539063-29.769531 15.597656-63.394531 23.839843-97.234375 23.839843-115.71875 0-209.863281-94.144531-209.863281-209.863281 0-7.46875.394531-14.871093 1.167969-22.1875 20.105469 24.003907 45.835937 44.449219 75.417969 59.832031-.039063 1.335938-.066407 2.675782-.066407 4.019532 0 73.523437 59.816407 133.34375 133.34375 133.34375 73.527344 0 133.34375-59.816406 133.34375-133.34375 0-1.34375-.023437-2.679688-.0625-4.011719 29.566407-15.371094 55.3125-35.824219 75.414063-59.8125.765625 7.285156 1.167968 14.675781 1.167968 22.164063 0 33.332031-7.589843 65.210937-22.5625 94.746093-1.871093 3.691407-.394531 8.207031 3.300782 10.078125 1.085937.550782 2.242187.8125 3.382812.8125 2.738282 0 5.375-1.5 6.695313-4.109375 16.046875-31.65625 24.183593-65.816406 24.183593-101.527343 0-60.066407-23.386718-116.535157-65.859374-159.007813zm-159.148438 319.03125c-65.253906 0-118.34375-53.089844-118.34375-118.34375 0-65.257813 53.089844-118.34375 118.34375-118.34375s118.34375 53.085937 118.34375 118.34375c0 65.253906-53.089844 118.34375-118.34375 118.34375zm0 0" fill="#474d54"/><path d="m224.71875 63.242188c-14.078125 0-25.527344 11.453124-25.527344 25.53125 0 14.074218 11.449219 25.527343 25.527344 25.527343s25.53125-11.453125 25.53125-25.527343c0-14.078126-11.453125-25.53125-25.53125-25.53125zm0 0" fill="#ffc843"/><g fill="#fff"><path d="m339.21875 482.910156h.0625c4.113281 0 7.464844-3.316406 7.5-7.4375.035156-4.140625-3.292969-7.527344-7.4375-7.5625h-.113281c-4.148438-.03125-7.53125 3.292969-7.566407 7.4375-.03125 4.140625 3.296876 7.527344 7.4375 7.5625zm0 0"/><path d="m316.984375 482.910156h.0625c4.113281 0 7.464844-3.316406 7.5-7.4375.035156-4.140625-3.292969-7.527344-7.4375-7.5625h-.113281c-.023438 0-.042969 0-.066406 0-4.109376 0-7.460938 3.316406-7.496094 7.4375-.035156 4.140625 3.292968 7.527344 7.4375 7.5625zm0 0"/><path d="m294.753906 482.910156h.0625c4.113282 0 7.464844-3.316406 7.5-7.4375.03125-4.140625-3.296875-7.527344-7.4375-7.5625h-.117187c-.019531 0-.042969 0-.0625 0-4.113281 0-7.464844 3.316406-7.5 7.4375-.035157 4.140625 3.296875 7.527344 7.4375 7.5625zm0 0"/></g></svg>