<svg height="512pt" viewBox="-86 0 512 512" width="512pt" xmlns="http://www.w3.org/2000/svg"><path d="m321.5 161h-13v-79h13c5.523438 0 10 4.476562 10 10v59c0 5.523438-4.476562 10-10 10zm0 0" fill="#fff"/><path d="m17.5 252h13v-39h-13c-5.523438 0-10 4.476562-10 10v19c0 5.523438 4.476562 10 10 10zm0 0" fill="#fff"/><path d="m17.5 181h13v-99h-13c-5.523438 0-10 4.476562-10 10v79c0 5.523438 4.476562 10 10 10zm0 0" fill="#fff"/><path d="m17.5 314h13v-39h-13c-5.523438 0-10 4.476562-10 10v19c0 5.523438 4.476562 10 10 10zm0 0" fill="#fff"/><path d="m27.917969 484.5v-457c0-11.046875 8.953125-20 20-20h243.164062c11.046875 0 20 8.953125 20 20v457c0 11.046875-8.953125 20-20 20h-243.164062c-11.046875 0-20-8.953125-20-20zm0 0" fill="#ffc843"/><path d="m311.078125 27.5v457c0 11.050781-8.949219 20-20 20h-19.578125c11.050781 0 20-8.949219 20-20v-457c0-11.050781-8.949219-20-20-20h19.578125c11.050781 0 20 8.949219 20 20zm0 0" fill="#eaa62f"/><path d="m27.917969 58h283.164062v396h-283.164062zm0 0" fill="#fff"/><path d="m254.609375 217.832031h-64.941406l11.730469-21.570312c7.109374-13.0625.734374-29.378907-13.347657-34.167969-3.859375-1.3125-8.125-.152344-10.789062 2.929688l-45.59375 52.804687h-25.332031v120.496094h126.273437c5.1875 0 9.390625-4.207031 9.390625-9.390625v-11.34375c0-5.1875-4.203125-9.390625-9.390625-9.390625h10c5.1875 0 9.390625-4.203125 9.390625-9.390625v-11.339844c0-5.1875-4.203125-9.390625-9.390625-9.390625h6c5.1875 0 9.390625-4.207031 9.390625-9.390625v-11.34375c0-5.1875-4.203125-9.390625-9.390625-9.390625h6c5.1875 0 9.390625-4.203125 9.390625-9.390625v-11.339844c0-5.1875-4.203125-9.390625-9.390625-9.390625zm0 0" fill="#fff"/><path d="m27.917969 223.414062h47.082031v113.328126h-47.082031zm0 0" fill="#76ffd9"/><path d="m94.476562 350.4375h-9.476562c-5.523438 0-10-4.476562-10-10v-116.78125c0-5.519531 4.476562-10 10-10h20.667969c5.523437 0 10 4.480469 10 10v105.59375c0 11.703125-9.488281 21.1875-21.191407 21.1875zm0 0" fill="#fff"/><path d="m291.5 58h19.582031v396h-19.582031zm0 0" fill="#d9dfe9"/><path d="m321.5 74.5h-2.917969v-47c0-15.164062-12.335937-27.5-27.5-27.5h-243.164062c-15.164063 0-27.5 12.335938-27.5 27.5v47h-2.917969c-9.648438 0-17.5 7.851562-17.5 17.5v79c0 9.648438 7.851562 17.5 17.5 17.5h2.917969v17h-2.917969c-9.648438 0-17.5 7.851562-17.5 17.5v19c0 9.648438 7.851562 17.5 17.5 17.5h2.917969v8h-2.917969c-9.648438 0-17.5 7.851562-17.5 17.5v19c0 9.648438 7.851562 17.5 17.5 17.5h2.917969v163c0 15.164062 12.335937 27.5 27.5 27.5h243.164062c15.164063 0 27.5-12.335938 27.5-27.5v-76.964844c0-4.144531-3.355469-7.5-7.5-7.5s-7.5 3.355469-7.5 7.5v76.964844c0 6.894531-5.605469 12.5-12.5 12.5h-243.164062c-6.894531 0-12.5-5.605469-12.5-12.5v-140.261719h32.511719c1.742187 7.828125 8.726562 13.699219 17.070312 13.699219h9.476562c9.648438 0 18.191407-4.789062 23.394532-12.113281h25.363281c4.144531 0 7.5-3.355469 7.5-7.5 0-4.140625-3.355469-7.5-7.5-7.5h-20.113281c.03125-.519531.046875-1.046875.046875-1.574219v-103.917969h8.5c2.179687 0 4.253906-.949219 5.675781-2.601562l45.59375-52.804688c.671875-.773437 1.726562-1.0625 2.699219-.730469 4.613281 1.566407 8.273437 5.070313 10.046875 9.605469 1.773437 4.539063 1.457031 9.597657-.871094 13.878907l-9.601562 17.648437h-7.375c-4.144532 0-7.5 3.359375-7.5 7.5 0 4.144531 3.355468 7.5 7.5 7.5h76.773437c1.042969 0 1.894531.851563 1.894531 1.894531v11.339844c0 1.042969-.851562 1.890625-1.894531 1.890625h-22.609375c-4.144531 0-7.5 3.359375-7.5 7.5s3.355469 7.5 7.5 7.5h16.609375c1.042969 0 1.890625.847656 1.890625 1.890625v11.339844c0 1.042968-.847656 1.894531-1.890625 1.894531h-21.609375c-4.144531 0-7.5 3.355469-7.5 7.5 0 4.140625 3.355469 7.5 7.5 7.5h15.609375c1.042969 0 1.890625.847656 1.890625 1.890625v11.339844c0 1.042968-.847656 1.890625-1.890625 1.890625h-27.109375c-4.144531 0-7.5 3.359375-7.5 7.5 0 4.144531 3.355469 7.5 7.5 7.5h17.109375c1.042969 0 1.890625.851562 1.890625 1.894531v11.339844c0 1.042968-.847656 1.890625-1.890625 1.890625h-56.714844c-4.144531 0-7.5 3.359375-7.5 7.5s3.355469 7.5 7.5 7.5h56.714844c9.3125 0 16.890625-7.578125 16.890625-16.890625v-11.339844c0-1.105469-.105469-2.183594-.308594-3.230469 6.050782-2.570312 10.308594-8.574219 10.308594-15.554687v-11.339844c0-1.824219-.289062-3.578125-.828125-5.226562 4.140625-3.082032 6.828125-8.011719 6.828125-13.558594v-11.339844c0-1.820312-.289062-3.578125-.828125-5.226562 4.140625-3.082032 6.828125-8.011719 6.828125-13.554688v-11.34375c0-9.3125-7.578125-16.890625-16.890625-16.890625h-52.324219l5.703125-10.484375c4.445313-8.171875 5.050781-17.832031 1.667969-26.5-3.386719-8.667969-10.382812-15.359375-19.191406-18.355469-6.78125-2.304687-14.195313-.289062-18.878906 5.132813l-43.351563 50.207031h-11.253906c-3.054688-2.597656-7-4.171875-11.3125-4.171875h-20.667969c-6.867188 0-12.808594 3.984375-15.671875 9.753906h-33.910156v-188.410156c0-6.894531 5.605469-12.5 12.5-12.5h243.164062c6.894531 0 12.5 5.605469 12.5 12.5v254.378906c0 4.140625 3.355469 7.5 7.5 7.5s7.5-3.359375 7.5-7.5v-113.378906h2.917969c9.648438 0 17.5-7.851562 17.5-17.5v-59c0-9.648438-7.851562-17.5-17.5-17.5zm-301.082031 232h-2.917969c-1.378906 0-2.5-1.121094-2.5-2.5v-19c0-1.378906 1.121094-2.5 2.5-2.5h2.917969zm0-62h-2.917969c-1.378906 0-2.5-1.121094-2.5-2.5v-19c0-1.378906 1.121094-2.5 2.5-2.5h2.917969zm0-71h-2.917969c-1.378906 0-2.5-1.121094-2.5-2.5v-79c0-1.378906 1.121094-2.5 2.5-2.5h2.917969zm62.082031 50.15625c0-1.375 1.121094-2.5 2.5-2.5h20.667969c1.378906 0 2.5 1.125 2.5 2.5v105.59375c0 7.546875-6.140625 13.6875-13.691407 13.6875h-9.476562c-1.378906 0-2.5-1.121094-2.5-2.5zm-15 7.257812v98.328126h-32.082031v-98.328126zm256.5-79.914062c0 1.378906-1.121094 2.5-2.5 2.5h-2.917969v-64h2.917969c1.378906 0 2.5 1.121094 2.5 2.5zm0 0" fill="#474d54"/><path d="m95.210938 317.496094.109374.003906h.066407c4.113281 0 7.464843-3.316406 7.5-7.433594.039062-4.140625-3.289063-7.53125-7.433594-7.566406h-.109375c-.023438 0-.042969 0-.066406 0-4.113282 0-7.460938 3.3125-7.5 7.433594-.035156 4.140625 3.292968 7.527344 7.433594 7.5625zm0 0" fill="#c2c7d0"/><path d="m311.082031 307.039062c-4.144531 0-7.5 3.355469-7.5 7.5v60.332032c0 4.144531 3.355469 7.5 7.5 7.5s7.5-3.355469 7.5-7.5v-60.332032c0-4.144531-3.355469-7.5-7.5-7.5zm0 0" fill="#474d54"/><path d="m189.082031 26.832031h-39.164062c-4.144531 0-7.5 3.359375-7.5 7.5 0 4.144531 3.355469 7.5 7.5 7.5h39.164062c4.144531 0 7.5-3.355469 7.5-7.5 0-4.140625-3.355469-7.5-7.5-7.5zm0 0" fill="#fff"/><path d="m196.875 384.65625c0-4.144531-3.359375-7.5-7.5-7.5h-39.75c-4.140625 0-7.5 3.355469-7.5 7.5 0 4.140625 3.359375 7.5 7.5 7.5h39.75c4.140625 0 7.5-3.359375 7.5-7.5zm0 0" fill="#c2c7d0"/><path d="m164.625 397.5c-4.140625 0-7.5 3.359375-7.5 7.5s3.359375 7.5 7.5 7.5h9.75c4.140625 0 7.5-3.359375 7.5-7.5s-3.359375-7.5-7.5-7.5zm0 0" fill="#c2c7d0"/><g fill="#e37f31"><path d="m163.539062 114.265625h.078126c4.105468 0 7.457031-3.3125 7.496093-7.425781l.03125-3.070313c.039063-4.140625-3.285156-7.53125-7.425781-7.574219-4.136719-.039062-7.53125 3.285157-7.574219 7.425782l-.03125 3.070312c-.039062 4.140625 3.285157 7.53125 7.425781 7.574219zm0 0"/><path d="m163.28125 143.734375h.074219c4.109375 0 7.457031-3.308594 7.5-7.425781l.03125-3.070313c.039062-4.140625-3.285157-7.53125-7.425781-7.574219-.027344 0-.054688 0-.078126 0-4.105468 0-7.457031 3.3125-7.496093 7.429688l-.03125 3.066406c-.039063 4.144532 3.285156 7.535156 7.425781 7.574219zm0 0"/><path d="m176.628906 127.578125 3.066406.03125h.074219c4.109375 0 7.457031-3.308594 7.5-7.425781.039063-4.144532-3.285156-7.53125-7.429687-7.574219l-3.066406-.027344c-4.15625-.054687-7.535157 3.28125-7.574219 7.425781-.039063 4.140626 3.285156 7.53125 7.429687 7.570313zm0 0"/><path d="m150.371094 112.351562-3.066406-.03125c-4.09375-.03125-7.53125 3.285157-7.574219 7.429688-.039063 4.140625 3.285156 7.53125 7.429687 7.570312l3.066406.03125h.074219c4.109375 0 7.460938-3.3125 7.5-7.425781.039063-4.144531-3.285156-7.535156-7.429687-7.574219zm0 0"/><path d="m244.652344 155.96875h.074218c4.105469 0 7.457032-3.308594 7.496094-7.425781l.03125-3.070313c.035156-4.140625-3.289062-7.53125-7.429687-7.570312-.023438 0-.050781 0-.074219 0-4.109375 0-7.457031 3.3125-7.496094 7.425781l-.03125 3.070313c-.039062 4.140624 3.289063 7.53125 7.429688 7.570312zm0 0"/><path d="m244.390625 185.4375h.074219c4.109375 0 7.457031-3.308594 7.5-7.425781l.027344-3.066407c.042968-4.140624-3.28125-7.535156-7.425782-7.574218-.023437 0-.050781 0-.074218 0-4.105469 0-7.457032 3.308594-7.5 7.425781l-.027344 3.066406c-.039063 4.144531 3.28125 7.535157 7.425781 7.574219zm0 0"/><path d="m257.734375 169.285156 3.070313.03125h.074218c4.105469 0 7.457032-3.3125 7.5-7.429687.039063-4.140625-3.285156-7.53125-7.429687-7.570313l-3.066407-.03125c-.027343 0-.050781 0-.074218 0-4.109375 0-7.460938 3.3125-7.5 7.429688-.039063 4.140625 3.285156 7.53125 7.425781 7.570312zm0 0"/><path d="m231.480469 154.058594-3.066407-.03125c-4.136718-.089844-7.53125 3.285156-7.574218 7.425781-.039063 4.144531 3.285156 7.53125 7.425781 7.574219l3.070313.027344h.074218c4.105469 0 7.457032-3.308594 7.496094-7.425782.042969-4.140625-3.285156-7.53125-7.425781-7.570312zm0 0"/></g></svg>