<svg height="512pt" viewBox="-86 0 512 512" width="512pt" xmlns="http://www.w3.org/2000/svg"><g fill="#fff"><path d="m321.5 161h-13v-79h13c5.523438 0 10 4.476562 10 10v59c0 5.523438-4.476562 10-10 10zm0 0"/><path d="m17.5 252h13v-39h-13c-5.523438 0-10 4.476562-10 10v19c0 5.523438 4.476562 10 10 10zm0 0"/><path d="m17.5 181h13v-99h-13c-5.523438 0-10 4.476562-10 10v79c0 5.523438 4.476562 10 10 10zm0 0"/><path d="m17.5 314h13v-39h-13c-5.523438 0-10 4.476562-10 10v19c0 5.523438 4.476562 10 10 10zm0 0"/></g><path d="m27.917969 484.5v-457c0-11.046875 8.953125-20 20-20h243.164062c11.046875 0 20 8.953125 20 20v457c0 11.046875-8.953125 20-20 20h-243.164062c-11.046875 0-20-8.953125-20-20zm0 0" fill="#ffc843"/><path d="m311.078125 27.5v457c0 11.050781-8.949219 20-20 20h-19.578125c11.050781 0 20-8.949219 20-20v-457c0-11.050781-8.949219-20-20-20h19.578125c11.050781 0 20 8.949219 20 20zm0 0" fill="#eaa62f"/><path d="m27.917969 58h283.164062v396h-283.164062zm0 0" fill="#fff"/><path d="m254.609375 294.167969h-64.941406l11.730469 21.570312c7.109374 13.0625.734374 29.378907-13.347657 34.167969-3.859375 1.3125-8.125.152344-10.789062-2.929688l-45.59375-52.804687h-25.332031v-120.496094h126.273437c5.1875 0 9.390625 4.203125 9.390625 9.390625v11.339844c0 5.1875-4.203125 9.390625-9.390625 9.390625h10c5.1875 0 9.390625 4.207031 9.390625 9.390625v11.34375c0 5.1875-4.203125 9.390625-9.390625 9.390625h6c5.1875 0 9.390625 4.203125 9.390625 9.390625v11.339844c0 5.1875-4.203125 9.390625-9.390625 9.390625h6c5.1875 0 9.390625 4.207031 9.390625 9.390625v11.34375c0 5.1875-4.203125 9.390625-9.390625 9.390625zm0 0" fill="#fff"/><path d="m27.917969 175.261719h47.082031v113.324219h-47.082031zm0 0" fill="#76ffd9"/><path d="m94.476562 161.5625h-9.476562c-5.523438 0-10 4.476562-10 10v116.78125c0 5.519531 4.476562 10 10 10h20.667969c5.523437 0 10-4.480469 10-10v-105.59375c0-11.703125-9.488281-21.1875-21.191407-21.1875zm0 0" fill="#fff"/><path d="m291.5 58h19.582031v396h-19.582031zm0 0" fill="#d9dfe9"/><path d="m321.5 74.5h-2.917969v-47c0-15.164062-12.335937-27.5-27.5-27.5h-243.164062c-15.164063 0-27.5 12.335938-27.5 27.5v47h-2.917969c-9.648438 0-17.5 7.851562-17.5 17.5v79c0 9.648438 7.851562 17.5 17.5 17.5h2.917969v17h-2.917969c-9.648438 0-17.5 7.851562-17.5 17.5v19c0 9.648438 7.851562 17.5 17.5 17.5h2.917969v8h-2.917969c-9.648438 0-17.5 7.851562-17.5 17.5v19c0 9.648438 7.851562 17.5 17.5 17.5h2.917969v26.375c0 4.140625 3.355469 7.5 7.5 7.5s7.5-3.359375 7.5-7.5v-51.789062h33.910156c2.867187 5.769531 8.804687 9.757812 15.671875 9.757812h20.667969c4.3125 0 8.257812-1.578125 11.3125-4.175781h11.253906l43.351563 50.207031c3.394531 3.933594 8.222656 6.074219 13.210937 6.074219 1.890625 0 3.800781-.308594 5.667969-.941407 8.808594-2.996093 15.804687-9.6875 19.191406-18.351562 3.382812-8.667969 2.777344-18.328125-1.667969-26.503906l-5.703125-10.484375h52.324219c9.3125 0 16.890625-7.578125 16.890625-16.890625v-11.339844c0-5.546875-2.6875-10.476562-6.828125-13.558594.539063-1.648437.828125-3.402344.828125-5.226562v-11.339844c0-5.546875-2.6875-10.476562-6.828125-13.558594.539063-1.644531.828125-3.402344.828125-5.226562v-11.335938c0-6.980468-4.257812-12.988281-10.308594-15.558594.203125-1.042968.308594-2.121093.308594-3.226562v-11.339844c0-9.3125-7.578125-16.890625-16.890625-16.890625h-114.738281c-5.203125-7.324219-13.746094-12.113281-23.394532-12.113281h-9.476562c-8.34375 0-15.328125 5.871094-17.070312 13.699219h-32.511719v-140.261719c0-6.894531 5.605469-12.5 12.5-12.5h243.164062c6.894531 0 12.5 5.605469 12.5 12.5v161.382812c0 4.140626 3.355469 7.5 7.5 7.5s7.5-3.359374 7.5-7.5v-20.382812h2.917969c9.648438 0 17.5-7.851562 17.5-17.5v-59c0-9.648438-7.851562-17.5-17.5-17.5zm-301.082031 232h-2.917969c-1.378906 0-2.5-1.121094-2.5-2.5v-19c0-1.378906 1.121094-2.5 2.5-2.5h2.917969zm0-62h-2.917969c-1.378906 0-2.5-1.121094-2.5-2.5v-19c0-1.378906 1.121094-2.5 2.5-2.5h2.917969zm0-71h-2.917969c-1.378906 0-2.5-1.121094-2.5-2.5v-79c0-1.378906 1.121094-2.5 2.5-2.5h2.917969zm212.191406 7.675781c1.042969 0 1.890625.847657 1.890625 1.890625v11.339844c0 1.042969-.847656 1.894531-1.890625 1.894531h-17.109375c-4.144531 0-7.5 3.355469-7.5 7.5 0 4.140625 3.355469 7.5 7.5 7.5h27.109375c1.042969 0 1.890625.847657 1.890625 1.890625v11.339844c0 1.042969-.847656 1.890625-1.890625 1.890625h-15.609375c-4.144531 0-7.5 3.359375-7.5 7.5s3.355469 7.5 7.5 7.5h21.609375c1.042969 0 1.890625.847656 1.890625 1.890625v11.34375c0 1.042969-.847656 1.890625-1.890625 1.890625h-16.609375c-4.144531 0-7.5 3.355469-7.5 7.5 0 4.140625 3.355469 7.5 7.5 7.5h22.609375c1.042969 0 1.890625.847656 1.890625 1.890625v11.339844c0 1.042968-.847656 1.894531-1.890625 1.894531h-76.777344c-4.140625 0-7.5 3.355469-7.5 7.5 0 4.140625 3.359375 7.5 7.5 7.5h7.375l9.601563 17.648437c2.328125 4.28125 2.644531 9.339844.875 13.875-1.773438 4.539063-5.4375 8.042969-10.050782 9.609376-.96875.332031-2.027343.042968-2.695312-.730469l-45.59375-52.804688c-1.425781-1.652343-3.496094-2.601562-5.679688-2.601562h-8.5v-103.917969c0-.527344-.015624-1.054688-.042968-1.574219zm-150.109375-9.613281c0-1.378906 1.121094-2.5 2.5-2.5h9.476562c7.550782 0 13.691407 6.140625 13.691407 13.6875v105.589844c0 1.378906-1.121094 2.5-2.5 2.5h-20.667969c-1.378906 0-2.5-1.121094-2.5-2.5zm-15 11.199219v98.324219h-32.082031v-98.324219zm256.5-31.761719c0 1.378906-1.121094 2.5-2.5 2.5h-2.917969v-64h2.917969c1.378906 0 2.5 1.121094 2.5 2.5zm0 0" fill="#474d54"/><path d="m95.277344 209.503906h.066406l.109375-.003906c4.144531-.035156 7.472656-3.421875 7.433594-7.566406-.035157-4.117188-3.386719-7.429688-7.5-7.429688-.019531 0-.042969 0-.066407 0h-.109374c-4.140626.035156-7.46875 3.421875-7.433594 7.566406.039062 4.117188 3.386718 7.433594 7.5 7.433594zm0 0" fill="#c2c7d0"/><path d="m86.710938 497h-38.792969c-6.894531 0-12.5-5.605469-12.5-12.5v-103.964844c0-4.140625-3.355469-7.5-7.5-7.5s-7.5 3.359375-7.5 7.5v103.964844c0 15.164062 12.335937 27.5 27.5 27.5h38.792969c4.140624 0 7.5-3.359375 7.5-7.5s-3.359376-7.5-7.5-7.5zm0 0" fill="#474d54"/><path d="m311.082031 214.042969c-4.144531 0-7.5 3.359375-7.5 7.5v262.957031c0 6.894531-5.605469 12.5-12.5 12.5h-171.710937c-4.144532 0-7.5 3.359375-7.5 7.5s3.355468 7.5 7.5 7.5h171.710937c15.164063 0 27.5-12.335938 27.5-27.5v-262.957031c0-4.140625-3.355469-7.5-7.5-7.5zm0 0" fill="#474d54"/><path d="m189.082031 26.832031h-39.164062c-4.144531 0-7.5 3.359375-7.5 7.5 0 4.144531 3.355469 7.5 7.5 7.5h39.164062c4.144531 0 7.5-3.355469 7.5-7.5 0-4.140625-3.355469-7.5-7.5-7.5zm0 0" fill="#fff"/><path d="m196.875 384.65625c0-4.144531-3.359375-7.5-7.5-7.5h-39.75c-4.140625 0-7.5 3.355469-7.5 7.5 0 4.140625 3.359375 7.5 7.5 7.5h39.75c4.140625 0 7.5-3.359375 7.5-7.5zm0 0" fill="#c2c7d0"/><path d="m164.625 397.5c-4.140625 0-7.5 3.359375-7.5 7.5s3.359375 7.5 7.5 7.5h9.75c4.140625 0 7.5-3.359375 7.5-7.5s-3.359375-7.5-7.5-7.5zm0 0" fill="#c2c7d0"/><path d="m176.503906 116.171875c-2.929687-2.929687-7.679687-2.929687-10.609375 0l-3.929687 3.933594-3.933594-3.933594c-2.929688-2.929687-7.675781-2.929687-10.605469 0-2.929687 2.929687-2.929687 7.679687 0 10.605469l3.929688 3.933594-3.929688 3.929687c-2.929687 2.929687-2.929687 7.675781 0 10.605469 1.464844 1.464844 3.382813 2.199218 5.304688 2.199218 1.917969 0 3.839843-.734374 5.304687-2.199218l3.929688-3.929688 3.929687 3.929688c1.464844 1.464844 3.386719 2.199218 5.304688 2.199218s3.839843-.734374 5.304687-2.199218c2.929688-2.929688 2.929688-7.675782 0-10.605469l-3.929687-3.929687 3.929687-3.933594c2.925782-2.925782 2.925782-7.675782 0-10.605469zm0 0" fill="#e37f31"/><path d="m234.070312 355.742188c1.464844 1.464843 3.382813 2.195312 5.304688 2.195312 1.917969 0 3.839844-.730469 5.304688-2.195312l3.929687-3.929688 3.929687 3.929688c1.464844 1.464843 3.386719 2.195312 5.304688 2.195312s3.839844-.730469 5.304688-2.195312c2.929687-2.929688 2.929687-7.679688 0-10.605469l-3.929688-3.933594 3.929688-3.929687c2.929687-2.929688 2.929687-7.675782 0-10.605469-2.929688-2.929688-7.679688-2.929688-10.609376 0l-3.929687 3.929687-3.929687-3.929687c-2.929688-2.929688-7.679688-2.929688-10.609376 0-2.925781 2.929687-2.925781 7.679687 0 10.605469l3.933594 3.929687-3.933594 3.933594c-2.929687 2.925781-2.929687 7.675781 0 10.605469zm0 0" fill="#e37f31"/></svg>