<svg height="512pt" viewBox="0 -66 512 512" width="512pt" xmlns="http://www.w3.org/2000/svg"><g fill="#fff"><path d="m161 58.75v13h-79v-13c0-5.523438 4.476562-10 10-10h59c5.523438 0 10 4.476562 10 10zm0 0"/><path d="m252 362.75v-13h-39v13c0 5.523438 4.476562 10 10 10h19c5.523438 0 10-4.476562 10-10zm0 0"/><path d="m181 362.75v-13h-99v13c0 5.523438 4.476562 10 10 10h79c5.523438 0 10-4.476562 10-10zm0 0"/><path d="m314 362.75v-13h-39v13c0 5.523438 4.476562 10 10 10h19c5.523438 0 10-4.476562 10-10zm0 0"/></g><path d="m504.5 89.167969v243.160156c0 11.050781-8.949219 20-20 20h-457c-11.050781 0-20-8.949219-20-20v-243.160156c0-11.050781 8.949219-20 20-20h457c11.050781 0 20 8.949219 20 20zm0 0" fill="#ffc843"/><path d="m504.5 89.167969v243.160156c0 11.050781-8.949219 20-20 20h-17.5c11.050781 0 20-8.949219 20-20v-243.160156c0-11.050781-8.949219-20-20-20h17.5c11.050781 0 20 8.949219 20 20zm0 0" fill="#eaa62f"/><path d="m58 69.167969h396v283.160156h-396zm0 0" fill="#fff"/><path d="m58 69.167969 191.871094 148.789062c3.609375 2.796875 8.648437 2.796875 12.257812 0l191.871094-148.789062zm0 0" fill="#ffc843"/><path d="m478.996094 71.75c0 35.484375-28.765625 64.25-64.25 64.25s-64.25-28.765625-64.25-64.25 28.765625-64.25 64.25-64.25 64.25 28.765625 64.25 64.25zm0 0" fill="#76ffd9"/><path d="m485.777344 61.699219c-4.902344-34.820313-34.878906-61.699219-71.03125-61.699219-13.066406 0-25.863282 3.554688-37.007813 10.273438-3.546875 2.140624-4.6875 6.75-2.546875 10.296874 2.136719 3.546876 6.746094 4.6875 10.292969 2.546876 8.808594-5.308594 18.925781-8.117188 29.261719-8.117188 31.292968 0 56.75 25.457031 56.75 56.75s-25.457032 56.75-56.75 56.75c-31.292969 0-56.75-25.457031-56.75-56.75 0-9.785156 2.546875-19.449219 7.363281-27.941406 2.042969-3.601563.777344-8.179688-2.824219-10.222656-3.601562-2.042969-8.179687-.777344-10.222656 2.824218-4.429688 7.808594-7.332031 16.398438-8.59375 25.257813h-175.21875v-2.917969c0-9.648438-7.851562-17.5-17.5-17.5h-59c-9.648438 0-17.5 7.851562-17.5 17.5v2.917969h-47c-15.164062 0-27.5 12.335937-27.5 27.5v182.804687c0 4.144532 3.359375 7.5 7.5 7.5s7.5-3.355468 7.5-7.5v-182.804687c0-6.894531 5.605469-12.5 12.5-12.5h28l10 7.808593 75.699219 58.699219c1.367187 1.058594 2.984375 1.574219 4.589843 1.574219 2.238282 0 4.453126-1 5.933594-2.90625 2.535156-3.273438 1.941406-7.984375-1.332031-10.523438l-70.480469-54.652343h263.273438c1.347656 19.800781 10.757812 37.410156 24.96875 49.578125l-110.621094 85.785156c-.902344.699219-2.160156.699219-3.0625 0l-80.160156-62.164062c-3.273438-2.535157-7.984375-1.941407-10.523438 1.332031-2.539062 3.273437-1.941406 7.984375 1.332032 10.523437l53.527343 41.507813-153.144531 132.679687-10 8.921875h-28c-6.894531 0-12.5-5.605469-12.5-12.5v-27.699219c0-4.140624-3.359375-7.5-7.5-7.5s-7.5 3.359376-7.5 7.5v27.699219c0 15.164063 12.335938 27.5 27.5 27.5h47v2.917969c0 9.648438 7.851562 17.5 17.5 17.5h79c9.648438 0 17.5-7.851562 17.5-17.5v-2.917969h17v2.917969c0 9.648438 7.851562 17.5 17.5 17.5h19c9.648438 0 17.5-7.851562 17.5-17.5v-2.917969h8v2.917969c0 9.648438 7.851562 17.5 17.5 17.5h19c9.648438 0 17.5-7.851562 17.5-17.5v-2.917969h163c15.164062 0 27.5-12.335937 27.5-27.5v-243.164062c0-14.734375-11.648438-26.796875-26.222656-27.46875zm-332.277344-.03125h-64v-2.917969c0-1.378906 1.121094-2.5 2.5-2.5h59c1.378906 0 2.5 1.121094 2.5 2.5zm20 301.082031c0 1.378906-1.121094 2.5-2.5 2.5h-79c-1.378906 0-2.5-1.121094-2.5-2.5v-2.917969h84zm71 0c0 1.378906-1.121094 2.5-2.5 2.5h-19c-1.378906 0-2.5-1.121094-2.5-2.5v-2.917969h24zm62 0c0 1.378906-1.121094 2.5-2.5 2.5h-19c-1.378906 0-2.5-1.121094-2.5-2.5v-2.917969h24zm-228.390625-17.917969 152.621094-132.226562 14.546875 11.277343c3.15625 2.449219 6.9375 3.671876 10.722656 3.671876 3.78125 0 7.566406-1.222657 10.722656-3.671876l14.546875-11.277343 152.621094 132.226562zm418.890625-12.5c0 6.894531-5.605469 12.5-12.5 12.5h-28l-10-8.921875-153.144531-132.679687 87.816406-68.097657c10.023437 5.332032 21.449219 8.367188 33.574219 8.367188 11.398437 0 22.175781-2.683594 31.753906-7.433594l15-9.960937c14.089844-12.132813 23.417969-29.628907 24.796875-49.292969 6.042969.875 10.703125 6.074219 10.703125 12.355469zm0 0" fill="#474d54"/><path d="m34.332031 237.832031c4.144531 0 7.5-3.359375 7.5-7.5v-39.164062c0-4.140625-3.355469-7.5-7.5-7.5-4.140625 0-7.5 3.359375-7.5 7.5v39.164062c0 4.140625 3.359375 7.5 7.5 7.5zm0 0" fill="#fff"/><path d="m422.835938 42.128906c-2.242188-1.359375-5.03125-1.449218-7.355469-.234375l-9.125 4.757813c-3.671875 1.917968-5.09375 6.449218-3.179688 10.121094 1.605469 3.074218 5.042969 4.578124 8.273438 3.855468v26.828125h-1.21875c-4.140625 0-7.5 3.355469-7.5 7.5 0 4.140625 3.359375 7.5 7.5 7.5h17.4375c4.140625 0 7.5-3.359375 7.5-7.5 0-4.144531-3.359375-7.5-7.5-7.5h-1.21875v-38.914062c0-2.621094-1.371094-5.054688-3.613281-6.414063zm0 0" fill="#fff"/></svg>