<svg height="512pt" viewBox="0 -86 512 512" width="512pt" xmlns="http://www.w3.org/2000/svg"><g fill="#fff"><path d="m161 17.5v13h-79v-13c0-5.523438 4.476562-10 10-10h59c5.523438 0 10 4.476562 10 10zm0 0"/><path d="m252 321.5v-13h-39v13c0 5.523438 4.476562 10 10 10h19c5.523438 0 10-4.476562 10-10zm0 0"/><path d="m181 321.5v-13h-99v13c0 5.523438 4.476562 10 10 10h79c5.523438 0 10-4.476562 10-10zm0 0"/><path d="m314 321.5v-13h-39v13c0 5.523438 4.476562 10 10 10h19c5.523438 0 10-4.476562 10-10zm0 0"/></g><path d="m504.5 47.917969v243.160156c0 11.050781-8.949219 20-20 20h-457c-11.050781 0-20-8.949219-20-20v-243.160156c0-11.050781 8.949219-20 20-20h457c11.050781 0 20 8.949219 20 20zm0 0" fill="#ffc843"/><path d="m504.5 47.917969v243.160156c0 11.050781-8.949219 20-20 20h-17.5c11.050781 0 20-8.949219 20-20v-243.160156c0-11.050781-8.949219-20-20-20h17.5c11.050781 0 20 8.949219 20 20zm0 0" fill="#e79732"/><path d="m58 27.921875h396v283.15625h-396zm0 0" fill="#d9dfe9"/><path d="m58 27.921875h396v182.6875h-396zm0 0" fill="#fff"/><path d="m223.753906 78.066406v57.433594c0 7.351562 8.09375 11.828125 14.320313 7.921875l45.789062-28.714844c5.84375-3.667969 5.84375-12.179687 0-15.847656l-45.789062-28.714844c-6.226563-3.90625-14.320313.570313-14.320313 7.921875zm0 0" fill="#76ffd9"/><path d="m484.5 20.417969h-259.050781c-4.140625 0-7.5 3.359375-7.5 7.5s3.359375 7.5 7.5 7.5h259.050781c6.894531 0 12.5 5.605469 12.5 12.5v243.164062c0 6.890625-5.605469 12.5-12.5 12.5h-118.058594c-4.140625 0-7.5 3.355469-7.5 7.5 0 4.140625 3.359375 7.5 7.5 7.5h118.058594c15.164062 0 27.5-12.335937 27.5-27.5v-243.164062c0-15.164063-12.335938-27.5-27.5-27.5zm0 0" fill="#474d54"/><path d="m192.789062 20.417969h-24.289062v-2.917969c0-9.648438-7.851562-17.5-17.5-17.5h-59c-9.648438 0-17.5 7.851562-17.5 17.5v2.917969h-47c-15.164062 0-27.5 12.335937-27.5 27.5v41.4375c0 4.140625 3.359375 7.5 7.5 7.5s7.5-3.359375 7.5-7.5v-41.4375c0-6.894531 5.605469-12.5 12.5-12.5h165.289062c4.140626 0 7.5-3.359375 7.5-7.5s-3.359374-7.5-7.5-7.5zm-39.289062 0h-64v-2.917969c0-1.378906 1.121094-2.5 2.5-2.5h59c1.378906 0 2.5 1.121094 2.5 2.5zm0 0" fill="#474d54"/><path d="m333.78125 303.582031h-306.28125c-6.894531 0-12.5-5.605469-12.5-12.5v-169.066406c0-4.140625-3.359375-7.5-7.5-7.5s-7.5 3.359375-7.5 7.5v169.066406c0 15.164063 12.335938 27.5 27.5 27.5h47v2.917969c0 9.648438 7.851562 17.5 17.5 17.5h79c9.648438 0 17.5-7.851562 17.5-17.5v-2.917969h17v2.917969c0 9.648438 7.851562 17.5 17.5 17.5h19c9.648438 0 17.5-7.851562 17.5-17.5v-2.917969h8v2.917969c0 9.648438 7.851562 17.5 17.5 17.5h19c9.648438 0 17.5-7.851562 17.5-17.5v-2.917969h12.28125c4.144531 0 7.5-3.359375 7.5-7.5s-3.355469-7.5-7.5-7.5zm-160.28125 17.917969c0 1.378906-1.121094 2.5-2.5 2.5h-79c-1.378906 0-2.5-1.121094-2.5-2.5v-2.917969h84zm71 0c0 1.378906-1.121094 2.5-2.5 2.5h-19c-1.378906 0-2.5-1.121094-2.5-2.5v-2.917969h24zm62 0c0 1.378906-1.121094 2.5-2.5 2.5h-19c-1.378906 0-2.5-1.121094-2.5-2.5v-2.917969h24zm0 0" fill="#474d54"/><path d="m34.332031 196.582031c4.144531 0 7.5-3.359375 7.5-7.5v-39.164062c0-4.140625-3.355469-7.5-7.5-7.5-4.140625 0-7.5 3.359375-7.5 7.5v39.164062c0 4.140625 3.359375 7.5 7.5 7.5zm0 0" fill="#fff"/><path d="m358 166c-4.140625 0-7.5 3.359375-7.5 7.5v.5h-246.5c-4.140625 0-7.5 3.359375-7.5 7.5s3.359375 7.5 7.5 7.5h246.5v.082031c0 4.140625 3.359375 7.5 7.5 7.5s7.5-3.359375 7.5-7.5v-.082031h55.5c4.140625 0 7.5-3.359375 7.5-7.5s-3.359375-7.5-7.5-7.5h-55.5v-.5c0-4.140625-3.359375-7.5-7.5-7.5zm0 0" fill="#c2c7d0"/><path d="m94.578125 244.054688h6.335937c4.140626 0 7.5-3.359376 7.5-7.5 0-4.140626-3.359374-7.5-7.5-7.5h-6.335937c-4.140625 0-7.5 3.359374-7.5 7.5 0 4.140624 3.359375 7.5 7.5 7.5zm0 0" fill="#c2c7d0"/><path d="m131.914062 244.054688c4.140626 0 7.5-3.359376 7.5-7.5 0-4.140626-3.359374-7.5-7.5-7.5h-6.335937c-4.140625 0-7.5 3.359374-7.5 7.5 0 4.140624 3.359375 7.5 7.5 7.5zm0 0" fill="#c2c7d0"/><path d="m162.914062 244.054688c4.140626 0 7.5-3.359376 7.5-7.5 0-4.140626-3.359374-7.5-7.5-7.5h-6.335937c-4.140625 0-7.5 3.359374-7.5 7.5 0 4.140624 3.359375 7.5 7.5 7.5zm0 0" fill="#c2c7d0"/><path d="m145.078125 261.613281c0 4.140625 3.359375 7.5 7.5 7.5h59c4.144531 0 7.5-3.359375 7.5-7.5 0-4.144531-3.355469-7.5-7.5-7.5h-59c-4.140625 0-7.5 3.355469-7.5 7.5zm0 0" fill="#fff"/><path d="m94.578125 269.113281h37.335937c4.140626 0 7.5-3.359375 7.5-7.5 0-4.144531-3.359374-7.5-7.5-7.5h-37.335937c-4.140625 0-7.5 3.355469-7.5 7.5 0 4.140625 3.359375 7.5 7.5 7.5zm0 0" fill="#fff"/><path d="m94.578125 290.277344h193.667969c4.144531 0 7.5-3.355469 7.5-7.5 0-4.140625-3.355469-7.5-7.5-7.5h-193.667969c-4.140625 0-7.5 3.359375-7.5 7.5 0 4.144531 3.359375 7.5 7.5 7.5zm0 0" fill="#fff"/><path d="m428.5 236.554688c0-4.140626-3.359375-7.5-7.5-7.5h-63c-4.140625 0-7.5 3.359374-7.5 7.5 0 4.140624 3.359375 7.5 7.5 7.5h63c4.140625 0 7.5-3.359376 7.5-7.5zm0 0" fill="#fff"/><path d="m407.777344 248.390625c-11.546875 0-20.945313 9.394531-20.945313 20.945313 0 11.546874 9.398438 20.941406 20.945313 20.941406s20.945312-9.394532 20.945312-20.941406c0-11.550782-9.398437-20.945313-20.945312-20.945313zm0 0" fill="#76ffd9"/></svg>