<svg height="512pt" viewBox="0 -86 512 512" width="512pt" xmlns="http://www.w3.org/2000/svg"><path d="m161 17.5v13h-79v-13c0-5.523438 4.476562-10 10-10h59c5.523438 0 10 4.476562 10 10zm0 0" fill="#fff"/><path d="m252 321.5v-13h-39v13c0 5.523438 4.476562 10 10 10h19c5.523438 0 10-4.476562 10-10zm0 0" fill="#fff"/><path d="m181 321.5v-13h-99v13c0 5.523438 4.476562 10 10 10h79c5.523438 0 10-4.476562 10-10zm0 0" fill="#fff"/><path d="m314 321.5v-13h-39v13c0 5.523438 4.476562 10 10 10h19c5.523438 0 10-4.476562 10-10zm0 0" fill="#fff"/><path d="m504.5 47.917969v243.160156c0 11.050781-8.949219 20-20 20h-457c-11.050781 0-20-8.949219-20-20v-243.160156c0-11.050781 8.949219-20 20-20h457c11.050781 0 20 8.949219 20 20zm0 0" fill="#ffc843"/><path d="m504.5 47.917969v243.160156c0 11.050781-8.949219 20-20 20h-17.5c11.050781 0 20-8.949219 20-20v-243.160156c0-11.050781-8.949219-20-20-20h17.5c11.050781 0 20 8.949219 20 20zm0 0" fill="#e79732"/><path d="m58 27.917969h396v283.160156h-396zm0 0" fill="#76ffd9"/><path d="m58 164.875h396v146.199219h-396zm0 0" fill="#fff"/><path d="m484.5 20.417969h-132.582031c-4.144531 0-7.5 3.359375-7.5 7.5s3.355469 7.5 7.5 7.5h132.582031c6.894531 0 12.5 5.605469 12.5 12.5v86.4375c0 4.140625 3.355469 7.5 7.5 7.5s7.5-3.359375 7.5-7.5v-86.4375c0-15.164063-12.335938-27.5-27.5-27.5zm0 0" fill="#474d54"/><path d="m346.253906 303.582031h-318.753906c-6.894531 0-12.5-5.605469-12.5-12.5v-243.164062c0-6.894531 5.605469-12.5 12.5-12.5h291.757812c4.140626 0 7.5-3.359375 7.5-7.5s-3.359374-7.5-7.5-7.5h-150.757812v-2.917969c0-9.648438-7.851562-17.5-17.5-17.5h-59c-9.648438 0-17.5 7.851562-17.5 17.5v2.917969h-47c-15.164062 0-27.5 12.335937-27.5 27.5v243.164062c0 15.164063 12.335938 27.5 27.5 27.5h47v2.917969c0 9.648438 7.851562 17.5 17.5 17.5h79c9.648438 0 17.5-7.851562 17.5-17.5v-2.917969h17v2.917969c0 9.648438 7.851562 17.5 17.5 17.5h19c9.648438 0 17.5-7.851562 17.5-17.5v-2.917969h8v2.917969c0 9.648438 7.851562 17.5 17.5 17.5h19c9.648438 0 17.5-7.851562 17.5-17.5v-2.917969h24.753906c4.144532 0 7.5-3.359375 7.5-7.5s-3.355468-7.5-7.5-7.5zm-256.753906-286.082031c0-1.378906 1.121094-2.5 2.5-2.5h59c1.378906 0 2.5 1.121094 2.5 2.5v2.917969h-64zm84 304c0 1.378906-1.121094 2.5-2.5 2.5h-79c-1.378906 0-2.5-1.121094-2.5-2.5v-2.917969h84zm71 0c0 1.378906-1.121094 2.5-2.5 2.5h-19c-1.378906 0-2.5-1.121094-2.5-2.5v-2.917969h24zm62 0c0 1.378906-1.121094 2.5-2.5 2.5h-19c-1.378906 0-2.5-1.121094-2.5-2.5v-2.917969h24zm0 0" fill="#474d54"/><path d="m504.5 159.515625c-4.144531 0-7.5 3.355469-7.5 7.5v124.066406c0 6.894531-5.605469 12.5-12.5 12.5h-105.585938c-4.140624 0-7.5 3.359375-7.5 7.5s3.359376 7.5 7.5 7.5h105.585938c15.164062 0 27.5-12.335937 27.5-27.5v-124.066406c0-4.144531-3.355469-7.5-7.5-7.5zm0 0" fill="#474d54"/><path d="m34.332031 142.417969c-4.140625 0-7.5 3.359375-7.5 7.5v39.164062c0 4.140625 3.359375 7.5 7.5 7.5 4.144531 0 7.5-3.359375 7.5-7.5v-39.164062c0-4.140625-3.355469-7.5-7.5-7.5zm0 0" fill="#fff"/><g fill="#c2c7d0"><path d="m105.617188 196.480469h-.109376c-.023437 0-.042968 0-.066406 0-4.113281 0-7.460937 3.3125-7.5 7.433593-.035156 4.140626 3.292969 7.527344 7.433594 7.566407h.109375.070313c4.109374 0 7.460937-3.316407 7.496093-7.433594.039063-4.140625-3.289062-7.527344-7.433593-7.566406zm0 0"/><path d="m139.0625 196.480469h-.109375c-.023437 0-.046875 0-.066406 0-4.113281 0-7.460938 3.3125-7.5 7.433593-.035157 4.140626 3.292969 7.527344 7.433593 7.566407h.109376.066406c4.113281 0 7.464844-3.316407 7.5-7.433594.035156-4.140625-3.292969-7.527344-7.433594-7.566406zm0 0"/><path d="m172.507812 196.480469h-.109374c-.023438 0-.042969 0-.066407 0-4.109375 0-7.460937 3.3125-7.5 7.433593-.035156 4.140626 3.292969 7.527344 7.433594 7.566407h.109375.066406c4.113282 0 7.460938-3.316407 7.5-7.433594.035156-4.140625-3.292968-7.527344-7.433594-7.566406zm0 0"/><path d="m205.820312 211.480469h.066407c4.109375 0 7.460937-3.316407 7.5-7.433594.035156-4.140625-3.292969-7.53125-7.433594-7.566406h-.109375c-.023438 0-.042969 0-.066406 0-4.113282 0-7.460938 3.3125-7.5 7.433593-.035156 4.140626 3.292968 7.527344 7.433594 7.566407zm0 0"/><path d="m239.265625 211.480469h.066406c4.109375 0 7.460938-3.316407 7.5-7.433594.035157-4.140625-3.292969-7.53125-7.433593-7.566406h-.109376c-.023437 0-.046874 0-.066406 0-4.113281 0-7.460937 3.3125-7.5 7.433593-.035156 4.140626 3.292969 7.527344 7.433594 7.566407zm0 0"/><path d="m272.710938 211.480469h.066406c4.113281 0 7.460937-3.316407 7.5-7.433594.035156-4.140625-3.292969-7.53125-7.433594-7.566406h-.109375c-.023437 0-.046875 0-.066406 0-4.113281 0-7.464844 3.3125-7.5 7.433593-.035157 4.140626 3.292969 7.527344 7.433593 7.566407zm0 0"/><path d="m306.289062 196.480469h-.109374c-.023438 0-.042969 0-.066407 0-4.109375 0-7.460937 3.3125-7.5 7.433593-.035156 4.140626 3.292969 7.527344 7.433594 7.566407h.109375.066406c4.113282 0 7.464844-3.316407 7.5-7.433594.039063-4.140625-3.289062-7.527344-7.433594-7.566406zm0 0"/><path d="m339.734375 196.480469h-.109375c-.023438 0-.046875 0-.066406 0-4.113282 0-7.460938 3.3125-7.5 7.433593-.035156 4.140626 3.292968 7.527344 7.433594 7.566407h.109374.066407c4.113281 0 7.464843-3.316407 7.5-7.433594.035156-4.140625-3.289063-7.527344-7.433594-7.566406zm0 0"/><path d="m373.046875 211.480469h.066406c4.113281 0 7.460938-3.316407 7.5-7.433594.035157-4.140625-3.292969-7.53125-7.433593-7.566406h-.109376c-.023437 0-.046874 0-.066406 0-4.113281 0-7.464844 3.3125-7.5 7.433593-.035156 4.140626 3.292969 7.527344 7.433594 7.566407zm0 0"/><path d="m406.492188 211.480469h.066406c4.113281 0 7.460937-3.316407 7.5-7.433594.035156-4.140625-3.292969-7.53125-7.433594-7.566406h-.109375c-.023437 0-.046875 0-.066406 0-4.113281 0-7.464844 3.3125-7.5 7.433593-.039063 4.140626 3.289062 7.527344 7.433593 7.566407zm0 0"/><path d="m105.617188 230.480469h-.109376c-.023437 0-.042968 0-.066406 0-4.113281 0-7.460937 3.3125-7.5 7.433593-.035156 4.140626 3.292969 7.527344 7.433594 7.566407h.109375.070313c4.109374 0 7.460937-3.316407 7.496093-7.433594.039063-4.140625-3.289062-7.527344-7.433593-7.566406zm0 0"/><path d="m139.0625 230.480469h-.109375c-.023437 0-.046875 0-.066406 0-4.113281 0-7.460938 3.3125-7.5 7.433593-.035157 4.140626 3.292969 7.527344 7.433593 7.566407h.109376.066406c4.113281 0 7.464844-3.316407 7.5-7.433594.035156-4.140625-3.292969-7.527344-7.433594-7.566406zm0 0"/><path d="m172.507812 230.480469h-.109374c-.023438 0-.042969 0-.066407 0-4.109375 0-7.460937 3.3125-7.5 7.433593-.035156 4.140626 3.292969 7.527344 7.433594 7.566407h.109375.066406c4.113282 0 7.460938-3.316407 7.5-7.433594.035156-4.140625-3.292968-7.527344-7.433594-7.566406zm0 0"/><path d="m205.710938 245.480469h.109374.066407c4.109375 0 7.460937-3.316407 7.5-7.433594.035156-4.140625-3.292969-7.53125-7.433594-7.566406h-.109375c-.023438 0-.046875 0-.070312 0-4.109376 0-7.460938 3.3125-7.496094 7.433593-.035156 4.140626 3.289062 7.527344 7.433594 7.566407zm0 0"/><path d="m239.15625 245.480469h.109375.066406c4.109375 0 7.460938-3.316407 7.5-7.433594.035157-4.140625-3.292969-7.53125-7.433593-7.566406h-.109376c-.023437 0-.046874 0-.066406 0-4.113281 0-7.460937 3.3125-7.5 7.433593-.035156 4.140626 3.292969 7.527344 7.433594 7.566407zm0 0"/><path d="m272.601562 245.480469h.109376.066406c4.113281 0 7.460937-3.316407 7.5-7.433594.035156-4.140625-3.292969-7.53125-7.433594-7.566406h-.109375c-.023437 0-.046875 0-.066406 0-4.113281 0-7.464844 3.3125-7.5 7.433593-.035157 4.140626 3.292969 7.527344 7.433593 7.566407zm0 0"/><path d="m306.289062 230.480469h-.109374c-.023438 0-.042969 0-.066407 0-4.109375 0-7.460937 3.3125-7.5 7.433593-.035156 4.140626 3.292969 7.527344 7.433594 7.566407h.109375.066406c4.113282 0 7.464844-3.316407 7.5-7.433594.039063-4.140625-3.289062-7.527344-7.433594-7.566406zm0 0"/><path d="m339.734375 230.480469h-.109375c-.023438 0-.046875 0-.066406 0-4.113282 0-7.460938 3.3125-7.5 7.433593-.035156 4.140626 3.292968 7.527344 7.433594 7.566407h.109374.066407c4.113281 0 7.464843-3.316407 7.5-7.433594.035156-4.140625-3.289063-7.527344-7.433594-7.566406zm0 0"/><path d="m372.9375 245.480469h.109375.066406c4.113281 0 7.460938-3.316407 7.5-7.433594.035157-4.140625-3.292969-7.53125-7.433593-7.566406h-.109376c-.023437 0-.046874 0-.066406 0-4.113281 0-7.464844 3.3125-7.5 7.433593-.035156 4.140626 3.292969 7.527344 7.433594 7.566407zm0 0"/><path d="m406.382812 245.480469h.109376.066406c4.113281 0 7.460937-3.316407 7.5-7.433594.035156-4.140625-3.292969-7.53125-7.433594-7.566406h-.109375c-.023437 0-.046875 0-.066406 0-4.113281 0-7.464844 3.3125-7.5 7.433593-.039063 4.140626 3.289062 7.527344 7.433593 7.566407zm0 0"/><path d="m105.507812 264.480469c-.023437 0-.042968 0-.066406 0-4.113281 0-7.460937 3.3125-7.5 7.433593-.035156 4.140626 3.292969 7.527344 7.433594 7.566407h.109375.070313c4.109374 0 7.460937-3.316407 7.496093-7.433594.039063-4.140625-3.289062-7.53125-7.433593-7.566406zm0 0"/><path d="m138.953125 264.480469c-.023437 0-.042969 0-.066406 0-4.113281 0-7.460938 3.3125-7.5 7.433593-.035157 4.140626 3.292969 7.527344 7.433593 7.566407h.109376.070312c4.109375 0 7.460938-3.316407 7.496094-7.433594.039062-4.140625-3.289063-7.53125-7.433594-7.566406zm0 0"/><path d="m172.398438 264.480469c-4.140626-.066407-7.53125 3.289062-7.566407 7.433593-.035156 4.140626 3.292969 7.527344 7.433594 7.566407h.109375.066406c4.113282 0 7.460938-3.316407 7.5-7.433594.035156-4.140625-3.292968-7.53125-7.433594-7.566406zm0 0"/><path d="m205.777344 279.480469h100.445312c4.140625 0 7.5-3.359375 7.5-7.5s-3.359375-7.5-7.5-7.5h-100.445312c-4.140625 0-7.5 3.355469-7.5 7.5 0 4.140625 3.359375 7.5 7.5 7.5zm0 0"/><path d="m339.625 264.480469c-.023438 0-.046875 0-.066406 0-4.113282 0-7.460938 3.3125-7.5 7.433593-.035156 4.140626 3.292968 7.527344 7.433594 7.566407h.109374.066407c4.113281 0 7.464843-3.316407 7.5-7.433594.035156-4.140625-3.289063-7.53125-7.433594-7.566406zm0 0"/><path d="m373.046875 279.480469h.066406c4.113281 0 7.460938-3.316407 7.5-7.433594.035157-4.140625-3.292969-7.53125-7.433593-7.566406h-.109376c-.023437 0-.046874 0-.066406 0-4.113281 0-7.464844 3.3125-7.5 7.433593-.035156 4.140626 3.292969 7.527344 7.433594 7.566407zm0 0"/><path d="m406.382812 279.480469h.109376.066406c4.113281 0 7.460937-3.316407 7.5-7.433594.035156-4.140625-3.292969-7.53125-7.433594-7.566406h-.109375c-.023437 0-.046875 0-.066406 0-4.113281 0-7.464844 3.3125-7.5 7.433593-.039063 4.140626 3.289062 7.527344 7.433593 7.566407zm0 0"/></g><path d="m101 102.25h15c4.140625 0 7.5-3.359375 7.5-7.5s-3.359375-7.5-7.5-7.5h-15c-4.140625 0-7.5 3.359375-7.5 7.5s3.359375 7.5 7.5 7.5zm0 0" fill="#fff"/><path d="m101 124.375h151c4.140625 0 7.5-3.359375 7.5-7.5s-3.359375-7.5-7.5-7.5h-151c-4.140625 0-7.5 3.359375-7.5 7.5s3.359375 7.5 7.5 7.5zm0 0" fill="#fff"/><path d="m391.417969 98.507812c-2.929688-2.929687-7.679688-2.929687-10.605469 0l-12.730469 12.726563c-1.40625 1.40625-2.195312 3.316406-2.195312 5.304687 0 1.988282.789062 3.894532 2.195312 5.300782l12.730469 12.730468c1.464844 1.464844 3.382812 2.195313 5.300781 2.195313 1.921875 0 3.839844-.730469 5.304688-2.195313 2.90625-2.90625 2.925781-7.597656.066406-10.53125h17.1875c4.144531 0 7.5-3.359374 7.5-7.5v-19.511718c0-4.140625-3.355469-7.5-7.5-7.5-4.140625 0-7.5 3.359375-7.5 7.5v12.011718h-9.6875c2.859375-2.933593 2.839844-7.628906-.066406-10.53125zm0 0" fill="#fff"/></svg>