<svg height="512pt" viewBox="-86 0 512 512" width="512pt" xmlns="http://www.w3.org/2000/svg"><g fill="#fff"><path d="m321.5 161h-13v-79h13c5.523438 0 10 4.476562 10 10v59c0 5.523438-4.476562 10-10 10zm0 0"/><path d="m17.5 252h13v-39h-13c-5.523438 0-10 4.476562-10 10v19c0 5.523438 4.476562 10 10 10zm0 0"/><path d="m17.5 181h13v-99h-13c-5.523438 0-10 4.476562-10 10v79c0 5.523438 4.476562 10 10 10zm0 0"/><path d="m17.5 314h13v-39h-13c-5.523438 0-10 4.476562-10 10v19c0 5.523438 4.476562 10 10 10zm0 0"/></g><path d="m27.917969 484.5v-457c0-11.046875 8.953125-20 20-20h243.164062c11.046875 0 20 8.953125 20 20v457c0 11.046875-8.953125 20-20 20h-243.164062c-11.046875 0-20-8.953125-20-20zm0 0" fill="#ffc843"/><path d="m311.078125 27.5v457c0 11.050781-8.949219 20-20 20h-19.578125c11.050781 0 20-8.949219 20-20v-457c0-11.050781-8.949219-20-20-20h19.578125c11.050781 0 20 8.949219 20 20zm0 0" fill="#eaa62f"/><path d="m27.917969 58h283.164062v396h-283.164062zm0 0" fill="#fff"/><path d="m291.5 58h19.582031v396h-19.582031zm0 0" fill="#d9dfe9"/><path d="m223.507812 153h-108.015624c-10.765626 0-19.492188-8.726562-19.492188-19.492188v-7.597656c0-10.765625 8.726562-19.492187 19.492188-19.492187h108.015624c10.765626 0 19.492188 8.726562 19.492188 19.492187v7.597656c0 10.765626-8.726562 19.492188-19.492188 19.492188zm0 0" fill="#d9dfe9"/><path d="m321.5 74.5h-2.917969v-47c0-15.164062-12.335937-27.5-27.5-27.5h-169.183593c-4.144532 0-7.5 3.359375-7.5 7.5s3.355468 7.5 7.5 7.5h169.183593c6.894531 0 12.5 5.605469 12.5 12.5v218.851562c0 4.144532 3.355469 7.5 7.5 7.5s7.5-3.355468 7.5-7.5v-77.851562h2.917969c9.648438 0 17.5-7.851562 17.5-17.5v-59c0-9.648438-7.851562-17.5-17.5-17.5zm2.5 76.5c0 1.378906-1.121094 2.5-2.5 2.5h-2.917969v-64h2.917969c1.378906 0 2.5 1.121094 2.5 2.5zm0 0" fill="#474d54"/><path d="m89.234375 0h-41.316406c-15.164063 0-27.5 12.335938-27.5 27.5v47h-2.917969c-9.648438 0-17.5 7.851562-17.5 17.5v79c0 9.648438 7.851562 17.5 17.5 17.5h2.917969v17h-2.917969c-9.648438 0-17.5 7.851562-17.5 17.5v19c0 9.648438 7.851562 17.5 17.5 17.5h2.917969v8h-2.917969c-9.648438 0-17.5 7.851562-17.5 17.5v19c0 9.648438 7.851562 17.5 17.5 17.5h2.917969v20.847656c0 4.140625 3.355469 7.5 7.5 7.5s7.5-3.359375 7.5-7.5v-314.847656c0-6.894531 5.605469-12.5 12.5-12.5h41.316406c4.144531 0 7.5-3.359375 7.5-7.5s-3.355469-7.5-7.5-7.5zm-68.816406 306.5h-2.917969c-1.378906 0-2.5-1.121094-2.5-2.5v-19c0-1.378906 1.121094-2.5 2.5-2.5h2.917969zm0-62h-2.917969c-1.378906 0-2.5-1.121094-2.5-2.5v-19c0-1.378906 1.121094-2.5 2.5-2.5h2.917969zm0-71h-2.917969c-1.378906 0-2.5-1.121094-2.5-2.5v-79c0-1.378906 1.121094-2.5 2.5-2.5h2.917969zm0 0" fill="#474d54"/><path d="m311.082031 271.515625c-4.144531 0-7.5 3.355469-7.5 7.5v205.484375c0 6.894531-5.605469 12.5-12.5 12.5h-243.164062c-6.894531 0-12.5-5.605469-12.5-12.5v-109.492188c0-4.140624-3.355469-7.5-7.5-7.5s-7.5 3.359376-7.5 7.5v109.492188c0 15.164062 12.335937 27.5 27.5 27.5h243.164062c15.164063 0 27.5-12.335938 27.5-27.5v-205.484375c0-4.144531-3.355469-7.5-7.5-7.5zm0 0" fill="#474d54"/><path d="m189.082031 41.832031c4.144531 0 7.5-3.355469 7.5-7.5 0-4.140625-3.355469-7.5-7.5-7.5h-39.164062c-4.144531 0-7.5 3.359375-7.5 7.5 0 4.144531 3.355469 7.5 7.5 7.5zm0 0" fill="#fff"/><path d="m169.5 341.335938c-21.964844 0-39.832031 17.867187-39.832031 39.832031 0 21.964843 17.867187 39.832031 39.832031 39.832031s39.832031-17.867188 39.832031-39.832031c0-21.964844-17.867187-39.832031-39.832031-39.832031zm0 0" fill="#76ffd9"/><path d="m68 384.332031c0 4.144531 3.355469 7.5 7.5 7.5h17.332031c4.144531 0 7.5-3.355469 7.5-7.5 0-4.140625-3.355469-7.5-7.5-7.5h-17.332031c-4.144531 0-7.5 3.359375-7.5 7.5zm0 0" fill="#d9dfe9"/><path d="m238.667969 384.332031c0 4.144531 3.355469 7.5 7.5 7.5h17.332031c4.144531 0 7.5-3.355469 7.5-7.5 0-4.140625-3.355469-7.5-7.5-7.5h-17.332031c-4.144531 0-7.5 3.359375-7.5 7.5zm0 0" fill="#d9dfe9"/><path d="m134.5 120c-4.144531 0-7.5 3.359375-7.5 7.5v3.5c0 4.140625 3.355469 7.5 7.5 7.5s7.5-3.359375 7.5-7.5v-3.5c0-4.140625-3.355469-7.5-7.5-7.5zm0 0" fill="#c2c7d0"/><path d="m210 121.75h-52.5c-4.144531 0-7.5 3.359375-7.5 7.5s3.355469 7.5 7.5 7.5h52.5c4.144531 0 7.5-3.359375 7.5-7.5s-3.355469-7.5-7.5-7.5zm0 0" fill="#c2c7d0"/><path d="m234 289.085938v-49.804688c0-10.59375-8.617188-19.210938-19.210938-19.210938h-11.578124l-1.882813-9.0625c-1.84375-8.867187-9.753906-15.304687-18.8125-15.304687h-26.035156c-9.054688 0-16.964844 6.4375-18.808594 15.304687l-1.882813 9.0625h-11.578124c-10.59375 0-19.210938 8.617188-19.210938 19.210938v49.804688c0 10.589843 8.617188 19.210937 19.210938 19.210937h90.574218c10.597656 0 19.214844-8.617187 19.214844-19.210937zm0 0" fill="#d9dfe9"/><path d="m169.5 238.039062c-11.992188 0-21.75 9.757813-21.75 21.75 0 11.996094 9.757812 21.75 21.75 21.75s21.75-9.753906 21.75-21.75c0-11.992187-9.757812-21.75-21.75-21.75zm0 0" fill="#fff"/></svg>